<svg class="plot-d6a7b5" fill="currentColor" font-family="system-ui, sans-serif" font-size="10" text-anchor="middle" width="640" height="400" viewBox="0 0 640 400"><style>:where(.plot-d6a7b5) {
  --plot-background: white;
  display: block;
  height: auto;
  height: intrinsic;
  max-width: 100%;
}
:where(.plot-d6a7b5 text),
:where(.plot-d6a7b5 tspan) {
  white-space: pre;
}</style><g aria-label="y-grid" aria-hidden="true" stroke="currentColor" stroke-opacity="0.1" transform="translate(0,0.5)"><line x1="40" x2="620" y1="362.3507432548068" y2="362.3507432548068"></line><line x1="40" x2="620" y1="325.1123496200685" y2="325.1123496200685"></line><line x1="40" x2="620" y1="287.8739559853303" y2="287.8739559853303"></line><line x1="40" x2="620" y1="250.6355623505921" y2="250.6355623505921"></line><line x1="40" x2="620" y1="213.39716871585387" y2="213.39716871585387"></line><line x1="40" x2="620" y1="176.15877508111566" y2="176.15877508111566"></line><line x1="40" x2="620" y1="138.92038144637743" y2="138.92038144637743"></line><line x1="40" x2="620" y1="101.6819878116392" y2="101.6819878116392"></line><line x1="40" x2="620" y1="64.44359417690097" y2="64.44359417690097"></line><line x1="40" x2="620" y1="27.205200542162743" y2="27.205200542162743"></line></g><g aria-label="y-axis tick" aria-hidden="true" fill="none" stroke="currentColor" transform="translate(0,0.5)"><path transform="translate(40,362.3507432548068)" d="M0,0L-6,0"></path><path transform="translate(40,325.1123496200685)" d="M0,0L-6,0"></path><path transform="translate(40,287.8739559853303)" d="M0,0L-6,0"></path><path transform="translate(40,250.6355623505921)" d="M0,0L-6,0"></path><path transform="translate(40,213.39716871585387)" d="M0,0L-6,0"></path><path transform="translate(40,176.15877508111566)" d="M0,0L-6,0"></path><path transform="translate(40,138.92038144637743)" d="M0,0L-6,0"></path><path transform="translate(40,101.6819878116392)" d="M0,0L-6,0"></path><path transform="translate(40,64.44359417690097)" d="M0,0L-6,0"></path><path transform="translate(40,27.205200542162743)" d="M0,0L-6,0"></path></g><g aria-label="y-axis tick label" text-anchor="end" font-variant="tabular-nums" transform="translate(-8.5,0.5)"><text y="0.32em" transform="translate(40,362.3507432548068)">−2.5</text><text y="0.32em" transform="translate(40,325.1123496200685)">−2.0</text><text y="0.32em" transform="translate(40,287.8739559853303)">−1.5</text><text y="0.32em" transform="translate(40,250.6355623505921)">−1.0</text><text y="0.32em" transform="translate(40,213.39716871585387)">−0.5</text><text y="0.32em" transform="translate(40,176.15877508111566)">0.0</text><text y="0.32em" transform="translate(40,138.92038144637743)">0.5</text><text y="0.32em" transform="translate(40,101.6819878116392)">1.0</text><text y="0.32em" transform="translate(40,64.44359417690097)">1.5</text><text y="0.32em" transform="translate(40,27.205200542162743)">2.0</text></g><g aria-label="y-axis label" text-anchor="start" transform="translate(-36.5,-16.5)"><text y="0.71em" transform="translate(40,20)">↑ PC2</text></g><g aria-label="x-grid" aria-hidden="true" stroke="currentColor" stroke-opacity="0.1" transform="translate(0.5,0)"><line x1="103.71465413958958" x2="103.71465413958958" y1="20" y2="370"></line><line x1="192.92905007568947" x2="192.92905007568947" y1="20" y2="370"></line><line x1="282.1434460117894" x2="282.1434460117894" y1="20" y2="370"></line><line x1="371.35784194788937" x2="371.35784194788937" y1="20" y2="370"></line><line x1="460.5722378839893" x2="460.5722378839893" y1="20" y2="370"></line><line x1="549.7866338200893" x2="549.7866338200893" y1="20" y2="370"></line></g><g aria-label="x-axis tick" aria-hidden="true" fill="none" stroke="currentColor" transform="translate(0.5,0)"><path transform="translate(103.71465413958958,370)" d="M0,0L0,6"></path><path transform="translate(192.92905007568947,370)" d="M0,0L0,6"></path><path transform="translate(282.1434460117894,370)" d="M0,0L0,6"></path><path transform="translate(371.35784194788937,370)" d="M0,0L0,6"></path><path transform="translate(460.5722378839893,370)" d="M0,0L0,6"></path><path transform="translate(549.7866338200893,370)" d="M0,0L0,6"></path></g><g aria-label="x-axis tick label" font-variant="tabular-nums" transform="translate(0.5,9.5)"><text y="0.71em" transform="translate(103.71465413958958,370)">−2</text><text y="0.71em" transform="translate(192.92905007568947,370)">−1</text><text y="0.71em" transform="translate(282.1434460117894,370)">0</text><text y="0.71em" transform="translate(371.35784194788937,370)">1</text><text y="0.71em" transform="translate(460.5722378839893,370)">2</text><text y="0.71em" transform="translate(549.7866338200893,370)">3</text></g><g aria-label="x-axis label" text-anchor="end" transform="translate(17.5,27.5)"><text transform="translate(620,370)">PC1 →</text></g><g aria-label="dot" fill-opacity="0.7" transform="translate(0.5,0.5)"><circle cx="116.77626471434644" cy="178.5471992160383" r="4" fill="#4269d0"></circle><circle cx="164.71463531831282" cy="143.12632654612466" r="4" fill="#4269d0"></circle><circle cx="159.33045426418946" cy="164.1508471009949" r="4" fill="#4269d0"></circle><circle cx="113.94858233372283" cy="175.2388947710776" r="4" fill="#4269d0"></circle><circle cx="110.85352412969479" cy="237.05085674924007" r="4" fill="#4269d0"></circle><circle cx="123.96450963801088" cy="148.88366584037138" r="4" fill="#4269d0"></circle><circle cx="209.12179752890134" cy="213.48974965358644" r="4" fill="#4269d0"></circle><circle cx="121.65051908759162" cy="157.88262246854202" r="4" fill="#4269d0"></circle><circle cx="107.62680143426391" cy="250.50767790600818" r="4" fill="#4269d0"></circle><circle cx="142.11938515918112" cy="219.21246135028682" r="4" fill="#4269d0"></circle><circle cx="126.19657312163426" cy="130.70974081867328" r="4" fill="#4269d0"></circle><circle cx="141.561746495245" cy="182.6260210101762" r="4" fill="#4269d0"></circle><circle cx="210.35082035637944" cy="272.498664252823" r="4" fill="#4269d0"></circle><circle cx="72.4737274451295" cy="128.10701686566907" r="4" fill="#4269d0"></circle><circle cx="192.48418729277253" cy="323.0584666854737" r="4" fill="#4269d0"></circle><circle cx="67.2930157824084" cy="153.1477830383518" r="4" fill="#4269d0"></circle><circle cx="93.5711330834065" cy="165.99320422398105" r="4" fill="#4269d0"></circle><circle cx="116.46720140787768" cy="168.03007612884068" r="4" fill="#4269d0"></circle><circle cx="147.874850099428" cy="154.62545076142413" r="4" fill="#4269d0"></circle><circle cx="141.08318688560072" cy="131.17982147139253" r="4" fill="#4269d0"></circle><circle cx="110.09640804345221" cy="154.00975237249668" r="4" fill="#4269d0"></circle><circle cx="124.86287857989967" cy="186.45591793297996" r="4" fill="#4269d0"></circle><circle cx="130.156604714731" cy="162.1718626350646" r="4" fill="#4269d0"></circle><circle cx="40" cy="161.1810226881963" r="4" fill="#4269d0"></circle><circle cx="132.05555571320497" cy="197.4250504776778" r="4" fill="#4269d0"></circle><circle cx="114.42487551016856" cy="117.87465656269549" r="4" fill="#4269d0"></circle><circle cx="111.67135902860984" cy="145.86943263780483" r="4" fill="#4269d0"></circle><circle cx="134.330128236166" cy="151.70906379526832" r="4" fill="#4269d0"></circle><circle cx="146.68004741968113" cy="200.46861230285296" r="4" fill="#4269d0"></circle><circle cx="153.0977810184034" cy="102.59914983599951" r="4" fill="#4269d0"></circle><circle cx="153.61903679139658" cy="255.03683244097925" r="4" fill="#4269d0"></circle><circle cx="136.30811656921458" cy="216.98869193465038" r="4" fill="#4269d0"></circle><circle cx="127.50357276652976" cy="196.44584273481615" r="4" fill="#4269d0"></circle><circle cx="67.3455951516645" cy="181.17442555076346" r="4" fill="#4269d0"></circle><circle cx="180.64891677745516" cy="202.80730094800032" r="4" fill="#4269d0"></circle><circle cx="77.25626915157048" cy="131.93437361874766" r="4" fill="#4269d0"></circle><circle cx="195.44054479731003" cy="184.91054154905126" r="4" fill="#4269d0"></circle><circle cx="76.15573130019075" cy="142.68859865211647" r="4" fill="#4269d0"></circle><circle cx="230.54166576165278" cy="254.70098622531202" r="4" fill="#4269d0"></circle><circle cx="102.76185170462627" cy="101.88523352869134" r="4" fill="#4269d0"></circle><circle cx="203.61134810813877" cy="191.95375256000472" r="4" fill="#4269d0"></circle><circle cx="110.02604901883804" cy="201.6954896723999" r="4" fill="#4269d0"></circle><circle cx="123.07549111957049" cy="127.19691940909892" r="4" fill="#4269d0"></circle><circle cx="156.40455175264697" cy="283.2758310626681" r="4" fill="#4269d0"></circle><circle cx="141.7263255884774" cy="150.86702333382348" r="4" fill="#4269d0"></circle><circle cx="179.85522562308805" cy="196.87602708441324" r="4" fill="#4269d0"></circle><circle cx="115.6619432206032" cy="119.01067461976452" r="4" fill="#4269d0"></circle><circle cx="211.95545964976412" cy="229.12272486732255" r="4" fill="#4269d0"></circle><circle cx="63.75622009095244" cy="116.9608095041053" r="4" fill="#4269d0"></circle><circle cx="169.36016420156946" cy="194.31378975198933" r="4" fill="#4269d0"></circle><circle cx="143.9489918703547" cy="140.27811268651686" r="4" fill="#4269d0"></circle><circle cx="173.26187868068487" cy="194.5660133670099" r="4" fill="#4269d0"></circle><circle cx="80.62906531055063" cy="87.5594785784989" r="4" fill="#4269d0"></circle><circle cx="146.21705591992657" cy="178.730902862225" r="4" fill="#4269d0"></circle><circle cx="102.27322076119933" cy="92.30556420375207" r="4" fill="#4269d0"></circle><circle cx="180.75860634078697" cy="273.9678912814471" r="4" fill="#4269d0"></circle><circle cx="141.9953384551713" cy="114.06243271079275" r="4" fill="#4269d0"></circle><circle cx="199.4031753302703" cy="182.3051403222294" r="4" fill="#4269d0"></circle><circle cx="81.866423813343" cy="101.91154777553984" r="4" fill="#4269d0"></circle><circle cx="200.63176297578113" cy="179.65865004199514" r="4" fill="#4269d0"></circle><circle cx="162.4349564482614" cy="71.28335071271319" r="4" fill="#4269d0"></circle><circle cx="171.4489971755671" cy="209.67698674625828" r="4" fill="#4269d0"></circle><circle cx="121.474227562568" cy="84.34156071196523" r="4" fill="#4269d0"></circle><circle cx="229.3262343993593" cy="227.24140950400465" r="4" fill="#4269d0"></circle><circle cx="93.7743625100548" cy="140.96598007786642" r="4" fill="#4269d0"></circle><circle cx="168.89972587265515" cy="175.751655351817" r="4" fill="#4269d0"></circle><circle cx="190.60065495058828" cy="136.45092330689383" r="4" fill="#4269d0"></circle><circle cx="246.05811654639461" cy="242.75240395456342" r="4" fill="#efb118"></circle><circle cx="141.85928853783255" cy="112.81191836821522" r="4" fill="#4269d0"></circle><circle cx="229.8046963976918" cy="206.7777352675617" r="4" fill="#4269d0"></circle><circle cx="198.24360146771352" cy="135.93884669038187" r="4" fill="#4269d0"></circle><circle cx="110.19708374471693" cy="185.25779010091034" r="4" fill="#4269d0"></circle><circle cx="152.2161830570039" cy="75.16823681010932" r="4" fill="#4269d0"></circle><circle cx="198.50350692115478" cy="217.37055596868205" r="4" fill="#4269d0"></circle><circle cx="106.44500963344038" cy="92.82502822354611" r="4" fill="#4269d0"></circle><circle cx="277.96528401825185" cy="183.67359950240476" r="4" fill="#4269d0"></circle><circle cx="122.28594239176347" cy="162.454838373846" r="4" fill="#4269d0"></circle><circle cx="146.0212450317704" cy="170.46880431783873" r="4" fill="#4269d0"></circle><circle cx="132.10153304165615" cy="134.14588504984437" r="4" fill="#4269d0"></circle><circle cx="139.72173390204634" cy="243.79129049246168" r="4" fill="#4269d0"></circle><circle cx="117.67810194535144" cy="180.38234754152444" r="4" fill="#4269d0"></circle><circle cx="116.44619039492653" cy="155.99748289347073" r="4" fill="#4269d0"></circle><circle cx="143.4086976906295" cy="188.7395125244386" r="4" fill="#4269d0"></circle><circle cx="137.428655743992" cy="179.14038853283427" r="4" fill="#4269d0"></circle><circle cx="169.26637930950852" cy="128.8346425730008" r="4" fill="#4269d0"></circle><circle cx="264.26542704180133" cy="181.46067580248257" r="4" fill="#4269d0"></circle><circle cx="101.2973569621582" cy="86.19100963798067" r="4" fill="#4269d0"></circle><circle cx="192.42760482257515" cy="169.65849318960375" r="4" fill="#4269d0"></circle><circle cx="115.24107337120142" cy="109.58536908607708" r="4" fill="#4269d0"></circle><circle cx="258.588374095529" cy="203.22246615281327" r="4" fill="#4269d0"></circle><circle cx="141.21827288781938" cy="167.26837856139264" r="4" fill="#4269d0"></circle><circle cx="221.04733078091883" cy="187.05122594748275" r="4" fill="#4269d0"></circle><circle cx="56.49394960311644" cy="44.90970225251935" r="4" fill="#4269d0"></circle><circle cx="212.58958449057369" cy="208.89737412472013" r="4" fill="#4269d0"></circle><circle cx="139.78944214450877" cy="121.02010437687615" r="4" fill="#4269d0"></circle><circle cx="247.6910410070231" cy="240.8881938093422" r="4" fill="#4269d0"></circle><circle cx="121.46656501001597" cy="80.94431222676647" r="4" fill="#4269d0"></circle><circle cx="147.19253132070824" cy="210.92734494770687" r="4" fill="#4269d0"></circle><circle cx="103.49737620247653" cy="160.23422043806244" r="4" fill="#4269d0"></circle><circle cx="116.43616684871611" cy="188.166071119529" r="4" fill="#4269d0"></circle><circle cx="206.41729856006958" cy="129.7736872098666" r="4" fill="#4269d0"></circle><circle cx="128.8103273880908" cy="211.72279542731798" r="4" fill="#4269d0"></circle><circle cx="105.07126566120257" cy="115.02206967556627" r="4" fill="#4269d0"></circle><circle cx="263.09308024111624" cy="228.91069462766075" r="4" fill="#4269d0"></circle><circle cx="216.2818030543426" cy="105.07138895397158" r="4" fill="#4269d0"></circle><circle cx="224.61130940274396" cy="286.33687523758783" r="4" fill="#4269d0"></circle><circle cx="149.9100004580206" cy="149.7763737109191" r="4" fill="#4269d0"></circle><circle cx="216.1300914759287" cy="232.2612370196027" r="4" fill="#4269d0"></circle><circle cx="130.19250666550352" cy="244.32393844421168" r="4" fill="#4269d0"></circle><circle cx="225.6878478883653" cy="198.71907704892243" r="4" fill="#4269d0"></circle><circle cx="117.74518991120436" cy="117.38299278526158" r="4" fill="#4269d0"></circle><circle cx="138.55579595029982" cy="218.82531502332168" r="4" fill="#4269d0"></circle><circle cx="127.37002822704892" cy="96.86103298557153" r="4" fill="#4269d0"></circle><circle cx="136.90928002448678" cy="189.14018729061377" r="4" fill="#4269d0"></circle><circle cx="107.90265933572809" cy="105.50726348116268" r="4" fill="#4269d0"></circle><circle cx="133.74487046143906" cy="199.01158964170492" r="4" fill="#4269d0"></circle><circle cx="119.02693244283189" cy="134.006989789727" r="4" fill="#4269d0"></circle><circle cx="222.29355875616892" cy="192.87649401005802" r="4" fill="#4269d0"></circle><circle cx="114.2499820729578" cy="57.378378890225605" r="4" fill="#4269d0"></circle><circle cx="203.9024853510938" cy="202.19874562413474" r="4" fill="#4269d0"></circle><circle cx="142.2684988070059" cy="139.8627143758104" r="4" fill="#4269d0"></circle><circle cx="226.83787915029203" cy="190.4584532677211" r="4" fill="#4269d0"></circle><circle cx="139.0805728477392" cy="124.82800646328963" r="4" fill="#4269d0"></circle><circle cx="288.4045916137903" cy="201.03287259334232" r="4" fill="#ff725c"></circle><circle cx="133.98520976262984" cy="146.77715729810527" r="4" fill="#4269d0"></circle><circle cx="180.96424960724653" cy="225.0925678960037" r="4" fill="#6cc5b0"></circle><circle cx="132.22413588341973" cy="152.28641525399158" r="4" fill="#4269d0"></circle><circle cx="218.94509750964386" cy="165.10752477905595" r="4" fill="#4269d0"></circle><circle cx="131.51926361432652" cy="135.07157838129862" r="4" fill="#4269d0"></circle><circle cx="195.57379853902304" cy="160.07148772341503" r="4" fill="#4269d0"></circle><circle cx="114.25639193658094" cy="109.94277507875786" r="4" fill="#4269d0"></circle><circle cx="183.17317903046538" cy="231.95020001823644" r="4" fill="#4269d0"></circle><circle cx="134.40140439760245" cy="92.65580378367031" r="4" fill="#4269d0"></circle><circle cx="210.33173515511956" cy="163.24482942672515" r="4" fill="#4269d0"></circle><circle cx="176.67881991302073" cy="137.19215441820023" r="4" fill="#4269d0"></circle><circle cx="160.34506296251652" cy="143.8287131734907" r="4" fill="#4269d0"></circle><circle cx="105.86461923950415" cy="20" r="4" fill="#4269d0"></circle><circle cx="190.98740428211943" cy="140.47918257102543" r="4" fill="#4269d0"></circle><circle cx="132.53676609418085" cy="101.54107396232587" r="4" fill="#4269d0"></circle><circle cx="124.64432202959836" cy="177.14348901281406" r="4" fill="#4269d0"></circle><circle cx="182.91944043586165" cy="180.16889380071046" r="4" fill="#4269d0"></circle><circle cx="97.93251414808788" cy="147.17920430340016" r="4" fill="#4269d0"></circle><circle cx="143.27197464511852" cy="124.33527963434655" r="4" fill="#4269d0"></circle><circle cx="162.1282551501327" cy="150.18078139710946" r="4" fill="#4269d0"></circle><circle cx="141.77678190486995" cy="104.75000379062695" r="4" fill="#4269d0"></circle><circle cx="226.98188140326616" cy="194.54968918752775" r="4" fill="#4269d0"></circle><circle cx="211.3217709947863" cy="213.56824610242825" r="4" fill="#efb118"></circle><circle cx="247.40612852763886" cy="293.4270207376289" r="4" fill="#efb118"></circle><circle cx="236.1955907153755" cy="293.1590105265677" r="4" fill="#efb118"></circle><circle cx="175.49842722010456" cy="228.74249173760444" r="4" fill="#efb118"></circle><circle cx="254.99437768663515" cy="323.3681314477204" r="4" fill="#efb118"></circle><circle cx="253.00476947452654" cy="203.28263819092092" r="4" fill="#efb118"></circle><circle cx="136.19578229699601" cy="217.13872272808592" r="4" fill="#efb118"></circle><circle cx="275.10931748506613" cy="263.8339563000156" r="4" fill="#efb118"></circle><circle cx="240.18645963187168" cy="244.32804614084367" r="4" fill="#efb118"></circle><circle cx="244.95719636461038" cy="314.7767740152984" r="4" fill="#efb118"></circle><circle cx="235.84883897205924" cy="213.52691506582707" r="4" fill="#efb118"></circle><circle cx="230.5461040391513" cy="330.52190965333244" r="4" fill="#efb118"></circle><circle cx="212.350307719679" cy="200.76840310915625" r="4" fill="#efb118"></circle><circle cx="315.116063943194" cy="268.7967822943949" r="4" fill="#efb118"></circle><circle cx="218.5783047417615" cy="185.00086327808756" r="4" fill="#efb118"></circle><circle cx="276.8372327483868" cy="301.75226566617687" r="4" fill="#efb118"></circle><circle cx="207.65861439477993" cy="306.7421854740352" r="4" fill="#efb118"></circle><circle cx="270.1377651709004" cy="305.7721657672557" r="4" fill="#3ca951"></circle><circle cx="187.50241824053006" cy="233.44346214420878" r="4" fill="#efb118"></circle><circle cx="291.83208614558384" cy="251.1851807093405" r="4" fill="#efb118"></circle><circle cx="157.43993351230992" cy="162.28016426758126" r="4" fill="#4269d0"></circle><circle cx="223.61463182110398" cy="217.1390062129645" r="4" fill="#efb118"></circle><circle cx="155.41259615832385" cy="142.94628861553082" r="4" fill="#4269d0"></circle><circle cx="236.53395393181478" cy="294.52240148266696" r="4" fill="#efb118"></circle><circle cx="211.63738854908047" cy="213.88130668274778" r="4" fill="#efb118"></circle><circle cx="290.2115462302344" cy="296.52277835215546" r="4" fill="#efb118"></circle><circle cx="255.24127123564847" cy="260.929636597243" r="4" fill="#efb118"></circle><circle cx="261.3616031320865" cy="273.6705291000767" r="4" fill="#efb118"></circle><circle cx="220.91244201446239" cy="211.1197600689099" r="4" fill="#efb118"></circle><circle cx="331.8514611630507" cy="336.3079653770129" r="4" fill="#efb118"></circle><circle cx="156.65939864116004" cy="126.2428234024526" r="4" fill="#4269d0"></circle><circle cx="297.78885470619787" cy="370" r="4" fill="#efb118"></circle><circle cx="175.85948931498106" cy="143.41892067030193" r="4" fill="#4269d0"></circle><circle cx="305.43257195198703" cy="282.13589083641125" r="4" fill="#efb118"></circle><circle cx="239.50202386814337" cy="261.6745357791743" r="4" fill="#efb118"></circle><circle cx="288.78912534513677" cy="191.6310879212624" r="4" fill="#efb118"></circle><circle cx="244.61357735830092" cy="237.2071997790744" r="4" fill="#efb118"></circle><circle cx="346.8808702600857" cy="352.79333156920336" r="4" fill="#efb118"></circle><circle cx="189.02999785331963" cy="171.97281273010722" r="4" fill="#efb118"></circle><circle cx="335.8018515403413" cy="338.66853039209633" r="4" fill="#efb118"></circle><circle cx="294.5228065306299" cy="286.0261729831325" r="4" fill="#efb118"></circle><circle cx="207.10304087356394" cy="199.95817782298133" r="4" fill="#efb118"></circle><circle cx="239.9729677035333" cy="286.25296679703143" r="4" fill="#efb118"></circle><circle cx="234.9120616922657" cy="178.364304522797" r="4" fill="#efb118"></circle><circle cx="269.32392628497723" cy="250.95046043673406" r="4" fill="#efb118"></circle><circle cx="323.3748208393528" cy="273.8691124319237" r="4" fill="#efb118"></circle><circle cx="224.55685605326502" cy="242.26882130498177" r="4" fill="#efb118"></circle><circle cx="321.4142288273936" cy="291.58248389456077" r="4" fill="#efb118"></circle><circle cx="200.27075372705744" cy="276.69995858122576" r="4" fill="#efb118"></circle><circle cx="279.3867938289721" cy="223.91325771773944" r="4" fill="#efb118"></circle><circle cx="265.4084281634955" cy="180.40748719207144" r="4" fill="#efb118"></circle><circle cx="288.27350871251286" cy="290.31764648680075" r="4" fill="#efb118"></circle><circle cx="226.03084054480024" cy="189.66441270190433" r="4" fill="#efb118"></circle><circle cx="283.8637415327396" cy="306.46677809934926" r="4" fill="#efb118"></circle><circle cx="164.9960855764384" cy="161.51286089261544" r="4" fill="#4269d0"></circle><circle cx="252.6201442051333" cy="287.17061903033914" r="4" fill="#efb118"></circle><circle cx="206.2960480370955" cy="161.92103917349553" r="4" fill="#efb118"></circle><circle cx="269.8636398946712" cy="301.03734880171896" r="4" fill="#efb118"></circle><circle cx="277.52658773519414" cy="273.4311938167597" r="4" fill="#efb118"></circle><circle cx="186.37026525454763" cy="251.67415793626338" r="4" fill="#efb118"></circle><circle cx="301.31336244900206" cy="309.643069329029" r="4" fill="#efb118"></circle><circle cx="237.01120900483158" cy="174.77496443097945" r="4" fill="#efb118"></circle><circle cx="241.8665693501314" cy="181.03319899606603" r="4" fill="#efb118"></circle><circle cx="331.52134107460466" cy="351.00134713811485" r="4" fill="#efb118"></circle><circle cx="216.1325043064654" cy="194.64055973233238" r="4" fill="#efb118"></circle><circle cx="249.32238328906084" cy="249.9712014318399" r="4" fill="#efb118"></circle><circle cx="326.0690105227868" cy="286.7455789865353" r="4" fill="#efb118"></circle><circle cx="263.10359181544675" cy="270.11524875300154" r="4" fill="#efb118"></circle><circle cx="424.3127049846582" cy="76.22614011661511" r="4" fill="#ff8ab7"></circle><circle cx="540.1562881060099" cy="210.72270814994167" r="4" fill="#ff8ab7"></circle><circle cx="420.5659802252574" cy="124.26633388282956" r="4" fill="#ff8ab7"></circle><circle cx="515.9463293274395" cy="177.18084377951408" r="4" fill="#ff8ab7"></circle><circle cx="481.4982730062823" cy="134.20695139930842" r="4" fill="#ff8ab7"></circle><circle cx="421.2188994695591" cy="88.8709543914441" r="4" fill="#ff8ab7"></circle><circle cx="412.0732420492427" cy="114.83986041853666" r="4" fill="#ff8ab7"></circle><circle cx="462.851632800814" cy="149.6711997269047" r="4" fill="#ff8ab7"></circle><circle cx="386.47994891023234" cy="58.56606207486644" r="4" fill="#ff8ab7"></circle><circle cx="444.02402687057725" cy="153.02811773265194" r="4" fill="#ff8ab7"></circle><circle cx="396.8899505279481" cy="49.890809789246234" r="4" fill="#ff8ab7"></circle><circle cx="475.7343280011114" cy="195.01145365086788" r="4" fill="#ff8ab7"></circle><circle cx="430.9922708631974" cy="87.54753582018438" r="4" fill="#ff8ab7"></circle><circle cx="505.71112151707376" cy="146.8973438664946" r="4" fill="#ff8ab7"></circle><circle cx="374.76555266074956" cy="113.83375934369528" r="4" fill="#ff8ab7"></circle><circle cx="507.1758074274492" cy="187.56040146097666" r="4" fill="#ff8ab7"></circle><circle cx="363.4606503902586" cy="49.19965576958481" r="4" fill="#ff8ab7"></circle><circle cx="557.6429660506622" cy="174.97405371020832" r="4" fill="#ff8ab7"></circle><circle cx="412.46028116385725" cy="118.31159277469865" r="4" fill="#ff8ab7"></circle><circle cx="501.48039424496767" cy="161.16723495671096" r="4" fill="#ff8ab7"></circle><circle cx="533.7241445150468" cy="151.67718240391088" r="4" fill="#ff8ab7"></circle><circle cx="438.5671197249164" cy="110.90814235611798" r="4" fill="#ff8ab7"></circle><circle cx="404.9957949882323" cy="118.05748268481764" r="4" fill="#ff8ab7"></circle><circle cx="426.9756628785783" cy="160.28932288539676" r="4" fill="#ff8ab7"></circle><circle cx="447.6052564037876" cy="50.679209967517664" r="4" fill="#ff8ab7"></circle><circle cx="441.21658476882794" cy="137.89662663522932" r="4" fill="#ff8ab7"></circle><circle cx="489.17644834600765" cy="152.6932320444289" r="4" fill="#ff8ab7"></circle><circle cx="422.38705302149015" cy="127.26697379679565" r="4" fill="#ff8ab7"></circle><circle cx="512.3411472067683" cy="179.19565835362414" r="4" fill="#ff8ab7"></circle><circle cx="481.3809717234123" cy="155.02950639161702" r="4" fill="#ff8ab7"></circle><circle cx="386.5865992931528" cy="80.72309111234136" r="4" fill="#ff8ab7"></circle><circle cx="412.19931418939416" cy="111.01586490350337" r="4" fill="#ff8ab7"></circle><circle cx="620" cy="312.89930248970666" r="4" fill="#ff8ab7"></circle><circle cx="490.32450701253543" cy="153.91655745477414" r="4" fill="#ff8ab7"></circle><circle cx="473.22481634561933" cy="195.19178482668272" r="4" fill="#ff8ab7"></circle><circle cx="424.1137613594952" cy="65.90152034771232" r="4" fill="#ff8ab7"></circle><circle cx="412.63878727979085" cy="191.5101204195455" r="4" fill="#ff8ab7"></circle><circle cx="381.3214541710935" cy="69.94279381531325" r="4" fill="#ff8ab7"></circle><circle cx="439.1364250462103" cy="178.82992777791821" r="4" fill="#ff8ab7"></circle><circle cx="345.47599107873117" cy="59.48313522304289" r="4" fill="#ff8ab7"></circle><circle cx="524.2366545799032" cy="198.24722319408468" r="4" fill="#ff8ab7"></circle><circle cx="393.45320520256683" cy="83.30802588302153" r="4" fill="#ff8ab7"></circle><circle cx="451.3041298599242" cy="161.08458264385138" r="4" fill="#ff8ab7"></circle><circle cx="512.5388839120259" cy="201.4443277421914" r="4" fill="#ff8ab7"></circle><circle cx="439.5652472258375" cy="79.88814245392588" r="4" fill="#ff8ab7"></circle><circle cx="385.21545931935907" cy="90.26828898086262" r="4" fill="#ff8ab7"></circle><circle cx="514.42145232827" cy="200.47428899837578" r="4" fill="#ff8ab7"></circle><circle cx="457.5561720113785" cy="73.72970544950135" r="4" fill="#ff8ab7"></circle><circle cx="434.0690623984317" cy="153.05520178578809" r="4" fill="#ff8ab7"></circle><circle cx="427.58424588161694" cy="112.92407359880079" r="4" fill="#ff8ab7"></circle><circle cx="507.69933062668514" cy="128.9576625563366" r="4" fill="#ff8ab7"></circle><circle cx="385.3958454779607" cy="103.48867311865068" r="4" fill="#ff8ab7"></circle><circle cx="503.353855242549" cy="167.22568367931737" r="4" fill="#ff8ab7"></circle><circle cx="452.0116996840569" cy="118.70653586159015" r="4" fill="#ff8ab7"></circle><circle cx="442.96623600474027" cy="137.73859477335296" r="4" fill="#ff8ab7"></circle><circle cx="371.3573822802853" cy="76.99836533487124" r="4" fill="#ff8ab7"></circle><circle cx="450.8656186715087" cy="129.41494071941275" r="4" fill="#ff8ab7"></circle><circle cx="365.1948311275929" cy="91.24300758477948" r="4" fill="#ff8ab7"></circle><circle cx="530.0152993549881" cy="182.59336981253108" r="4" fill="#ff8ab7"></circle><circle cx="378.1889505350062" cy="85.55377654769023" r="4" fill="#ff8ab7"></circle><circle cx="479.8408153881621" cy="134.2853565564121" r="4" fill="#ff8ab7"></circle><circle cx="413.60554365475923" cy="93.44535001683002" r="4" fill="#ff8ab7"></circle><circle cx="583.5254706155263" cy="227.50627427382747" r="4" fill="#ff8ab7"></circle><circle cx="445.59907546163663" cy="105.58985933827753" r="4" fill="#ff8ab7"></circle><circle cx="529.6207420774308" cy="224.16374271066928" r="4" fill="#ff8ab7"></circle><circle cx="540.682219082612" cy="204.2914249332259" r="4" fill="#ff8ab7"></circle><circle cx="432.2250985411701" cy="86.79229970860182" r="4" fill="#ff8ab7"></circle><circle cx="533.9938823467913" cy="175.97146975238138" r="4" fill="#ff8ab7"></circle><circle cx="437.21838885188646" cy="145.53071754411604" r="4" fill="#ff8ab7"></circle><circle cx="450.3515912891949" cy="154.90730463792033" r="4" fill="#ff8ab7"></circle><circle cx="469.79529839082306" cy="170.3508445261859" r="4" fill="#ff8ab7"></circle><circle cx="463.06739317548954" cy="132.89406047885666" r="4" fill="#ff8ab7"></circle><circle cx="424.5311161414856" cy="134.5344496842495" r="4" fill="#ff8ab7"></circle><circle cx="541.308343800214" cy="190.92329460118046" r="4" fill="#ff8ab7"></circle><circle cx="415.33095353481195" cy="118.49014235474934" r="4" fill="#ff8ab7"></circle><circle cx="529.8373209737528" cy="221.5444413626674" r="4" fill="#ff8ab7"></circle><circle cx="436.7341433343952" cy="88.84642174035997" r="4" fill="#ff8ab7"></circle><circle cx="492.2687103798201" cy="175.9995143329615" r="4" fill="#ff8ab7"></circle><circle cx="434.31730826623465" cy="140.90458910308692" r="4" fill="#ff8ab7"></circle><circle cx="523.0211774485865" cy="208.03074455644645" r="4" fill="#ff8ab7"></circle><circle cx="426.0030304317201" cy="130.71192893240098" r="4" fill="#ff8ab7"></circle><circle cx="503.9878346898848" cy="195.99621358418347" r="4" fill="#ff8ab7"></circle><circle cx="423.47852922323045" cy="86.29813814617972" r="4" fill="#ff8ab7"></circle><circle cx="514.5277661498094" cy="246.65836497954794" r="4" fill="#ff8ab7"></circle><circle cx="414.4089217939558" cy="91.23508259805595" r="4" fill="#ff8ab7"></circle><circle cx="519.2923309597198" cy="154.8331978986051" r="4" fill="#ff8ab7"></circle><circle cx="446.75677028538985" cy="114.49906209021648" r="4" fill="#ff8ab7"></circle><circle cx="533.9017863403109" cy="247.9609702323807" r="4" fill="#ff8ab7"></circle><circle cx="455.28868753338344" cy="145.37167389276306" r="4" fill="#ff8ab7"></circle><circle cx="516.3292260209039" cy="250.67119574225103" r="4" fill="#ff8ab7"></circle><circle cx="415.2526869343112" cy="112.31948194581267" r="4" fill="#ff8ab7"></circle><circle cx="514.9578888113476" cy="200.05930239934503" r="4" fill="#ff8ab7"></circle><circle cx="417.67169183363313" cy="110.93445660296632" r="4" fill="#ff8ab7"></circle><circle cx="511.7451927576586" cy="195.5130538786043" r="4" fill="#ff8ab7"></circle><circle cx="446.0106935081762" cy="184.8121110337971" r="4" fill="#ff8ab7"></circle><circle cx="468.2170702790489" cy="127.98928929686227" r="4" fill="#ff8ab7"></circle><circle cx="397.8437428022908" cy="131.8813305746942" r="4" fill="#ff8ab7"></circle><circle cx="498.8571960038774" cy="222.4175271930944" r="4" fill="#ff8ab7"></circle><circle cx="460.28009779602183" cy="152.88042280042708" r="4" fill="#ff8ab7"></circle><circle cx="557.7685623038135" cy="279.3612432939965" r="4" fill="#ff8ab7"></circle><circle cx="434.50506719430484" cy="158.07874863404328" r="4" fill="#ff8ab7"></circle><circle cx="537.4684615024913" cy="162.67334538468108" r="4" fill="#ff8ab7"></circle><circle cx="452.6976789344819" cy="176.61676209480703" r="4" fill="#ff8ab7"></circle><circle cx="373.05604340266166" cy="86.82730874846145" r="4" fill="#ff8ab7"></circle><circle cx="521.7675299255699" cy="221.72222113643045" r="4" fill="#ff8ab7"></circle><circle cx="382.61317347063374" cy="77.86872262944793" r="4" fill="#ff8ab7"></circle><circle cx="458.3778646177612" cy="156.91749296899286" r="4" fill="#ff8ab7"></circle><circle cx="469.60349059819805" cy="176.25426453034916" r="4" fill="#ff8ab7"></circle><circle cx="557.4869666468039" cy="198.76277716006493" r="4" fill="#ff8ab7"></circle><circle cx="385.32948247174835" cy="116.37909341150589" r="4" fill="#ff8ab7"></circle><circle cx="539.0779681874869" cy="221.58547679901596" r="4" fill="#ff8ab7"></circle><circle cx="423.19790254533154" cy="103.48512115944898" r="4" fill="#ff8ab7"></circle><circle cx="592.5460655852445" cy="244.48803536558572" r="4" fill="#ff8ab7"></circle><circle cx="521.9510945902016" cy="199.762028415066" r="4" fill="#ff8ab7"></circle><circle cx="460.36843472103084" cy="103.41197494757783" r="4" fill="#ff8ab7"></circle><circle cx="445.6423044074443" cy="117.73099618935308" r="4" fill="#ff8ab7"></circle><circle cx="527.6173054686174" cy="196.01098839074731" r="4" fill="#ff8ab7"></circle><circle cx="435.0438646710412" cy="122.09792532375546" r="4" fill="#ff8ab7"></circle><circle cx="462.225990043477" cy="201.22421490269335" r="4" fill="#ff8ab7"></circle></g><g aria-label="arrow" fill="none" stroke="red" stroke-width="2" stroke-linecap="round" stroke-miterlimit="1" transform="translate(0.5,0.5)"><path d="M282.1434460117894,176.15877508111566L403.58739012794007,310.26053961622455M401.3397530079471,299.83336813232694L403.58739012794007,310.26053961622455L393.43337617327154,306.9934647186786"></path><path d="M282.1434460117894,176.15877508111566L175.34117240038694,354.04721601934625M184.66865663060946,348.87268070564625L175.34117240038694,354.04721601934625L175.52363548105433,343.3821100657248"></path><path d="M282.1434460117894,176.15877508111566L436.5267278277214,177.45202795163482M427.33412283333087,172.0415019887654L436.5267278277214,177.45202795163482L427.24477239884595,182.707794422298"></path><path d="M282.1434460117894,176.15877508111566L429.2601380113031,193.24307793474048M420.6994107154612,186.8797670085005L429.2601380113031,193.24307793474048L419.46898544907924,197.4752297846904"></path></g><g aria-label="text" fill="darkred" font-size="10" transform="translate(5.5,5.5)"><text y="0.32em" transform="translate(403.58739012794007,310.26053961622455)">Beak Length (mm)</text><text y="0.32em" transform="translate(175.34117240038694,354.04721601934625)">Beak Depth (mm)</text><text y="0.32em" transform="translate(436.5267278277214,177.45202795163482)">Flipper Length (mm)</text><text y="0.32em" transform="translate(429.2601380113031,193.24307793474048)">Body Mass (g)</text></g></svg>