<svg width="640" height="800" viewBox="0 0 640 800" role="img" style="font-family: system-ui, sans-serif; font-size: 11px;"><g><g fill="none" stroke="#999" stroke-width="1.25"><line x1="124.05" y1="121.38" x2="48.00" y2="121.38"></line><line x1="107.35" y1="456.12" x2="48.00" y2="456.12"></line><line x1="48.00" y1="121.38" x2="48.00" y2="456.12"></line><line x1="211.68" y1="62.28" x2="124.05" y2="62.28"></line><line x1="185.99" y1="180.48" x2="124.05" y2="180.48"></line><line x1="124.05" y1="62.28" x2="124.05" y2="180.48"></line><line x1="318.36" y1="40.15" x2="211.68" y2="40.15"></line><line x1="281.00" y1="84.41" x2="211.68" y2="84.41"></line><line x1="211.68" y1="40.15" x2="211.68" y2="84.41"></line><line x1="608.00" y1="32.00" x2="318.36" y2="32.00"></line><line x1="413.57" y1="48.30" x2="318.36" y2="48.30"></line><line x1="318.36" y1="32.00" x2="318.36" y2="48.30"></line><line x1="608.00" y1="41.32" x2="413.57" y2="41.32"></line><line x1="487.01" y1="55.29" x2="413.57" y2="55.29"></line><line x1="413.57" y1="41.32" x2="413.57" y2="55.29"></line><line x1="608.00" y1="50.63" x2="487.01" y2="50.63"></line><line x1="608.00" y1="59.95" x2="487.01" y2="59.95"></line><line x1="487.01" y1="50.63" x2="487.01" y2="59.95"></line><line x1="424.21" y1="73.92" x2="281.00" y2="73.92"></line><line x1="369.27" y1="94.89" x2="281.00" y2="94.89"></line><line x1="281.00" y1="73.92" x2="281.00" y2="94.89"></line><line x1="608.00" y1="69.27" x2="424.21" y2="69.27"></line><line x1="608.00" y1="78.58" x2="424.21" y2="78.58"></line><line x1="424.21" y1="69.27" x2="424.21" y2="78.58"></line><line x1="608.00" y1="87.90" x2="369.27" y2="87.90"></line><line x1="584.58" y1="101.87" x2="369.27" y2="101.87"></line><line x1="369.27" y1="87.90" x2="369.27" y2="101.87"></line><line x1="608.00" y1="97.22" x2="584.58" y2="97.22"></line><line x1="608.00" y1="106.53" x2="584.58" y2="106.53"></line><line x1="584.58" y1="97.22" x2="584.58" y2="106.53"></line><line x1="261.31" y1="148.46" x2="185.99" y2="148.46"></line><line x1="237.01" y1="212.51" x2="185.99" y2="212.51"></line><line x1="185.99" y1="148.46" x2="185.99" y2="212.51"></line><line x1="358.34" y1="129.82" x2="261.31" y2="129.82"></line><line x1="332.61" y1="167.09" x2="261.31" y2="167.09"></line><line x1="261.31" y1="129.82" x2="261.31" y2="167.09"></line><line x1="501.25" y1="120.51" x2="358.34" y2="120.51"></line><line x1="454.22" y1="139.14" x2="358.34" y2="139.14"></line><line x1="358.34" y1="120.51" x2="358.34" y2="139.14"></line><line x1="608.00" y1="115.85" x2="501.25" y2="115.85"></line><line x1="608.00" y1="125.16" x2="501.25" y2="125.16"></line><line x1="501.25" y1="115.85" x2="501.25" y2="125.16"></line><line x1="608.00" y1="134.48" x2="454.22" y2="134.48"></line><line x1="608.00" y1="143.80" x2="454.22" y2="143.80"></line><line x1="454.22" y1="134.48" x2="454.22" y2="143.80"></line><line x1="471.16" y1="157.77" x2="332.61" y2="157.77"></line><line x1="378.87" y1="176.41" x2="332.61" y2="176.41"></line><line x1="332.61" y1="157.77" x2="332.61" y2="176.41"></line><line x1="608.00" y1="153.11" x2="471.16" y2="153.11"></line><line x1="608.00" y1="162.43" x2="471.16" y2="162.43"></line><line x1="471.16" y1="153.11" x2="471.16" y2="162.43"></line><line x1="608.00" y1="171.75" x2="378.87" y2="171.75"></line><line x1="608.00" y1="181.06" x2="378.87" y2="181.06"></line><line x1="378.87" y1="171.75" x2="378.87" y2="181.06"></line><line x1="378.46" y1="195.04" x2="237.01" y2="195.04"></line><line x1="283.14" y1="229.97" x2="237.01" y2="229.97"></line><line x1="237.01" y1="195.04" x2="237.01" y2="229.97"></line><line x1="608.00" y1="190.38" x2="378.46" y2="190.38"></line><line x1="608.00" y1="199.70" x2="378.46" y2="199.70"></line><line x1="378.46" y1="190.38" x2="378.46" y2="199.70"></line><line x1="370.44" y1="216.00" x2="283.14" y2="216.00"></line><line x1="369.59" y1="243.95" x2="283.14" y2="243.95"></line><line x1="283.14" y1="216.00" x2="283.14" y2="243.95"></line><line x1="608.00" y1="209.01" x2="370.44" y2="209.01"></line><line x1="470.38" y1="222.99" x2="370.44" y2="222.99"></line><line x1="370.44" y1="209.01" x2="370.44" y2="222.99"></line><line x1="608.00" y1="218.33" x2="470.38" y2="218.33"></line><line x1="608.00" y1="227.65" x2="470.38" y2="227.65"></line><line x1="470.38" y1="218.33" x2="470.38" y2="227.65"></line><line x1="608.00" y1="236.96" x2="369.59" y2="236.96"></line><line x1="587.13" y1="250.94" x2="369.59" y2="250.94"></line><line x1="369.59" y1="236.96" x2="369.59" y2="250.94"></line><line x1="608.00" y1="246.28" x2="587.13" y2="246.28"></line><line x1="608.00" y1="255.59" x2="587.13" y2="255.59"></line><line x1="587.13" y1="246.28" x2="587.13" y2="255.59"></line><line x1="179.02" y1="329.47" x2="107.35" y2="329.47"></line><line x1="159.81" y1="582.76" x2="107.35" y2="582.76"></line><line x1="107.35" y1="329.47" x2="107.35" y2="582.76"></line><line x1="246.85" y1="283.54" x2="179.02" y2="283.54"></line><line x1="243.86" y1="375.40" x2="179.02" y2="375.40"></line><line x1="179.02" y1="283.54" x2="179.02" y2="375.40"></line><line x1="380.43" y1="269.57" x2="246.85" y2="269.57"></line><line x1="314.33" y1="297.52" x2="246.85" y2="297.52"></line><line x1="246.85" y1="269.57" x2="246.85" y2="297.52"></line><line x1="608.00" y1="264.91" x2="380.43" y2="264.91"></line><line x1="608.00" y1="274.23" x2="380.43" y2="274.23"></line><line x1="380.43" y1="264.91" x2="380.43" y2="274.23"></line><line x1="380.60" y1="288.20" x2="314.33" y2="288.20"></line><line x1="377.06" y1="306.84" x2="314.33" y2="306.84"></line><line x1="314.33" y1="288.20" x2="314.33" y2="306.84"></line><line x1="608.00" y1="283.54" x2="380.60" y2="283.54"></line><line x1="608.00" y1="292.86" x2="380.60" y2="292.86"></line><line x1="380.60" y1="283.54" x2="380.60" y2="292.86"></line><line x1="608.00" y1="302.18" x2="377.06" y2="302.18"></line><line x1="608.00" y1="311.49" x2="377.06" y2="311.49"></line><line x1="377.06" y1="302.18" x2="377.06" y2="311.49"></line><line x1="352.23" y1="335.95" x2="243.86" y2="335.95"></line><line x1="273.62" y1="414.85" x2="243.86" y2="414.85"></line><line x1="243.86" y1="335.95" x2="243.86" y2="414.85"></line><line x1="509.51" y1="325.47" x2="352.23" y2="325.47"></line><line x1="469.65" y1="346.43" x2="352.23" y2="346.43"></line><line x1="352.23" y1="325.47" x2="352.23" y2="346.43"></line><line x1="608.00" y1="320.81" x2="509.51" y2="320.81"></line><line x1="608.00" y1="330.13" x2="509.51" y2="330.13"></line><line x1="509.51" y1="320.81" x2="509.51" y2="330.13"></line><line x1="608.00" y1="339.44" x2="469.65" y2="339.44"></line><line x1="602.72" y1="353.42" x2="469.65" y2="353.42"></line><line x1="469.65" y1="339.44" x2="469.65" y2="353.42"></line><line x1="608.00" y1="348.76" x2="602.72" y2="348.76"></line><line x1="608.00" y1="358.08" x2="602.72" y2="358.08"></line><line x1="602.72" y1="348.76" x2="602.72" y2="358.08"></line><line x1="343.56" y1="388.94" x2="273.62" y2="388.94"></line><line x1="341.90" y1="440.76" x2="273.62" y2="440.76"></line><line x1="273.62" y1="388.94" x2="273.62" y2="440.76"></line><line x1="421.75" y1="372.05" x2="343.56" y2="372.05"></line><line x1="369.19" y1="405.82" x2="343.56" y2="405.82"></line><line x1="343.56" y1="372.05" x2="343.56" y2="405.82"></line><line x1="608.00" y1="367.39" x2="421.75" y2="367.39"></line><line x1="608.00" y1="376.71" x2="421.75" y2="376.71"></line><line x1="421.75" y1="367.39" x2="421.75" y2="376.71"></line><line x1="553.76" y1="393.01" x2="369.19" y2="393.01"></line><line x1="424.12" y1="418.63" x2="369.19" y2="418.63"></line><line x1="369.19" y1="393.01" x2="369.19" y2="418.63"></line><line x1="608.00" y1="386.03" x2="553.76" y2="386.03"></line><line x1="560.99" y1="400.00" x2="553.76" y2="400.00"></line><line x1="553.76" y1="386.03" x2="553.76" y2="400.00"></line><line x1="608.00" y1="395.34" x2="560.99" y2="395.34"></line><line x1="608.00" y1="404.66" x2="560.99" y2="404.66"></line><line x1="560.99" y1="395.34" x2="560.99" y2="404.66"></line><line x1="608.00" y1="413.97" x2="424.12" y2="413.97"></line><line x1="608.00" y1="423.29" x2="424.12" y2="423.29"></line><line x1="424.12" y1="413.97" x2="424.12" y2="423.29"></line><line x1="608.00" y1="432.61" x2="341.90" y2="432.61"></line><line x1="492.72" y1="448.91" x2="341.90" y2="448.91"></line><line x1="341.90" y1="432.61" x2="341.90" y2="448.91"></line><line x1="608.00" y1="441.92" x2="492.72" y2="441.92"></line><line x1="528.26" y1="455.90" x2="492.72" y2="455.90"></line><line x1="492.72" y1="441.92" x2="492.72" y2="455.90"></line><line x1="608.00" y1="451.24" x2="528.26" y2="451.24"></line><line x1="608.00" y1="460.56" x2="528.26" y2="460.56"></line><line x1="528.26" y1="451.24" x2="528.26" y2="460.56"></line><line x1="258.66" y1="506.27" x2="159.81" y2="506.27"></line><line x1="204.77" y1="659.26" x2="159.81" y2="659.26"></line><line x1="159.81" y1="506.27" x2="159.81" y2="659.26"></line><line x1="348.17" y1="478.03" x2="258.66" y2="478.03"></line><line x1="304.62" y1="534.51" x2="258.66" y2="534.51"></line><line x1="258.66" y1="478.03" x2="258.66" y2="534.51"></line><line x1="608.00" y1="469.87" x2="348.17" y2="469.87"></line><line x1="371.42" y1="486.18" x2="348.17" y2="486.18"></line><line x1="348.17" y1="469.87" x2="348.17" y2="486.18"></line><line x1="608.00" y1="479.19" x2="371.42" y2="479.19"></line><line x1="548.83" y1="493.16" x2="371.42" y2="493.16"></line><line x1="371.42" y1="479.19" x2="371.42" y2="493.16"></line><line x1="608.00" y1="488.51" x2="548.83" y2="488.51"></line><line x1="608.00" y1="497.82" x2="548.83" y2="497.82"></line><line x1="548.83" y1="488.51" x2="548.83" y2="497.82"></line><line x1="440.72" y1="514.13" x2="304.62" y2="514.13"></line><line x1="367.96" y1="554.89" x2="304.62" y2="554.89"></line><line x1="304.62" y1="514.13" x2="304.62" y2="554.89"></line><line x1="608.00" y1="507.14" x2="440.72" y2="507.14"></line><line x1="572.72" y1="521.11" x2="440.72" y2="521.11"></line><line x1="440.72" y1="507.14" x2="440.72" y2="521.11"></line><line x1="608.00" y1="516.46" x2="572.72" y2="516.46"></line><line x1="608.00" y1="525.77" x2="572.72" y2="525.77"></line><line x1="572.72" y1="516.46" x2="572.72" y2="525.77"></line><line x1="446.38" y1="542.08" x2="367.96" y2="542.08"></line><line x1="421.49" y1="567.70" x2="367.96" y2="567.70"></line><line x1="367.96" y1="542.08" x2="367.96" y2="567.70"></line><line x1="608.00" y1="535.09" x2="446.38" y2="535.09"></line><line x1="488.22" y1="549.06" x2="446.38" y2="549.06"></line><line x1="446.38" y1="535.09" x2="446.38" y2="549.06"></line><line x1="608.00" y1="544.41" x2="488.22" y2="544.41"></line><line x1="608.00" y1="553.72" x2="488.22" y2="553.72"></line><line x1="488.22" y1="544.41" x2="488.22" y2="553.72"></line><line x1="608.00" y1="563.04" x2="421.49" y2="563.04"></line><line x1="608.00" y1="572.35" x2="421.49" y2="572.35"></line><line x1="421.49" y1="563.04" x2="421.49" y2="572.35"></line><line x1="303.43" y1="614.28" x2="204.77" y2="614.28"></line><line x1="253.28" y1="704.24" x2="204.77" y2="704.24"></line><line x1="204.77" y1="614.28" x2="204.77" y2="704.24"></line><line x1="409.65" y1="593.32" x2="303.43" y2="593.32"></line><line x1="407.78" y1="635.24" x2="303.43" y2="635.24"></line><line x1="303.43" y1="593.32" x2="303.43" y2="635.24"></line><line x1="608.00" y1="581.67" x2="409.65" y2="581.67"></line><line x1="510.89" y1="604.96" x2="409.65" y2="604.96"></line><line x1="409.65" y1="581.67" x2="409.65" y2="604.96"></line><line x1="575.81" y1="595.65" x2="510.89" y2="595.65"></line><line x1="556.80" y1="614.28" x2="510.89" y2="614.28"></line><line x1="510.89" y1="595.65" x2="510.89" y2="614.28"></line><line x1="608.00" y1="590.99" x2="575.81" y2="590.99"></line><line x1="608.00" y1="600.30" x2="575.81" y2="600.30"></line><line x1="575.81" y1="590.99" x2="575.81" y2="600.30"></line><line x1="608.00" y1="609.62" x2="556.80" y2="609.62"></line><line x1="608.00" y1="618.94" x2="556.80" y2="618.94"></line><line x1="556.80" y1="609.62" x2="556.80" y2="618.94"></line><line x1="608.00" y1="628.25" x2="407.78" y2="628.25"></line><line x1="502.85" y1="642.23" x2="407.78" y2="642.23"></line><line x1="407.78" y1="628.25" x2="407.78" y2="642.23"></line><line x1="608.00" y1="637.57" x2="502.85" y2="637.57"></line><line x1="608.00" y1="646.89" x2="502.85" y2="646.89"></line><line x1="502.85" y1="637.57" x2="502.85" y2="646.89"></line><line x1="326.17" y1="676.00" x2="253.28" y2="676.00"></line><line x1="300.63" y1="732.48" x2="253.28" y2="732.48"></line><line x1="253.28" y1="676.00" x2="253.28" y2="732.48"></line><line x1="478.04" y1="663.19" x2="326.17" y2="663.19"></line><line x1="379.79" y1="688.81" x2="326.17" y2="688.81"></line><line x1="326.17" y1="663.19" x2="326.17" y2="688.81"></line><line x1="608.00" y1="656.20" x2="478.04" y2="656.20"></line><line x1="570.43" y1="670.18" x2="478.04" y2="670.18"></line><line x1="478.04" y1="656.20" x2="478.04" y2="670.18"></line><line x1="608.00" y1="665.52" x2="570.43" y2="665.52"></line><line x1="608.00" y1="674.84" x2="570.43" y2="674.84"></line><line x1="570.43" y1="665.52" x2="570.43" y2="674.84"></line><line x1="608.00" y1="684.15" x2="379.79" y2="684.15"></line><line x1="608.00" y1="693.47" x2="379.79" y2="693.47"></line><line x1="379.79" y1="684.15" x2="379.79" y2="693.47"></line><line x1="367.17" y1="710.94" x2="300.63" y2="710.94"></line><line x1="357.17" y1="754.03" x2="300.63" y2="754.03"></line><line x1="300.63" y1="710.94" x2="300.63" y2="754.03"></line><line x1="608.00" y1="702.78" x2="367.17" y2="702.78"></line><line x1="449.31" y1="719.09" x2="367.17" y2="719.09"></line><line x1="367.17" y1="702.78" x2="367.17" y2="719.09"></line><line x1="608.00" y1="712.10" x2="449.31" y2="712.10"></line><line x1="501.33" y1="726.08" x2="449.31" y2="726.08"></line><line x1="449.31" y1="712.10" x2="449.31" y2="726.08"></line><line x1="608.00" y1="721.42" x2="501.33" y2="721.42"></line><line x1="608.00" y1="730.73" x2="501.33" y2="730.73"></line><line x1="501.33" y1="721.42" x2="501.33" y2="730.73"></line><line x1="473.45" y1="744.71" x2="357.17" y2="744.71"></line><line x1="416.33" y1="763.34" x2="357.17" y2="763.34"></line><line x1="357.17" y1="744.71" x2="357.17" y2="763.34"></line><line x1="608.00" y1="740.05" x2="473.45" y2="740.05"></line><line x1="608.00" y1="749.37" x2="473.45" y2="749.37"></line><line x1="473.45" y1="740.05" x2="473.45" y2="749.37"></line><line x1="608.00" y1="758.68" x2="416.33" y2="758.68"></line><line x1="608.00" y1="768.00" x2="416.33" y2="768.00"></line><line x1="416.33" y1="758.68" x2="416.33" y2="768.00"></line></g><g stroke="#fff" stroke-width="0.75"><circle cx="608.00" cy="721.42" r="4" fill="#ff6b6b" data-node-id="0"></circle><circle cx="608.00" cy="590.99" r="4" fill="#ff6b6b" data-node-id="1"></circle><circle cx="608.00" cy="758.68" r="4" fill="#ff6b6b" data-node-id="2"></circle><circle cx="608.00" cy="516.46" r="4" fill="#ff6b6b" data-node-id="3"></circle><circle cx="608.00" cy="171.75" r="4" fill="#ff6b6b" data-node-id="4"></circle><circle cx="608.00" cy="181.06" r="4" fill="#ff6b6b" data-node-id="5"></circle><circle cx="608.00" cy="386.03" r="4" fill="#ff6b6b" data-node-id="6"></circle><circle cx="608.00" cy="451.24" r="4" fill="#ff6b6b" data-node-id="7"></circle><circle cx="608.00" cy="395.34" r="4" fill="#ff6b6b" data-node-id="8"></circle><circle cx="608.00" cy="441.92" r="4" fill="#ff6b6b" data-node-id="9"></circle><circle cx="608.00" cy="581.67" r="4" fill="#ff6b6b" data-node-id="10"></circle><circle cx="608.00" cy="600.30" r="4" fill="#ff6b6b" data-node-id="11"></circle><circle cx="608.00" cy="348.76" r="4" fill="#ff6b6b" data-node-id="12"></circle><circle cx="608.00" cy="97.22" r="4" fill="#ff6b6b" data-node-id="13"></circle><circle cx="608.00" cy="628.25" r="4" fill="#ff6b6b" data-node-id="14"></circle><circle cx="608.00" cy="730.73" r="4" fill="#ff6b6b" data-node-id="15"></circle><circle cx="608.00" cy="367.39" r="4" fill="#ff6b6b" data-node-id="16"></circle><circle cx="608.00" cy="218.33" r="4" fill="#ff6b6b" data-node-id="17"></circle><circle cx="608.00" cy="563.04" r="4" fill="#ff6b6b" data-node-id="18"></circle><circle cx="608.00" cy="302.18" r="4" fill="#ff6b6b" data-node-id="19"></circle><circle cx="608.00" cy="106.53" r="4" fill="#ff6b6b" data-node-id="20"></circle><circle cx="608.00" cy="190.38" r="4" fill="#ff6b6b" data-node-id="21"></circle><circle cx="608.00" cy="246.28" r="4" fill="#ff6b6b" data-node-id="22"></circle><circle cx="608.00" cy="544.41" r="4" fill="#ff6b6b" data-node-id="23"></circle><circle cx="608.00" cy="255.59" r="4" fill="#ff6b6b" data-node-id="24"></circle><circle cx="608.00" cy="264.91" r="4" fill="#ff6b6b" data-node-id="25"></circle><circle cx="608.00" cy="637.57" r="4" fill="#ff6b6b" data-node-id="26"></circle><circle cx="608.00" cy="553.72" r="4" fill="#ff6b6b" data-node-id="27"></circle><circle cx="608.00" cy="488.51" r="4" fill="#ff6b6b" data-node-id="28"></circle><circle cx="608.00" cy="665.52" r="4" fill="#ff6b6b" data-node-id="29"></circle><circle cx="608.00" cy="674.84" r="4" fill="#ff6b6b" data-node-id="30"></circle><circle cx="608.00" cy="32.00" r="4" fill="#ff6b6b" data-node-id="31"></circle><circle cx="608.00" cy="702.78" r="4" fill="#ff6b6b" data-node-id="32"></circle><circle cx="608.00" cy="609.62" r="4" fill="#ff6b6b" data-node-id="33"></circle><circle cx="608.00" cy="740.05" r="4" fill="#ff6b6b" data-node-id="34"></circle><circle cx="608.00" cy="283.54" r="4" fill="#ff6b6b" data-node-id="35"></circle><circle cx="608.00" cy="87.90" r="4" fill="#ff6b6b" data-node-id="36"></circle><circle cx="608.00" cy="749.37" r="4" fill="#ff6b6b" data-node-id="37"></circle><circle cx="608.00" cy="684.15" r="4" fill="#ff6b6b" data-node-id="38"></circle><circle cx="608.00" cy="153.11" r="4" fill="#ff6b6b" data-node-id="39"></circle><circle cx="608.00" cy="535.09" r="4" fill="#ff6b6b" data-node-id="40"></circle><circle cx="608.00" cy="413.97" r="4" fill="#ff6b6b" data-node-id="41"></circle><circle cx="608.00" cy="227.65" r="4" fill="#ff6b6b" data-node-id="42"></circle><circle cx="608.00" cy="134.48" r="4" fill="#ff6b6b" data-node-id="43"></circle><circle cx="608.00" cy="432.61" r="4" fill="#ff6b6b" data-node-id="44"></circle><circle cx="608.00" cy="376.71" r="4" fill="#ff6b6b" data-node-id="45"></circle><circle cx="608.00" cy="768.00" r="4" fill="#ff6b6b" data-node-id="46"></circle><circle cx="608.00" cy="507.14" r="4" fill="#ff6b6b" data-node-id="47"></circle><circle cx="608.00" cy="69.27" r="4" fill="#ff6b6b" data-node-id="48"></circle><circle cx="608.00" cy="339.44" r="4" fill="#ff6b6b" data-node-id="49"></circle><circle cx="608.00" cy="115.85" r="4" fill="#ff6b6b" data-node-id="50"></circle><circle cx="608.00" cy="479.19" r="4" fill="#ff6b6b" data-node-id="51"></circle><circle cx="608.00" cy="320.81" r="4" fill="#ff6b6b" data-node-id="52"></circle><circle cx="608.00" cy="469.87" r="4" fill="#ff6b6b" data-node-id="53"></circle><circle cx="608.00" cy="236.96" r="4" fill="#ff6b6b" data-node-id="54"></circle><circle cx="608.00" cy="618.94" r="4" fill="#ff6b6b" data-node-id="55"></circle><circle cx="608.00" cy="646.89" r="4" fill="#ff6b6b" data-node-id="56"></circle><circle cx="608.00" cy="497.82" r="4" fill="#ff6b6b" data-node-id="57"></circle><circle cx="608.00" cy="78.58" r="4" fill="#ff6b6b" data-node-id="58"></circle><circle cx="608.00" cy="330.13" r="4" fill="#ff6b6b" data-node-id="59"></circle><circle cx="608.00" cy="311.49" r="4" fill="#ff6b6b" data-node-id="60"></circle><circle cx="608.00" cy="525.77" r="4" fill="#ff6b6b" data-node-id="61"></circle><circle cx="608.00" cy="50.63" r="4" fill="#ff6b6b" data-node-id="62"></circle><circle cx="608.00" cy="199.70" r="4" fill="#ff6b6b" data-node-id="63"></circle><circle cx="608.00" cy="274.23" r="4" fill="#ff6b6b" data-node-id="64"></circle><circle cx="608.00" cy="125.16" r="4" fill="#ff6b6b" data-node-id="65"></circle><circle cx="608.00" cy="460.56" r="4" fill="#ff6b6b" data-node-id="66"></circle><circle cx="608.00" cy="162.43" r="4" fill="#ff6b6b" data-node-id="67"></circle><circle cx="608.00" cy="41.32" r="4" fill="#ff6b6b" data-node-id="68"></circle><circle cx="608.00" cy="423.29" r="4" fill="#ff6b6b" data-node-id="69"></circle><circle cx="608.00" cy="59.95" r="4" fill="#ff6b6b" data-node-id="70"></circle><circle cx="608.00" cy="358.08" r="4" fill="#ff6b6b" data-node-id="71"></circle><circle cx="608.00" cy="143.80" r="4" fill="#ff6b6b" data-node-id="72"></circle><circle cx="608.00" cy="209.01" r="4" fill="#ff6b6b" data-node-id="73"></circle><circle cx="608.00" cy="693.47" r="4" fill="#ff6b6b" data-node-id="74"></circle><circle cx="608.00" cy="712.10" r="4" fill="#ff6b6b" data-node-id="75"></circle><circle cx="608.00" cy="292.86" r="4" fill="#ff6b6b" data-node-id="76"></circle><circle cx="608.00" cy="404.66" r="4" fill="#ff6b6b" data-node-id="77"></circle><circle cx="608.00" cy="572.35" r="4" fill="#ff6b6b" data-node-id="78"></circle><circle cx="608.00" cy="656.20" r="4" fill="#ff6b6b" data-node-id="79"></circle><circle cx="602.72" cy="353.42" r="3.4" fill="#555" data-node-id="80"></circle><circle cx="587.13" cy="250.94" r="3.4" fill="#555" data-node-id="81"></circle><circle cx="584.58" cy="101.87" r="3.4" fill="#555" data-node-id="82"></circle><circle cx="575.81" cy="595.65" r="3.4" fill="#555" data-node-id="83"></circle><circle cx="572.72" cy="521.11" r="3.4" fill="#555" data-node-id="84"></circle><circle cx="570.43" cy="670.18" r="3.4" fill="#555" data-node-id="85"></circle><circle cx="560.99" cy="400.00" r="3.4" fill="#555" data-node-id="86"></circle><circle cx="556.80" cy="614.28" r="3.4" fill="#555" data-node-id="87"></circle><circle cx="553.76" cy="393.01" r="3.4" fill="#555" data-node-id="88"></circle><circle cx="548.83" cy="493.16" r="3.4" fill="#555" data-node-id="89"></circle><circle cx="528.26" cy="455.90" r="3.4" fill="#555" data-node-id="90"></circle><circle cx="510.89" cy="604.96" r="3.4" fill="#555" data-node-id="91"></circle><circle cx="509.51" cy="325.47" r="3.4" fill="#555" data-node-id="92"></circle><circle cx="502.85" cy="642.23" r="3.4" fill="#555" data-node-id="93"></circle><circle cx="501.33" cy="726.08" r="3.4" fill="#555" data-node-id="94"></circle><circle cx="501.25" cy="120.51" r="3.4" fill="#555" data-node-id="95"></circle><circle cx="492.72" cy="448.91" r="3.4" fill="#555" data-node-id="96"></circle><circle cx="488.22" cy="549.06" r="3.4" fill="#555" data-node-id="97"></circle><circle cx="487.01" cy="55.29" r="3.4" fill="#555" data-node-id="98"></circle><circle cx="478.04" cy="663.19" r="3.4" fill="#555" data-node-id="99"></circle><circle cx="473.45" cy="744.71" r="3.4" fill="#555" data-node-id="100"></circle><circle cx="471.16" cy="157.77" r="3.4" fill="#555" data-node-id="101"></circle><circle cx="470.38" cy="222.99" r="3.4" fill="#555" data-node-id="102"></circle><circle cx="469.65" cy="346.43" r="3.4" fill="#555" data-node-id="103"></circle><circle cx="454.22" cy="139.14" r="3.4" fill="#555" data-node-id="104"></circle><circle cx="449.31" cy="719.09" r="3.4" fill="#555" data-node-id="105"></circle><circle cx="446.38" cy="542.08" r="3.4" fill="#555" data-node-id="106"></circle><circle cx="440.72" cy="514.13" r="3.4" fill="#555" data-node-id="107"></circle><circle cx="424.21" cy="73.92" r="3.4" fill="#555" data-node-id="108"></circle><circle cx="424.12" cy="418.63" r="3.4" fill="#555" data-node-id="109"></circle><circle cx="421.75" cy="372.05" r="3.4" fill="#555" data-node-id="110"></circle><circle cx="421.49" cy="567.70" r="3.4" fill="#555" data-node-id="111"></circle><circle cx="416.33" cy="763.34" r="3.4" fill="#555" data-node-id="112"></circle><circle cx="413.57" cy="48.30" r="3.4" fill="#555" data-node-id="113"></circle><circle cx="409.65" cy="593.32" r="3.4" fill="#555" data-node-id="114"></circle><circle cx="407.78" cy="635.24" r="3.4" fill="#555" data-node-id="115"></circle><circle cx="380.60" cy="288.20" r="3.4" fill="#555" data-node-id="116"></circle><circle cx="380.43" cy="269.57" r="3.4" fill="#555" data-node-id="117"></circle><circle cx="379.79" cy="688.81" r="3.4" fill="#555" data-node-id="118"></circle><circle cx="378.87" cy="176.41" r="3.4" fill="#555" data-node-id="119"></circle><circle cx="378.46" cy="195.04" r="3.4" fill="#555" data-node-id="120"></circle><circle cx="377.06" cy="306.84" r="3.4" fill="#555" data-node-id="121"></circle><circle cx="371.42" cy="486.18" r="3.4" fill="#555" data-node-id="122"></circle><circle cx="370.44" cy="216.00" r="3.4" fill="#555" data-node-id="123"></circle><circle cx="369.59" cy="243.95" r="3.4" fill="#555" data-node-id="124"></circle><circle cx="369.27" cy="94.89" r="3.4" fill="#555" data-node-id="125"></circle><circle cx="369.19" cy="405.82" r="3.4" fill="#555" data-node-id="126"></circle><circle cx="367.96" cy="554.89" r="3.4" fill="#555" data-node-id="127"></circle><circle cx="367.17" cy="710.94" r="3.4" fill="#555" data-node-id="128"></circle><circle cx="358.34" cy="129.82" r="3.4" fill="#555" data-node-id="129"></circle><circle cx="357.17" cy="754.03" r="3.4" fill="#555" data-node-id="130"></circle><circle cx="352.23" cy="335.95" r="3.4" fill="#555" data-node-id="131"></circle><circle cx="348.17" cy="478.03" r="3.4" fill="#555" data-node-id="132"></circle><circle cx="343.56" cy="388.94" r="3.4" fill="#555" data-node-id="133"></circle><circle cx="341.90" cy="440.76" r="3.4" fill="#555" data-node-id="134"></circle><circle cx="332.61" cy="167.09" r="3.4" fill="#555" data-node-id="135"></circle><circle cx="326.17" cy="676.00" r="3.4" fill="#555" data-node-id="136"></circle><circle cx="318.36" cy="40.15" r="3.4" fill="#555" data-node-id="137"></circle><circle cx="314.33" cy="297.52" r="3.4" fill="#555" data-node-id="138"></circle><circle cx="304.62" cy="534.51" r="3.4" fill="#555" data-node-id="139"></circle><circle cx="303.43" cy="614.28" r="3.4" fill="#555" data-node-id="140"></circle><circle cx="300.63" cy="732.48" r="3.4" fill="#555" data-node-id="141"></circle><circle cx="283.14" cy="229.97" r="3.4" fill="#555" data-node-id="142"></circle><circle cx="281.00" cy="84.41" r="3.4" fill="#555" data-node-id="143"></circle><circle cx="273.62" cy="414.85" r="3.4" fill="#555" data-node-id="144"></circle><circle cx="261.31" cy="148.46" r="3.4" fill="#555" data-node-id="145"></circle><circle cx="258.66" cy="506.27" r="3.4" fill="#555" data-node-id="146"></circle><circle cx="253.28" cy="704.24" r="3.4" fill="#555" data-node-id="147"></circle><circle cx="246.85" cy="283.54" r="3.4" fill="#555" data-node-id="148"></circle><circle cx="243.86" cy="375.40" r="3.4" fill="#555" data-node-id="149"></circle><circle cx="237.01" cy="212.51" r="3.4" fill="#555" data-node-id="150"></circle><circle cx="211.68" cy="62.28" r="3.4" fill="#555" data-node-id="151"></circle><circle cx="204.77" cy="659.26" r="3.4" fill="#555" data-node-id="152"></circle><circle cx="185.99" cy="180.48" r="3.4" fill="#555" data-node-id="153"></circle><circle cx="179.02" cy="329.47" r="3.4" fill="#555" data-node-id="154"></circle><circle cx="159.81" cy="582.76" r="3.4" fill="#555" data-node-id="155"></circle><circle cx="124.05" cy="121.38" r="3.4" fill="#555" data-node-id="156"></circle><circle cx="107.35" cy="456.12" r="3.4" fill="#555" data-node-id="157"></circle><circle cx="48.00" cy="288.75" r="3.4" fill="#555" data-node-id="158"></circle></g><g fill="#333"><text x="620" y="721.42" dominant-baseline="middle" text-anchor="start">0</text><text x="620" y="590.99" dominant-baseline="middle" text-anchor="start">1</text><text x="620" y="758.68" dominant-baseline="middle" text-anchor="start">2</text><text x="620" y="516.46" dominant-baseline="middle" text-anchor="start">3</text><text x="620" y="171.75" dominant-baseline="middle" text-anchor="start">4</text><text x="620" y="181.06" dominant-baseline="middle" text-anchor="start">5</text><text x="620" y="386.03" dominant-baseline="middle" text-anchor="start">6</text><text x="620" y="451.24" dominant-baseline="middle" text-anchor="start">7</text><text x="620" y="395.34" dominant-baseline="middle" text-anchor="start">8</text><text x="620" y="441.92" dominant-baseline="middle" text-anchor="start">9</text><text x="620" y="581.67" dominant-baseline="middle" text-anchor="start">10</text><text x="620" y="600.3" dominant-baseline="middle" text-anchor="start">11</text><text x="620" y="348.76" dominant-baseline="middle" text-anchor="start">12</text><text x="620" y="97.22" dominant-baseline="middle" text-anchor="start">13</text><text x="620" y="628.25" dominant-baseline="middle" text-anchor="start">14</text><text x="620" y="730.73" dominant-baseline="middle" text-anchor="start">15</text><text x="620" y="367.39" dominant-baseline="middle" text-anchor="start">16</text><text x="620" y="218.33" dominant-baseline="middle" text-anchor="start">17</text><text x="620" y="563.04" dominant-baseline="middle" text-anchor="start">18</text><text x="620" y="302.18" dominant-baseline="middle" text-anchor="start">19</text><text x="620" y="106.53" dominant-baseline="middle" text-anchor="start">20</text><text x="620" y="190.38" dominant-baseline="middle" text-anchor="start">21</text><text x="620" y="246.28" dominant-baseline="middle" text-anchor="start">22</text><text x="620" y="544.41" dominant-baseline="middle" text-anchor="start">23</text><text x="620" y="255.59" dominant-baseline="middle" text-anchor="start">24</text><text x="620" y="264.91" dominant-baseline="middle" text-anchor="start">25</text><text x="620" y="637.57" dominant-baseline="middle" text-anchor="start">26</text><text x="620" y="553.72" dominant-baseline="middle" text-anchor="start">27</text><text x="620" y="488.51" dominant-baseline="middle" text-anchor="start">28</text><text x="620" y="665.52" dominant-baseline="middle" text-anchor="start">29</text><text x="620" y="674.84" dominant-baseline="middle" text-anchor="start">30</text><text x="620" y="32" dominant-baseline="middle" text-anchor="start">31</text><text x="620" y="702.78" dominant-baseline="middle" text-anchor="start">32</text><text x="620" y="609.62" dominant-baseline="middle" text-anchor="start">33</text><text x="620" y="740.05" dominant-baseline="middle" text-anchor="start">34</text><text x="620" y="283.54" dominant-baseline="middle" text-anchor="start">35</text><text x="620" y="87.9" dominant-baseline="middle" text-anchor="start">36</text><text x="620" y="749.37" dominant-baseline="middle" text-anchor="start">37</text><text x="620" y="684.15" dominant-baseline="middle" text-anchor="start">38</text><text x="620" y="153.11" dominant-baseline="middle" text-anchor="start">39</text><text x="620" y="535.09" dominant-baseline="middle" text-anchor="start">40</text><text x="620" y="413.97" dominant-baseline="middle" text-anchor="start">41</text><text x="620" y="227.65" dominant-baseline="middle" text-anchor="start">42</text><text x="620" y="134.48" dominant-baseline="middle" text-anchor="start">43</text><text x="620" y="432.61" dominant-baseline="middle" text-anchor="start">44</text><text x="620" y="376.71" dominant-baseline="middle" text-anchor="start">45</text><text x="620" y="768" dominant-baseline="middle" text-anchor="start">46</text><text x="620" y="507.14" dominant-baseline="middle" text-anchor="start">47</text><text x="620" y="69.27" dominant-baseline="middle" text-anchor="start">48</text><text x="620" y="339.44" dominant-baseline="middle" text-anchor="start">49</text><text x="620" y="115.85" dominant-baseline="middle" text-anchor="start">50</text><text x="620" y="479.19" dominant-baseline="middle" text-anchor="start">51</text><text x="620" y="320.81" dominant-baseline="middle" text-anchor="start">52</text><text x="620" y="469.87" dominant-baseline="middle" text-anchor="start">53</text><text x="620" y="236.96" dominant-baseline="middle" text-anchor="start">54</text><text x="620" y="618.94" dominant-baseline="middle" text-anchor="start">55</text><text x="620" y="646.89" dominant-baseline="middle" text-anchor="start">56</text><text x="620" y="497.82" dominant-baseline="middle" text-anchor="start">57</text><text x="620" y="78.58" dominant-baseline="middle" text-anchor="start">58</text><text x="620" y="330.13" dominant-baseline="middle" text-anchor="start">59</text><text x="620" y="311.49" dominant-baseline="middle" text-anchor="start">60</text><text x="620" y="525.77" dominant-baseline="middle" text-anchor="start">61</text><text x="620" y="50.63" dominant-baseline="middle" text-anchor="start">62</text><text x="620" y="199.7" dominant-baseline="middle" text-anchor="start">63</text><text x="620" y="274.23" dominant-baseline="middle" text-anchor="start">64</text><text x="620" y="125.16" dominant-baseline="middle" text-anchor="start">65</text><text x="620" y="460.56" dominant-baseline="middle" text-anchor="start">66</text><text x="620" y="162.43" dominant-baseline="middle" text-anchor="start">67</text><text x="620" y="41.32" dominant-baseline="middle" text-anchor="start">68</text><text x="620" y="423.29" dominant-baseline="middle" text-anchor="start">69</text><text x="620" y="59.95" dominant-baseline="middle" text-anchor="start">70</text><text x="620" y="358.08" dominant-baseline="middle" text-anchor="start">71</text><text x="620" y="143.8" dominant-baseline="middle" text-anchor="start">72</text><text x="620" y="209.01" dominant-baseline="middle" text-anchor="start">73</text><text x="620" y="693.47" dominant-baseline="middle" text-anchor="start">74</text><text x="620" y="712.1" dominant-baseline="middle" text-anchor="start">75</text><text x="620" y="292.86" dominant-baseline="middle" text-anchor="start">76</text><text x="620" y="404.66" dominant-baseline="middle" text-anchor="start">77</text><text x="620" y="572.35" dominant-baseline="middle" text-anchor="start">78</text><text x="620" y="656.2" dominant-baseline="middle" text-anchor="start">79</text></g></g></svg>