<svg class="plot-d6a7b5" fill="currentColor" font-family="system-ui, sans-serif" font-size="10" text-anchor="middle" width="720" height="800" viewBox="0 0 720 800"><style>:where(.plot-d6a7b5) {
  --plot-background: white;
  display: block;
  height: auto;
  height: intrinsic;
  max-width: 100%;
}
:where(.plot-d6a7b5 text),
:where(.plot-d6a7b5 tspan) {
  white-space: pre;
}</style><g aria-label="y-axis tick" aria-hidden="true" fill="none" stroke="currentColor" transform="translate(0,4.5)"><path transform="translate(40,35)" d="M0,0L-6,0"></path><path transform="translate(40,44)" d="M0,0L-6,0"></path><path transform="translate(40,53)" d="M0,0L-6,0"></path><path transform="translate(40,62)" d="M0,0L-6,0"></path><path transform="translate(40,71)" d="M0,0L-6,0"></path><path transform="translate(40,80)" d="M0,0L-6,0"></path><path transform="translate(40,89)" d="M0,0L-6,0"></path><path transform="translate(40,98)" d="M0,0L-6,0"></path><path transform="translate(40,107)" d="M0,0L-6,0"></path><path transform="translate(40,116)" d="M0,0L-6,0"></path><path transform="translate(40,125)" d="M0,0L-6,0"></path><path transform="translate(40,134)" d="M0,0L-6,0"></path><path transform="translate(40,143)" d="M0,0L-6,0"></path><path transform="translate(40,152)" d="M0,0L-6,0"></path><path transform="translate(40,161)" d="M0,0L-6,0"></path><path transform="translate(40,170)" d="M0,0L-6,0"></path><path transform="translate(40,179)" d="M0,0L-6,0"></path><path transform="translate(40,188)" d="M0,0L-6,0"></path><path transform="translate(40,197)" d="M0,0L-6,0"></path><path transform="translate(40,206)" d="M0,0L-6,0"></path><path transform="translate(40,215)" d="M0,0L-6,0"></path><path transform="translate(40,224)" d="M0,0L-6,0"></path><path transform="translate(40,233)" d="M0,0L-6,0"></path><path transform="translate(40,242)" d="M0,0L-6,0"></path><path transform="translate(40,251)" d="M0,0L-6,0"></path><path transform="translate(40,260)" d="M0,0L-6,0"></path><path transform="translate(40,269)" d="M0,0L-6,0"></path><path transform="translate(40,278)" d="M0,0L-6,0"></path><path transform="translate(40,287)" d="M0,0L-6,0"></path><path transform="translate(40,296)" d="M0,0L-6,0"></path><path transform="translate(40,305)" d="M0,0L-6,0"></path><path transform="translate(40,314)" d="M0,0L-6,0"></path><path transform="translate(40,323)" d="M0,0L-6,0"></path><path transform="translate(40,332)" d="M0,0L-6,0"></path><path transform="translate(40,341)" d="M0,0L-6,0"></path><path transform="translate(40,350)" d="M0,0L-6,0"></path><path transform="translate(40,359)" d="M0,0L-6,0"></path><path transform="translate(40,368)" d="M0,0L-6,0"></path><path transform="translate(40,377)" d="M0,0L-6,0"></path><path transform="translate(40,386)" d="M0,0L-6,0"></path><path transform="translate(40,395)" d="M0,0L-6,0"></path><path transform="translate(40,404)" d="M0,0L-6,0"></path><path transform="translate(40,413)" d="M0,0L-6,0"></path><path transform="translate(40,422)" d="M0,0L-6,0"></path><path transform="translate(40,431)" d="M0,0L-6,0"></path><path transform="translate(40,440)" d="M0,0L-6,0"></path><path transform="translate(40,449)" d="M0,0L-6,0"></path><path transform="translate(40,458)" d="M0,0L-6,0"></path><path transform="translate(40,467)" d="M0,0L-6,0"></path><path transform="translate(40,476)" d="M0,0L-6,0"></path><path transform="translate(40,485)" d="M0,0L-6,0"></path><path transform="translate(40,494)" d="M0,0L-6,0"></path><path transform="translate(40,503)" d="M0,0L-6,0"></path><path transform="translate(40,512)" d="M0,0L-6,0"></path><path transform="translate(40,521)" d="M0,0L-6,0"></path><path transform="translate(40,530)" d="M0,0L-6,0"></path><path transform="translate(40,539)" d="M0,0L-6,0"></path><path transform="translate(40,548)" d="M0,0L-6,0"></path><path transform="translate(40,557)" d="M0,0L-6,0"></path><path transform="translate(40,566)" d="M0,0L-6,0"></path><path transform="translate(40,575)" d="M0,0L-6,0"></path><path transform="translate(40,584)" d="M0,0L-6,0"></path><path transform="translate(40,593)" d="M0,0L-6,0"></path><path transform="translate(40,602)" d="M0,0L-6,0"></path><path transform="translate(40,611)" d="M0,0L-6,0"></path><path transform="translate(40,620)" d="M0,0L-6,0"></path><path transform="translate(40,629)" d="M0,0L-6,0"></path><path transform="translate(40,638)" d="M0,0L-6,0"></path><path transform="translate(40,647)" d="M0,0L-6,0"></path><path transform="translate(40,656)" d="M0,0L-6,0"></path><path transform="translate(40,665)" d="M0,0L-6,0"></path><path transform="translate(40,674)" d="M0,0L-6,0"></path><path transform="translate(40,683)" d="M0,0L-6,0"></path><path transform="translate(40,692)" d="M0,0L-6,0"></path><path transform="translate(40,701)" d="M0,0L-6,0"></path><path transform="translate(40,710)" d="M0,0L-6,0"></path><path transform="translate(40,719)" d="M0,0L-6,0"></path><path transform="translate(40,728)" d="M0,0L-6,0"></path><path transform="translate(40,737)" d="M0,0L-6,0"></path><path transform="translate(40,746)" d="M0,0L-6,0"></path></g><g aria-label="y-axis tick label" text-anchor="end" transform="translate(-8.5,4.5)"><text y="0.32em" transform="translate(40,35)">0</text><text y="0.32em" transform="translate(40,44)">1</text><text y="0.32em" transform="translate(40,53)">2</text><text y="0.32em" transform="translate(40,62)">3</text><text y="0.32em" transform="translate(40,71)">4</text><text y="0.32em" transform="translate(40,80)">5</text><text y="0.32em" transform="translate(40,89)">6</text><text y="0.32em" transform="translate(40,98)">7</text><text y="0.32em" transform="translate(40,107)">8</text><text y="0.32em" transform="translate(40,116)">9</text><text y="0.32em" transform="translate(40,125)">10</text><text y="0.32em" transform="translate(40,134)">11</text><text y="0.32em" transform="translate(40,143)">12</text><text y="0.32em" transform="translate(40,152)">13</text><text y="0.32em" transform="translate(40,161)">14</text><text y="0.32em" transform="translate(40,170)">15</text><text y="0.32em" transform="translate(40,179)">16</text><text y="0.32em" transform="translate(40,188)">17</text><text y="0.32em" transform="translate(40,197)">18</text><text y="0.32em" transform="translate(40,206)">19</text><text y="0.32em" transform="translate(40,215)">20</text><text y="0.32em" transform="translate(40,224)">21</text><text y="0.32em" transform="translate(40,233)">22</text><text y="0.32em" transform="translate(40,242)">23</text><text y="0.32em" transform="translate(40,251)">24</text><text y="0.32em" transform="translate(40,260)">25</text><text y="0.32em" transform="translate(40,269)">26</text><text y="0.32em" transform="translate(40,278)">27</text><text y="0.32em" transform="translate(40,287)">28</text><text y="0.32em" transform="translate(40,296)">29</text><text y="0.32em" transform="translate(40,305)">30</text><text y="0.32em" transform="translate(40,314)">31</text><text y="0.32em" transform="translate(40,323)">32</text><text y="0.32em" transform="translate(40,332)">33</text><text y="0.32em" transform="translate(40,341)">34</text><text y="0.32em" transform="translate(40,350)">35</text><text y="0.32em" transform="translate(40,359)">36</text><text y="0.32em" transform="translate(40,368)">37</text><text y="0.32em" transform="translate(40,377)">38</text><text y="0.32em" transform="translate(40,386)">39</text><text y="0.32em" transform="translate(40,395)">40</text><text y="0.32em" transform="translate(40,404)">41</text><text y="0.32em" transform="translate(40,413)">42</text><text y="0.32em" transform="translate(40,422)">43</text><text y="0.32em" transform="translate(40,431)">44</text><text y="0.32em" transform="translate(40,440)">45</text><text y="0.32em" transform="translate(40,449)">46</text><text y="0.32em" transform="translate(40,458)">47</text><text y="0.32em" transform="translate(40,467)">48</text><text y="0.32em" transform="translate(40,476)">49</text><text y="0.32em" transform="translate(40,485)">50</text><text y="0.32em" transform="translate(40,494)">51</text><text y="0.32em" transform="translate(40,503)">52</text><text y="0.32em" transform="translate(40,512)">53</text><text y="0.32em" transform="translate(40,521)">54</text><text y="0.32em" transform="translate(40,530)">55</text><text y="0.32em" transform="translate(40,539)">56</text><text y="0.32em" transform="translate(40,548)">57</text><text y="0.32em" transform="translate(40,557)">58</text><text y="0.32em" transform="translate(40,566)">59</text><text y="0.32em" transform="translate(40,575)">60</text><text y="0.32em" transform="translate(40,584)">61</text><text y="0.32em" transform="translate(40,593)">62</text><text y="0.32em" transform="translate(40,602)">63</text><text y="0.32em" transform="translate(40,611)">64</text><text y="0.32em" transform="translate(40,620)">65</text><text y="0.32em" transform="translate(40,629)">66</text><text y="0.32em" transform="translate(40,638)">67</text><text y="0.32em" transform="translate(40,647)">68</text><text y="0.32em" transform="translate(40,656)">69</text><text y="0.32em" transform="translate(40,665)">70</text><text y="0.32em" transform="translate(40,674)">71</text><text y="0.32em" transform="translate(40,683)">72</text><text y="0.32em" transform="translate(40,692)">73</text><text y="0.32em" transform="translate(40,701)">74</text><text y="0.32em" transform="translate(40,710)">75</text><text y="0.32em" transform="translate(40,719)">76</text><text y="0.32em" transform="translate(40,728)">77</text><text y="0.32em" transform="translate(40,737)">78</text><text y="0.32em" transform="translate(40,746)">79</text></g><g aria-label="y-axis label" transform="translate(-36.5,0.5)"><text y="0.71em" transform="translate(40,395) rotate(-90)">Sample index</text></g><g aria-label="x-grid" aria-hidden="true" stroke="currentColor" stroke-opacity="0.1" transform="translate(0.5,0)"><line x1="40" x2="40" y1="20" y2="770"></line><line x1="105.99999999999999" x2="105.99999999999999" y1="20" y2="770"></line><line x1="172" x2="172" y1="20" y2="770"></line><line x1="238" x2="238" y1="20" y2="770"></line><line x1="304" x2="304" y1="20" y2="770"></line><line x1="370" x2="370" y1="20" y2="770"></line><line x1="436" x2="436" y1="20" y2="770"></line><line x1="501.99999999999994" x2="501.99999999999994" y1="20" y2="770"></line><line x1="568" x2="568" y1="20" y2="770"></line><line x1="634" x2="634" y1="20" y2="770"></line><line x1="700" x2="700" y1="20" y2="770"></line></g><g aria-label="x-axis tick" aria-hidden="true" fill="none" stroke="currentColor" transform="translate(0.5,0)"><path transform="translate(40,770)" d="M0,0L0,6"></path><path transform="translate(105.99999999999999,770)" d="M0,0L0,6"></path><path transform="translate(172,770)" d="M0,0L0,6"></path><path transform="translate(238,770)" d="M0,0L0,6"></path><path transform="translate(304,770)" d="M0,0L0,6"></path><path transform="translate(370,770)" d="M0,0L0,6"></path><path transform="translate(436,770)" d="M0,0L0,6"></path><path transform="translate(501.99999999999994,770)" d="M0,0L0,6"></path><path transform="translate(568,770)" d="M0,0L0,6"></path><path transform="translate(634,770)" d="M0,0L0,6"></path><path transform="translate(700,770)" d="M0,0L0,6"></path></g><g aria-label="x-axis tick label" font-variant="tabular-nums" transform="translate(0.5,9.5)"><text y="0.71em" transform="translate(40,770)">−1.0</text><text y="0.71em" transform="translate(105.99999999999999,770)">−0.8</text><text y="0.71em" transform="translate(172,770)">−0.6</text><text y="0.71em" transform="translate(238,770)">−0.4</text><text y="0.71em" transform="translate(304,770)">−0.2</text><text y="0.71em" transform="translate(370,770)">0.0</text><text y="0.71em" transform="translate(436,770)">0.2</text><text y="0.71em" transform="translate(501.99999999999994,770)">0.4</text><text y="0.71em" transform="translate(568,770)">0.6</text><text y="0.71em" transform="translate(634,770)">0.8</text><text y="0.71em" transform="translate(700,770)">1.0</text></g><g aria-label="x-axis label" text-anchor="end" transform="translate(17.5,27.5)"><text transform="translate(700,770)">Silhouette score →</text></g><g aria-label="bar"><rect x="370" width="195.31072148760688" y="35" height="8" fill="#efb118"></rect><rect x="370" width="12.86631711835173" y="44" height="8" fill="#efb118"></rect><rect x="370" width="213.45164966109098" y="53" height="8" fill="#efb118"></rect><rect x="370" width="238.29170940091808" y="62" height="8" fill="#efb118"></rect><rect x="370" width="223.44259090999685" y="71" height="8" fill="#ff725c"></rect><rect x="370" width="230.04205038712553" y="80" height="8" fill="#ff725c"></rect><rect x="370" width="231.88299289433382" y="89" height="8" fill="#4269d0"></rect><rect x="370" width="172.2536076481839" y="98" height="8" fill="#4269d0"></rect><rect x="370" width="231.88287933086826" y="107" height="8" fill="#4269d0"></rect><rect x="370" width="172.1025557796877" y="116" height="8" fill="#4269d0"></rect><rect x="370" width="49.71299238366146" y="125" height="8" fill="#efb118"></rect><rect x="370" width="12.860472158700247" y="134" height="8" fill="#efb118"></rect><rect x="370" width="249.55449734959006" y="143" height="8" fill="#4269d0"></rect><rect x="370" width="158.53820940391404" y="152" height="8" fill="#ff725c"></rect><rect x="370" width="108.13811494742805" y="161" height="8" fill="#efb118"></rect><rect x="370" width="194.92840155336592" y="170" height="8" fill="#efb118"></rect><rect x="370" width="238.57270288270695" y="179" height="8" fill="#4269d0"></rect><rect x="370" width="237.43012996396055" y="188" height="8" fill="#ff725c"></rect><rect x="370" width="232.964118868804" y="197" height="8" fill="#efb118"></rect><rect x="370" width="239.82885810571713" y="206" height="8" fill="#4269d0"></rect><rect x="370" width="158.53664287999743" y="215" height="8" fill="#ff725c"></rect><rect x="370" width="207.4227042602448" y="224" height="8" fill="#ff725c"></rect><rect x="370" width="231.03825048259444" y="233" height="8" fill="#ff725c"></rect><rect x="370" width="229.9944665001102" y="242" height="8" fill="#efb118"></rect><rect x="370" width="231.04390083604108" y="251" height="8" fill="#ff725c"></rect><rect x="370" width="189.8868875875504" y="260" height="8" fill="#4269d0"></rect><rect x="370" width="131.52284997834255" y="269" height="8" fill="#efb118"></rect><rect x="370" width="230.17181530049083" y="278" height="8" fill="#efb118"></rect><rect x="370" width="198.2787166099638" y="287" height="8" fill="#efb118"></rect><rect x="370" width="234.35749778123852" y="296" height="8" fill="#efb118"></rect><rect x="370" width="234.30395764341404" y="305" height="8" fill="#efb118"></rect><rect x="356.1950997061276" width="13.804900293872379" y="314" height="8" fill="#ff725c"></rect><rect x="370" width="167.76754435140367" y="323" height="8" fill="#efb118"></rect><rect x="370" width="12.634335031967566" y="332" height="8" fill="#efb118"></rect><rect x="370" width="226.45213389546905" y="341" height="8" fill="#efb118"></rect><rect x="370" width="220.23891665503538" y="350" height="8" fill="#4269d0"></rect><rect x="370" width="173.068369616234" y="359" height="8" fill="#ff725c"></rect><rect x="370" width="226.215643405925" y="368" height="8" fill="#efb118"></rect><rect x="370" width="237.26920322470585" y="377" height="8" fill="#efb118"></rect><rect x="370" width="235.1995155277424" y="386" height="8" fill="#ff725c"></rect><rect x="370" width="230.14958121074812" y="395" height="8" fill="#efb118"></rect><rect x="370" width="207.33468882132217" y="404" height="8" fill="#4269d0"></rect><rect x="370" width="237.41632029237905" y="413" height="8" fill="#ff725c"></rect><rect x="370" width="240.70862076239246" y="422" height="8" fill="#ff725c"></rect><rect x="370" width="87.83924860403101" y="431" height="8" fill="#4269d0"></rect><rect x="370" width="243.50101800200673" y="440" height="8" fill="#4269d0"></rect><rect x="370" width="213.13925904728865" y="449" height="8" fill="#efb118"></rect><rect x="370" width="238.21179008631952" y="458" height="8" fill="#efb118"></rect><rect x="370" width="106.09643531396762" y="467" height="8" fill="#ff725c"></rect><rect x="370" width="249.21406480436474" y="476" height="8" fill="#4269d0"></rect><rect x="370" width="241.48738385294098" y="485" height="8" fill="#ff725c"></rect><rect x="370" width="172.82548190660816" y="494" height="8" fill="#efb118"></rect><rect x="370" width="248.70646652973414" y="503" height="8" fill="#4269d0"></rect><rect x="370" width="218.9888570721007" y="512" height="8" fill="#efb118"></rect><rect x="370" width="226.55662317192093" y="521" height="8" fill="#ff725c"></rect><rect x="370" width="12.817083302940546" y="530" height="8" fill="#efb118"></rect><rect x="370" width="131.2966342548421" y="539" height="8" fill="#efb118"></rect><rect x="370" width="198.27419742740972" y="548" height="8" fill="#efb118"></rect><rect x="370" width="92.78832963426726" y="557" height="8" fill="#ff725c"></rect><rect x="370" width="248.75856908602236" y="566" height="8" fill="#4269d0"></rect><rect x="370" width="234.18702924948684" y="575" height="8" fill="#4269d0"></rect><rect x="370" width="238.22655873670112" y="584" height="8" fill="#efb118"></rect><rect x="280.2892490358986" width="89.71075096410141" y="593" height="8" fill="#ff725c"></rect><rect x="370" width="212.3832193399884" y="602" height="8" fill="#ff725c"></rect><rect x="370" width="197.50128522101306" y="611" height="8" fill="#4269d0"></rect><rect x="370" width="241.4496432696128" y="620" height="8" fill="#ff725c"></rect><rect x="370" width="172.0553554966965" y="629" height="8" fill="#4269d0"></rect><rect x="370" width="235.18541276850044" y="638" height="8" fill="#ff725c"></rect><rect x="262.63337590686336" width="107.36662409313664" y="647" height="8" fill="#ff725c"></rect><rect x="370" width="220.96117301573577" y="656" height="8" fill="#4269d0"></rect><rect x="280.40171078916194" width="89.59828921083806" y="665" height="8" fill="#ff725c"></rect><rect x="370" width="249.5533201936779" y="674" height="8" fill="#4269d0"></rect><rect x="370" width="240.7019787348048" y="683" height="8" fill="#ff725c"></rect><rect x="370" width="239.32305391623447" y="692" height="8" fill="#ff725c"></rect><rect x="370" width="238.64070742769377" y="701" height="8" fill="#efb118"></rect><rect x="370" width="195.19123366774932" y="710" height="8" fill="#efb118"></rect><rect x="370" width="227.7453619098842" y="719" height="8" fill="#4269d0"></rect><rect x="370" width="231.991612288552" y="728" height="8" fill="#4269d0"></rect><rect x="370" width="234.94964893365977" y="737" height="8" fill="#efb118"></rect><rect x="370" width="234.3291119525246" y="746" height="8" fill="#efb118"></rect></g><g aria-label="rule" stroke="#666" stroke-dasharray="4,4" transform="translate(0.5,0)"><line x1="370" x2="370" y1="20" y2="770"></line></g><text x="720" y="20" dy="-1em" text-anchor="end" font-family="initial">⚠️<title>1 warning. Please check the console.</title></text></svg>