<svg class="plot-d6a7b5" fill="currentColor" font-family="system-ui, sans-serif" font-size="10" text-anchor="middle" width="640" height="400" viewBox="0 0 640 400"><style>:where(.plot-d6a7b5) {
  --plot-background: white;
  display: block;
  height: auto;
  height: intrinsic;
  max-width: 100%;
}
:where(.plot-d6a7b5 text),
:where(.plot-d6a7b5 tspan) {
  white-space: pre;
}</style><g aria-label="y-grid" aria-hidden="true" stroke="currentColor" stroke-opacity="0.1" transform="translate(0,0.5)"><line x1="40" x2="620" y1="340.8333333333333" y2="340.8333333333333"></line><line x1="40" x2="620" y1="292.22222222222223" y2="292.22222222222223"></line><line x1="40" x2="620" y1="243.6111111111111" y2="243.6111111111111"></line><line x1="40" x2="620" y1="195" y2="195"></line><line x1="40" x2="620" y1="146.3888888888889" y2="146.3888888888889"></line><line x1="40" x2="620" y1="97.77777777777777" y2="97.77777777777777"></line><line x1="40" x2="620" y1="49.16666666666668" y2="49.16666666666668"></line></g><g aria-label="y-axis tick" aria-hidden="true" fill="none" stroke="currentColor" transform="translate(0,0.5)"><path transform="translate(40,340.8333333333333)" d="M0,0L-6,0"></path><path transform="translate(40,292.22222222222223)" d="M0,0L-6,0"></path><path transform="translate(40,243.6111111111111)" d="M0,0L-6,0"></path><path transform="translate(40,195)" d="M0,0L-6,0"></path><path transform="translate(40,146.3888888888889)" d="M0,0L-6,0"></path><path transform="translate(40,97.77777777777777)" d="M0,0L-6,0"></path><path transform="translate(40,49.16666666666668)" d="M0,0L-6,0"></path></g><g aria-label="y-axis tick label" text-anchor="end" font-variant="tabular-nums" transform="translate(-8.5,0.5)"><text y="0.32em" transform="translate(40,340.8333333333333)">3,000</text><text y="0.32em" transform="translate(40,292.22222222222223)">3,500</text><text y="0.32em" transform="translate(40,243.6111111111111)">4,000</text><text y="0.32em" transform="translate(40,195)">4,500</text><text y="0.32em" transform="translate(40,146.3888888888889)">5,000</text><text y="0.32em" transform="translate(40,97.77777777777777)">5,500</text><text y="0.32em" transform="translate(40,49.16666666666668)">6,000</text></g><g aria-label="y-axis label" text-anchor="start" transform="translate(-36.5,-16.5)"><text y="0.71em" transform="translate(40,20)">↑ Body Mass (g)</text></g><g aria-label="x-grid" aria-hidden="true" stroke="currentColor" stroke-opacity="0.1" transform="translate(0.5,0)"><line x1="101.16363636363633" x2="101.16363636363633" y1="20" y2="370"></line><line x1="206.6181818181818" x2="206.6181818181818" y1="20" y2="370"></line><line x1="312.07272727272726" x2="312.07272727272726" y1="20" y2="370"></line><line x1="417.5272727272727" x2="417.5272727272727" y1="20" y2="370"></line><line x1="522.9818181818182" x2="522.9818181818182" y1="20" y2="370"></line></g><g aria-label="x-axis tick" aria-hidden="true" fill="none" stroke="currentColor" transform="translate(0.5,0)"><path transform="translate(101.16363636363633,370)" d="M0,0L0,6"></path><path transform="translate(206.6181818181818,370)" d="M0,0L0,6"></path><path transform="translate(312.07272727272726,370)" d="M0,0L0,6"></path><path transform="translate(417.5272727272727,370)" d="M0,0L0,6"></path><path transform="translate(522.9818181818182,370)" d="M0,0L0,6"></path></g><g aria-label="x-axis tick label" font-variant="tabular-nums" transform="translate(0.5,9.5)"><text y="0.71em" transform="translate(101.16363636363633,370)">35</text><text y="0.71em" transform="translate(206.6181818181818,370)">40</text><text y="0.71em" transform="translate(312.07272727272726,370)">45</text><text y="0.71em" transform="translate(417.5272727272727,370)">50</text><text y="0.71em" transform="translate(522.9818181818182,370)">55</text></g><g aria-label="x-axis label" text-anchor="end" transform="translate(17.5,27.5)"><text transform="translate(620,370)">Beak Length (mm) →</text></g><g aria-label="dot" fill="steelblue" transform="translate(0.5,0.5)"><circle opacity="0.6" cx="187.63636363636363" cy="267.91666666666663" r="3"></circle><circle opacity="0.6" cx="196.07272727272726" cy="263.05555555555554" r="3"></circle><circle opacity="0.6" cx="212.94545454545448" cy="316.52777777777777" r="3"></circle><circle opacity="0.6" cx="137.01818181818186" cy="297.0833333333333" r="3"></circle><circle opacity="0.6" cx="191.85454545454536" cy="277.6388888888889" r="3"></circle><circle opacity="0.6" cx="183.41818181818178" cy="280.06944444444446" r="3"></circle><circle opacity="0.6" cx="189.74545454545455" cy="177.9861111111111" r="3"></circle><circle opacity="0.6" cx="229.8181818181818" cy="321.3888888888889" r="3"></circle><circle opacity="0.6" cx="177.09090909090907" cy="263.05555555555554" r="3"></circle><circle opacity="0.6" cx="92.72727272727272" cy="204.72222222222223" r="3"></circle><circle opacity="0.6" cx="134.9090909090909" cy="272.77777777777777" r="3"></circle><circle opacity="0.6" cx="179.20000000000005" cy="297.0833333333333" r="3"></circle><circle opacity="0.6" cx="259.3454545454545" cy="195" r="3"></circle><circle opacity="0.6" cx="88.50909090909084" cy="309.2361111111111" r="3"></circle><circle opacity="0.6" cx="333.16363636363633" cy="224.16666666666666" r="3"></circle><circle opacity="0.6" cx="160.21818181818173" cy="301.94444444444446" r="3"></circle><circle opacity="0.6" cx="158.10909090909095" cy="282.5" r="3"></circle><circle opacity="0.6" cx="120.14545454545447" cy="263.05555555555554" r="3"></circle><circle opacity="0.6" cx="168.65454545454548" cy="248.47222222222223" r="3"></circle><circle opacity="0.6" cx="181.3090909090908" cy="263.05555555555554" r="3"></circle><circle opacity="0.6" cx="107.49090909090901" cy="263.05555555555554" r="3"></circle><circle opacity="0.6" cx="219.27272727272725" cy="287.3611111111111" r="3"></circle><circle opacity="0.6" cx="217.16363636363636" cy="321.3888888888889" r="3"></circle><circle opacity="0.6" cx="162.32727272727266" cy="326.25" r="3"></circle><circle opacity="0.6" cx="217.16363636363636" cy="248.47222222222223" r="3"></circle><circle opacity="0.6" cx="196.07272727272726" cy="316.52777777777777" r="3"></circle><circle opacity="0.6" cx="147.5636363636364" cy="253.33333333333334" r="3"></circle><circle opacity="0.6" cx="196.07272727272726" cy="311.6666666666667" r="3"></circle><circle opacity="0.6" cx="225.59999999999997" cy="253.33333333333334" r="3"></circle><circle opacity="0.6" cx="130.69090909090903" cy="309.2361111111111" r="3"></circle><circle opacity="0.6" cx="189.74545454545455" cy="229.02777777777777" r="3"></circle><circle opacity="0.6" cx="181.3090909090908" cy="248.47222222222223" r="3"></circle><circle opacity="0.6" cx="253.01818181818183" cy="287.3611111111111" r="3"></circle><circle opacity="0.6" cx="156" cy="311.6666666666667" r="3"></circle><circle opacity="0.6" cx="202.39999999999992" cy="180.41666666666669" r="3"></circle><circle opacity="0.6" cx="132.79999999999998" cy="326.25" r="3"></circle><circle opacity="0.6" cx="223.490909090909" cy="253.33333333333334" r="3"></circle><circle opacity="0.6" cx="122.25454545454542" cy="331.1111111111111" r="3"></circle><circle opacity="0.6" cx="293.09090909090907" cy="204.72222222222223" r="3"></circle><circle opacity="0.6" cx="143.34545454545452" cy="340.8333333333333" r="3"></circle><circle opacity="0.6" cx="198.18181818181816" cy="185.27777777777777" r="3"></circle><circle opacity="0.6" cx="229.8181818181818" cy="299.5138888888889" r="3"></circle><circle opacity="0.6" cx="122.25454545454542" cy="297.0833333333333" r="3"></circle><circle opacity="0.6" cx="255.1272727272726" cy="229.02777777777777" r="3"></circle><circle opacity="0.6" cx="198.18181818181816" cy="292.22222222222223" r="3"></circle><circle opacity="0.6" cx="208.72727272727272" cy="214.44444444444446" r="3"></circle><circle opacity="0.6" cx="101.16363636363633" cy="297.0833333333333" r="3"></circle><circle opacity="0.6" cx="248.79999999999995" cy="238.75" r="3"></circle><circle opacity="0.6" cx="90.6181818181818" cy="350.55555555555554" r="3"></circle><circle opacity="0.6" cx="236.14545454545447" cy="272.77777777777777" r="3"></circle><circle opacity="0.6" cx="185.5272727272727" cy="287.3611111111111" r="3"></circle><circle opacity="0.6" cx="219.27272727272725" cy="263.05555555555554" r="3"></circle><circle opacity="0.6" cx="132.79999999999998" cy="355.4166666666667" r="3"></circle><circle opacity="0.6" cx="156" cy="267.91666666666663" r="3"></circle><circle opacity="0.6" cx="115.92727272727274" cy="326.25" r="3"></circle><circle opacity="0.6" cx="234.03636363636355" cy="204.72222222222223" r="3"></circle><circle opacity="0.6" cx="156" cy="282.5" r="3"></circle><circle opacity="0.6" cx="229.8181818181818" cy="238.75" r="3"></circle><circle opacity="0.6" cx="130.69090909090903" cy="355.4166666666667" r="3"></circle><circle opacity="0.6" cx="240.36363636363637" cy="248.47222222222223" r="3"></circle><circle opacity="0.6" cx="111.70909090909089" cy="306.80555555555554" r="3"></circle><circle opacity="0.6" cx="229.8181818181818" cy="233.8888888888889" r="3"></circle><circle opacity="0.6" cx="120.14545454545447" cy="335.97222222222223" r="3"></circle><circle opacity="0.6" cx="244.58181818181808" cy="199.8611111111111" r="3"></circle><circle opacity="0.6" cx="69.52727272727269" cy="282.5" r="3"></circle><circle opacity="0.6" cx="200.2909090909091" cy="253.33333333333334" r="3"></circle><circle opacity="0.6" cx="198.18181818181816" cy="287.3611111111111" r="3"></circle><circle opacity="0.6" cx="328.9454545454544" cy="229.02777777777777" r="3"></circle><circle opacity="0.6" cx="111.70909090909089" cy="272.77777777777777" r="3"></circle><circle opacity="0.6" cx="265.6727272727272" cy="219.30555555555554" r="3"></circle><circle opacity="0.6" cx="225.59999999999997" cy="272.77777777777777" r="3"></circle><circle opacity="0.6" cx="147.5636363636364" cy="253.33333333333334" r="3"></circle><circle opacity="0.6" cx="126.4727272727273" cy="287.3611111111111" r="3"></circle><circle opacity="0.6" cx="250.90909090909093" cy="243.6111111111111" r="3"></circle><circle opacity="0.6" cx="92.72727272727272" cy="321.3888888888889" r="3"></circle><circle opacity="0.6" cx="267.78181818181815" cy="175.55555555555554" r="3"></circle><circle opacity="0.6" cx="137.01818181818186" cy="263.05555555555554" r="3"></circle><circle opacity="0.6" cx="103.27272727272725" cy="224.16666666666666" r="3"></circle><circle opacity="0.6" cx="149.67272727272717" cy="306.80555555555554" r="3"></circle><circle opacity="0.6" cx="234.03636363636355" cy="287.3611111111111" r="3"></circle><circle opacity="0.6" cx="128.58181818181808" cy="263.05555555555554" r="3"></circle><circle opacity="0.6" cx="141.2363636363636" cy="292.22222222222223" r="3"></circle><circle opacity="0.6" cx="170.7636363636363" cy="248.47222222222223" r="3"></circle><circle opacity="0.6" cx="183.41818181818178" cy="282.5" r="3"></circle><circle opacity="0.6" cx="115.92727272727274" cy="287.3611111111111" r="3"></circle><circle opacity="0.6" cx="229.8181818181818" cy="214.44444444444446" r="3"></circle><circle opacity="0.6" cx="80.07272727272724" cy="301.94444444444446" r="3"></circle><circle opacity="0.6" cx="198.18181818181816" cy="199.8611111111111" r="3"></circle><circle opacity="0.6" cx="126.4727272727273" cy="311.6666666666667" r="3"></circle><circle opacity="0.6" cx="223.490909090909" cy="214.44444444444446" r="3"></circle><circle opacity="0.6" cx="166.54545454545453" cy="272.77777777777777" r="3"></circle><circle opacity="0.6" cx="212.94545454545448" cy="209.58333333333334" r="3"></circle><circle opacity="0.6" cx="61.09090909090909" cy="350.55555555555554" r="3"></circle><circle opacity="0.6" cx="274.1090909090909" cy="233.8888888888889" r="3"></circle><circle opacity="0.6" cx="101.16363636363633" cy="270.34722222222223" r="3"></circle><circle opacity="0.6" cx="227.7090909090909" cy="173.125" r="3"></circle><circle opacity="0.6" cx="158.10909090909095" cy="333.5416666666667" r="3"></circle><circle opacity="0.6" cx="160.21818181818173" cy="219.30555555555554" r="3"></circle><circle opacity="0.6" cx="162.32727272727266" cy="348.125" r="3"></circle><circle opacity="0.6" cx="200.2909090909091" cy="287.3611111111111" r="3"></circle><circle opacity="0.6" cx="177.09090909090907" cy="267.91666666666663" r="3"></circle><circle opacity="0.6" cx="168.65454545454548" cy="253.33333333333334" r="3"></circle><circle opacity="0.6" cx="166.54545454545453" cy="323.81944444444446" r="3"></circle><circle opacity="0.6" cx="274.1090909090909" cy="168.2638888888889" r="3"></circle><circle opacity="0.6" cx="166.54545454545453" cy="260.625" r="3"></circle><circle opacity="0.6" cx="324.72727272727275" cy="185.27777777777777" r="3"></circle><circle opacity="0.6" cx="200.2909090909091" cy="321.3888888888889" r="3"></circle><circle opacity="0.6" cx="253.01818181818183" cy="216.875" r="3"></circle><circle opacity="0.6" cx="198.18181818181816" cy="253.33333333333334" r="3"></circle><circle opacity="0.6" cx="263.56363636363636" cy="236.31944444444446" r="3"></circle><circle opacity="0.6" cx="177.09090909090907" cy="350.55555555555554" r="3"></circle><circle opacity="0.6" cx="149.67272727272717" cy="265.4861111111111" r="3"></circle><circle opacity="0.6" cx="115.92727272727274" cy="306.80555555555554" r="3"></circle><circle opacity="0.6" cx="229.8181818181818" cy="309.2361111111111" r="3"></circle><circle opacity="0.6" cx="126.4727272727273" cy="326.25" r="3"></circle><circle opacity="0.6" cx="158.10909090909095" cy="292.22222222222223" r="3"></circle><circle opacity="0.6" cx="210.83636363636367" cy="297.0833333333333" r="3"></circle><circle opacity="0.6" cx="236.14545454545447" cy="255.7638888888889" r="3"></circle><circle opacity="0.6" cx="105.3818181818182" cy="335.97222222222223" r="3"></circle><circle opacity="0.6" cx="219.27272727272725" cy="243.6111111111111" r="3"></circle><circle opacity="0.6" cx="181.3090909090908" cy="314.09722222222223" r="3"></circle><circle opacity="0.6" cx="238.2545454545454" cy="214.44444444444446" r="3"></circle><circle opacity="0.6" cx="185.5272727272727" cy="335.97222222222223" r="3"></circle><circle opacity="0.6" cx="293.09090909090907" cy="243.6111111111111" r="3"></circle><circle opacity="0.6" cx="174.98181818181814" cy="309.2361111111111" r="3"></circle><circle opacity="0.6" cx="272" cy="292.22222222222223" r="3"></circle><circle opacity="0.6" cx="139.12727272727264" cy="292.22222222222223" r="3"></circle><circle opacity="0.6" cx="153.89090909090908" cy="197.43055555555554" r="3"></circle><circle opacity="0.6" cx="166.54545454545453" cy="299.5138888888889" r="3"></circle><circle opacity="0.6" cx="229.8181818181818" cy="253.33333333333334" r="3"></circle><circle opacity="0.6" cx="113.81818181818181" cy="323.81944444444446" r="3"></circle><circle opacity="0.6" cx="210.83636363636367" cy="246.04166666666666" r="3"></circle><circle opacity="0.6" cx="143.34545454545452" cy="301.94444444444446" r="3"></circle><circle opacity="0.6" cx="200.2909090909091" cy="219.30555555555554" r="3"></circle><circle opacity="0.6" cx="210.83636363636367" cy="301.94444444444446" r="3"></circle><circle opacity="0.6" cx="219.27272727272725" cy="294.65277777777777" r="3"></circle><circle opacity="0.6" cx="40" cy="335.97222222222223" r="3"></circle><circle opacity="0.6" cx="221.38181818181823" cy="270.34722222222223" r="3"></circle><circle opacity="0.6" cx="149.67272727272717" cy="340.8333333333333" r="3"></circle><circle opacity="0.6" cx="185.5272727272727" cy="277.6388888888889" r="3"></circle><circle opacity="0.6" cx="189.74545454545455" cy="219.30555555555554" r="3"></circle><circle opacity="0.6" cx="134.9090909090909" cy="294.65277777777777" r="3"></circle><circle opacity="0.6" cx="122.25454545454542" cy="297.0833333333333" r="3"></circle><circle opacity="0.6" cx="160.21818181818173" cy="267.91666666666663" r="3"></circle><circle opacity="0.6" cx="122.25454545454542" cy="272.77777777777777" r="3"></circle><circle opacity="0.6" cx="238.2545454545454" cy="243.6111111111111" r="3"></circle><circle opacity="0.6" cx="343.7090909090909" cy="292.22222222222223" r="3"></circle><circle opacity="0.6" cx="417.5272727272727" cy="253.33333333333334" r="3"></circle><circle opacity="0.6" cx="444.9454545454544" cy="277.6388888888889" r="3"></circle><circle opacity="0.6" cx="320.5090909090909" cy="289.7916666666667" r="3"></circle><circle opacity="0.6" cx="474.47272727272735" cy="270.34722222222223" r="3"></circle><circle opacity="0.6" cx="316.2909090909091" cy="248.47222222222223" r="3"></circle><circle opacity="0.6" cx="335.27272727272725" cy="316.52777777777777" r="3"></circle><circle opacity="0.6" cx="444.9454545454544" cy="267.91666666666663" r="3"></circle><circle opacity="0.6" cx="333.16363636363633" cy="229.02777777777777" r="3"></circle><circle opacity="0.6" cx="444.9454545454544" cy="272.77777777777777" r="3"></circle><circle opacity="0.6" cx="345.8181818181818" cy="263.05555555555554" r="3"></circle><circle opacity="0.6" cx="453.38181818181823" cy="265.4861111111111" r="3"></circle><circle opacity="0.6" cx="354.2545454545454" cy="272.77777777777777" r="3"></circle><circle opacity="0.6" cx="459.7090909090909" cy="238.75" r="3"></circle><circle opacity="0.6" cx="331.0545454545454" cy="284.93055555555554" r="3"></circle><circle opacity="0.6" cx="428.07272727272726" cy="238.75" r="3"></circle><circle opacity="0.6" cx="423.85454545454536" cy="311.6666666666667" r="3"></circle><circle opacity="0.6" cx="586.2545454545455" cy="272.77777777777777" r="3"></circle><circle opacity="0.6" cx="341.5999999999999" cy="297.0833333333333" r="3"></circle><circle opacity="0.6" cx="400.6545454545455" cy="204.72222222222223" r="3"></circle><circle opacity="0.6" cx="257.2363636363636" cy="282.5" r="3"></circle><circle opacity="0.6" cx="385.890909090909" cy="301.94444444444446" r="3"></circle><circle opacity="0.6" cx="274.1090909090909" cy="350.55555555555554" r="3"></circle><circle opacity="0.6" cx="430.18181818181813" cy="263.05555555555554" r="3"></circle><circle opacity="0.6" cx="347.9272727272728" cy="311.6666666666667" r="3"></circle><circle opacity="0.6" cx="459.7090909090909" cy="229.02777777777777" r="3"></circle><circle opacity="0.6" cx="428.07272727272726" cy="301.94444444444446" r="3"></circle><circle opacity="0.6" cx="406.98181818181814" cy="263.05555555555554" r="3"></circle><circle opacity="0.6" cx="341.5999999999999" cy="272.77777777777777" r="3"></circle><circle opacity="0.6" cx="476.58181818181805" cy="190.1388888888889" r="3"></circle><circle opacity="0.6" cx="225.59999999999997" cy="321.3888888888889" r="3"></circle><circle opacity="0.6" cx="506.109090909091" cy="214.44444444444446" r="3"></circle><circle opacity="0.6" cx="259.3454545454545" cy="306.80555555555554" r="3"></circle><circle opacity="0.6" cx="438.6181818181818" cy="233.8888888888889" r="3"></circle><circle opacity="0.6" cx="411.2" cy="282.5" r="3"></circle><circle opacity="0.6" cx="364.8" cy="253.33333333333334" r="3"></circle><circle opacity="0.6" cx="366.9090909090909" cy="258.19444444444446" r="3"></circle><circle opacity="0.6" cx="459.7090909090909" cy="165.83333333333331" r="3"></circle><circle opacity="0.6" cx="352.1454545454545" cy="370" r="3"></circle><circle opacity="0.6" cx="491.3454545454545" cy="195" r="3"></circle><circle opacity="0.6" cx="396.43636363636364" cy="248.47222222222223" r="3"></circle><circle opacity="0.6" cx="337.38181818181823" cy="277.6388888888889" r="3"></circle><circle opacity="0.6" cx="436.50909090909084" cy="287.3611111111111" r="3"></circle><circle opacity="0.6" cx="322.61818181818177" cy="292.22222222222223" r="3"></circle><circle opacity="0.6" cx="436.50909090909084" cy="275.20833333333337" r="3"></circle><circle opacity="0.6" cx="434.3999999999999" cy="199.8611111111111" r="3"></circle><circle opacity="0.6" cx="419.6363636363636" cy="301.94444444444446" r="3"></circle><circle opacity="0.6" cx="396.43636363636364" cy="214.44444444444446" r="3"></circle><circle opacity="0.6" cx="449.16363636363633" cy="316.52777777777777" r="3"></circle><circle opacity="0.6" cx="413.3090909090908" cy="275.20833333333337" r="3"></circle><circle opacity="0.6" cx="377.45454545454544" cy="309.2361111111111" r="3"></circle><circle opacity="0.6" cx="447.05454545454535" cy="248.47222222222223" r="3"></circle><circle opacity="0.6" cx="326.83636363636367" cy="282.5" r="3"></circle><circle opacity="0.6" cx="432.2909090909091" cy="238.75" r="3"></circle><circle opacity="0.6" cx="259.3454545454545" cy="306.80555555555554" r="3"></circle><circle opacity="0.6" cx="463.92727272727274" cy="297.0833333333333" r="3"></circle><circle opacity="0.6" cx="316.2909090909091" cy="316.52777777777777" r="3"></circle><circle opacity="0.6" cx="402.76363636363624" cy="238.75" r="3"></circle><circle opacity="0.6" cx="421.74545454545455" cy="263.05555555555554" r="3"></circle><circle opacity="0.6" cx="324.72727272727275" cy="289.7916666666667" r="3"></circle><circle opacity="0.6" cx="457.5999999999999" cy="248.47222222222223" r="3"></circle><circle opacity="0.6" cx="350.03636363636355" cy="277.6388888888889" r="3"></circle><circle opacity="0.6" cx="326.83636363636367" cy="277.6388888888889" r="3"></circle><circle opacity="0.6" cx="539.8545454545454" cy="243.6111111111111" r="3"></circle><circle opacity="0.6" cx="280.43636363636364" cy="301.94444444444446" r="3"></circle><circle opacity="0.6" cx="409.0909090909091" cy="265.4861111111111" r="3"></circle><circle opacity="0.6" cx="434.3999999999999" cy="233.8888888888889" r="3"></circle><circle opacity="0.6" cx="421.74545454545455" cy="265.4861111111111" r="3"></circle><circle opacity="0.6" cx="335.27272727272725" cy="195" r="3"></circle><circle opacity="0.6" cx="417.5272727272727" cy="78.33333333333331" r="3"></circle><circle opacity="0.6" cx="390.1090909090909" cy="199.8611111111111" r="3"></circle><circle opacity="0.6" cx="417.5272727272727" cy="78.33333333333331" r="3"></circle><circle opacity="0.6" cx="366.9090909090909" cy="107.5" r="3"></circle><circle opacity="0.6" cx="343.7090909090909" cy="190.1388888888889" r="3"></circle><circle opacity="0.6" cx="320.5090909090909" cy="165.83333333333331" r="3"></circle><circle opacity="0.6" cx="347.9272727272728" cy="126.94444444444446" r="3"></circle><circle opacity="0.6" cx="276.21818181818173" cy="204.72222222222223" r="3"></circle><circle opacity="0.6" cx="350.03636363636355" cy="131.80555555555554" r="3"></circle><circle opacity="0.6" cx="225.59999999999997" cy="180.41666666666669" r="3"></circle><circle opacity="0.6" cx="396.43636363636364" cy="92.91666666666667" r="3"></circle><circle opacity="0.6" cx="322.61818181818177" cy="180.41666666666669" r="3"></circle><circle opacity="0.6" cx="383.78181818181815" cy="63.75" r="3"></circle><circle opacity="0.6" cx="328.9454545454544" cy="224.16666666666666" r="3"></circle><circle opacity="0.6" cx="402.76363636363624" cy="63.75" r="3"></circle><circle opacity="0.6" cx="248.79999999999995" cy="229.02777777777777" r="3"></circle><circle opacity="0.6" cx="400.6545454545455" cy="20" r="3"></circle><circle opacity="0.6" cx="337.38181818181823" cy="165.83333333333331" r="3"></circle><circle opacity="0.6" cx="390.1090909090909" cy="112.3611111111111" r="3"></circle><circle opacity="0.6" cx="421.74545454545455" cy="78.33333333333331" r="3"></circle><circle opacity="0.6" cx="314.18181818181813" cy="146.3888888888889" r="3"></circle><circle opacity="0.6" cx="343.7090909090909" cy="204.72222222222223" r="3"></circle><circle opacity="0.6" cx="339.49090909090904" cy="141.52777777777777" r="3"></circle><circle opacity="0.6" cx="267.78181818181815" cy="146.3888888888889" r="3"></circle><circle opacity="0.6" cx="335.27272727272725" cy="136.66666666666669" r="3"></circle><circle opacity="0.6" cx="371.1272727272726" cy="83.19444444444446" r="3"></circle><circle opacity="0.6" cx="379.5636363636364" cy="185.27777777777777" r="3"></circle><circle opacity="0.6" cx="417.5272727272727" cy="92.91666666666667" r="3"></circle><circle opacity="0.6" cx="360.5818181818181" cy="122.08333333333333" r="3"></circle><circle opacity="0.6" cx="265.6727272727272" cy="175.55555555555554" r="3"></circle><circle opacity="0.6" cx="314.18181818181813" cy="141.52777777777777" r="3"></circle><circle opacity="0.6" cx="620" cy="44.30555555555554" r="3"></circle><circle opacity="0.6" cx="398.5454545454545" cy="131.80555555555554" r="3"></circle><circle opacity="0.6" cx="383.78181818181815" cy="107.5" r="3"></circle><circle opacity="0.6" cx="261.4545454545455" cy="151.25" r="3"></circle><circle opacity="0.6" cx="299.4181818181818" cy="122.08333333333333" r="3"></circle><circle opacity="0.6" cx="290.98181818181814" cy="209.58333333333334" r="3"></circle><circle opacity="0.6" cx="390.1090909090909" cy="112.3611111111111" r="3"></circle><circle opacity="0.6" cx="263.56363636363636" cy="248.47222222222223" r="3"></circle><circle opacity="0.6" cx="409.0909090909091" cy="78.33333333333331" r="3"></circle><circle opacity="0.6" cx="318.3999999999999" cy="214.44444444444446" r="3"></circle><circle opacity="0.6" cx="409.0909090909091" cy="170.69444444444446" r="3"></circle><circle opacity="0.6" cx="428.07272727272726" cy="92.91666666666667" r="3"></circle><circle opacity="0.6" cx="282.5454545454545" cy="156.1111111111111" r="3"></circle><circle opacity="0.6" cx="322.61818181818177" cy="224.16666666666666" r="3"></circle><circle opacity="0.6" cx="428.07272727272726" cy="107.5" r="3"></circle><circle opacity="0.6" cx="309.9636363636363" cy="136.66666666666669" r="3"></circle><circle opacity="0.6" cx="316.2909090909091" cy="117.22222222222223" r="3"></circle><circle opacity="0.6" cx="345.8181818181818" cy="160.97222222222223" r="3"></circle><circle opacity="0.6" cx="385.890909090909" cy="117.22222222222223" r="3"></circle><circle opacity="0.6" cx="314.18181818181813" cy="204.72222222222223" r="3"></circle><circle opacity="0.6" cx="419.6363636363636" cy="146.3888888888889" r="3"></circle><circle opacity="0.6" cx="343.7090909090909" cy="156.1111111111111" r="3"></circle><circle opacity="0.6" cx="312.07272727272726" cy="141.52777777777777" r="3"></circle><circle opacity="0.6" cx="286.7636363636363" cy="214.44444444444446" r="3"></circle><circle opacity="0.6" cx="322.61818181818177" cy="146.3888888888889" r="3"></circle><circle opacity="0.6" cx="274.1090909090909" cy="199.8611111111111" r="3"></circle><circle opacity="0.6" cx="425.9636363636363" cy="92.91666666666667" r="3"></circle><circle opacity="0.6" cx="318.3999999999999" cy="224.16666666666666" r="3"></circle><circle opacity="0.6" cx="337.38181818181823" cy="117.22222222222223" r="3"></circle><circle opacity="0.6" cx="326.83636363636367" cy="204.72222222222223" r="3"></circle><circle opacity="0.6" cx="508.21818181818173" cy="83.19444444444446" r="3"></circle><circle opacity="0.6" cx="328.9454545454544" cy="175.55555555555554" r="3"></circle><circle opacity="0.6" cx="413.3090909090908" cy="78.33333333333331" r="3"></circle><circle opacity="0.6" cx="406.98181818181814" cy="68.61111111111109" r="3"></circle><circle opacity="0.6" cx="280.43636363636364" cy="175.55555555555554" r="3"></circle><circle opacity="0.6" cx="432.2909090909091" cy="92.91666666666667" r="3"></circle><circle opacity="0.6" cx="369.01818181818186" cy="170.69444444444446" r="3"></circle><circle opacity="0.6" cx="341.5999999999999" cy="146.3888888888889" r="3"></circle><circle opacity="0.6" cx="379.5636363636364" cy="136.66666666666669" r="3"></circle><circle opacity="0.6" cx="343.7090909090909" cy="126.94444444444446" r="3"></circle><circle opacity="0.6" cx="341.5999999999999" cy="175.55555555555554" r="3"></circle><circle opacity="0.6" cx="388" cy="68.61111111111109" r="3"></circle><circle opacity="0.6" cx="364.8" cy="185.27777777777777" r="3"></circle><circle opacity="0.6" cx="440.72727272727275" cy="49.16666666666668" r="3"></circle><circle opacity="0.6" cx="316.2909090909091" cy="170.69444444444446" r="3"></circle><circle opacity="0.6" cx="316.2909090909091" cy="54.02777777777777" r="3"></circle><circle opacity="0.6" cx="398.5454545454545" cy="182.84722222222223" r="3"></circle><circle opacity="0.6" cx="470.25454545454545" cy="102.6388888888889" r="3"></circle><circle opacity="0.6" cx="362.69090909090903" cy="173.125" r="3"></circle><circle opacity="0.6" cx="417.5272727272727" cy="112.3611111111111" r="3"></circle><circle opacity="0.6" cx="309.9636363636363" cy="170.69444444444446" r="3"></circle><circle opacity="0.6" cx="434.3999999999999" cy="88.05555555555554" r="3"></circle><circle opacity="0.6" cx="278.32727272727266" cy="185.27777777777777" r="3"></circle><circle opacity="0.6" cx="444.9454545454544" cy="117.22222222222223" r="3"></circle><circle opacity="0.6" cx="364.8" cy="158.54166666666669" r="3"></circle><circle opacity="0.6" cx="461.81818181818187" cy="92.91666666666667" r="3"></circle><circle opacity="0.6" cx="364.8" cy="151.25" r="3"></circle><circle opacity="0.6" cx="463.92727272727274" cy="107.5" r="3"></circle><circle opacity="0.6" cx="322.61818181818177" cy="170.69444444444446" r="3"></circle><circle opacity="0.6" cx="406.98181818181814" cy="83.19444444444446" r="3"></circle><circle opacity="0.6" cx="301.5272727272727" cy="160.97222222222223" r="3"></circle><circle opacity="0.6" cx="434.3999999999999" cy="126.94444444444446" r="3"></circle><circle opacity="0.6" cx="404.8727272727272" cy="153.68055555555554" r="3"></circle><circle opacity="0.6" cx="352.1454545454545" cy="158.54166666666669" r="3"></circle><circle opacity="0.6" cx="383.78181818181815" cy="182.84722222222223" r="3"></circle><circle opacity="0.6" cx="440.72727272727275" cy="122.08333333333333" r="3"></circle><circle opacity="0.6" cx="385.890909090909" cy="160.97222222222223" r="3"></circle><circle opacity="0.6" cx="541.9636363636363" cy="88.05555555555554" r="3"></circle><circle opacity="0.6" cx="358.4727272727273" cy="148.81944444444446" r="3"></circle><circle opacity="0.6" cx="398.5454545454545" cy="97.77777777777777" r="3"></circle><circle opacity="0.6" cx="350.03636363636355" cy="97.77777777777777" r="3"></circle><circle opacity="0.6" cx="242.4727272727273" cy="175.55555555555554" r="3"></circle><circle opacity="0.6" cx="489.23636363636354" cy="97.77777777777777" r="3"></circle><circle opacity="0.6" cx="276.21818181818173" cy="187.70833333333331" r="3"></circle><circle opacity="0.6" cx="377.45454545454544" cy="97.77777777777777" r="3"></circle><circle opacity="0.6" cx="428.07272727272726" cy="146.3888888888889" r="3"></circle><circle opacity="0.6" cx="413.3090909090908" cy="54.02777777777777" r="3"></circle><circle opacity="0.6" cx="280.43636363636364" cy="180.41666666666669" r="3"></circle><circle opacity="0.6" cx="449.16363636363633" cy="97.77777777777777" r="3"></circle><circle opacity="0.6" cx="337.38181818181823" cy="207.15277777777777" r="3"></circle><circle opacity="0.6" cx="525.090909090909" cy="63.75" r="3"></circle><circle opacity="0.6" cx="392.21818181818173" cy="49.16666666666668" r="3"></circle><circle opacity="0.6" cx="358.4727272727273" cy="153.68055555555554" r="3"></circle><circle opacity="0.6" cx="350.03636363636355" cy="160.97222222222223" r="3"></circle><circle opacity="0.6" cx="425.9636363636363" cy="73.47222222222223" r="3"></circle><circle opacity="0.6" cx="316.2909090909091" cy="126.94444444444446" r="3"></circle><circle opacity="0.6" cx="415.4181818181818" cy="107.5" r="3"></circle></g><g aria-label="line" fill="none" stroke="red" stroke-width="2" stroke-linejoin="round" stroke-linecap="round" transform="translate(0.5,0.5)"><path d="M40,323.833L50.545,319.614L61.091,315.395L71.636,311.176L82.182,306.957L92.727,302.738L103.273,298.519L113.818,294.3L124.364,290.081L134.909,285.862L145.455,281.643L156,277.424L166.545,273.204L177.091,268.985L187.636,264.766L198.182,260.547L208.727,256.328L219.273,252.109L229.818,247.89L240.364,243.671L250.909,239.452L261.455,235.233L272,231.014L282.545,226.795L293.091,222.576L303.636,218.357L314.182,214.138L324.727,209.919L335.273,205.7L345.818,201.481L356.364,197.262L366.909,193.043L377.455,188.824L388,184.605L398.545,180.386L409.091,176.166L419.636,171.947L430.182,167.728L440.727,163.509L451.273,159.29L461.818,155.071L472.364,150.852L482.909,146.633L493.455,142.414L504,138.195L514.545,133.976L525.091,129.757L535.636,125.538L546.182,121.319L556.727,117.1L567.273,112.881L577.818,108.662L588.364,104.443L598.909,100.224L609.455,96.005L620,91.786"></path></g></svg>