<svg class="plot-d6a7b5" fill="currentColor" font-family="system-ui, sans-serif" font-size="10" text-anchor="middle" width="640" height="400" viewBox="0 0 640 400"><style>:where(.plot-d6a7b5) {
  --plot-background: white;
  display: block;
  height: auto;
  height: intrinsic;
  max-width: 100%;
}
:where(.plot-d6a7b5 text),
:where(.plot-d6a7b5 tspan) {
  white-space: pre;
}</style><g aria-label="y-grid" aria-hidden="true" stroke="currentColor" stroke-opacity="0.1" transform="translate(0,0.5)"><line x1="40" x2="620" y1="353.87877373766446" y2="353.87877373766446"></line><line x1="40" x2="620" y1="325.2621260693743" y2="325.2621260693743"></line><line x1="40" x2="620" y1="296.64547840108406" y2="296.64547840108406"></line><line x1="40" x2="620" y1="268.0288307327939" y2="268.0288307327939"></line><line x1="40" x2="620" y1="239.4121830645037" y2="239.4121830645037"></line><line x1="40" x2="620" y1="210.79553539621344" y2="210.79553539621344"></line><line x1="40" x2="620" y1="182.17888772792324" y2="182.17888772792324"></line><line x1="40" x2="620" y1="153.56224005963304" y2="153.56224005963304"></line><line x1="40" x2="620" y1="124.94559239134281" y2="124.94559239134281"></line><line x1="40" x2="620" y1="96.32894472305259" y2="96.32894472305259"></line><line x1="40" x2="620" y1="67.71229705476239" y2="67.71229705476239"></line><line x1="40" x2="620" y1="39.09564938647217" y2="39.09564938647217"></line></g><g aria-label="y-axis tick" aria-hidden="true" fill="none" stroke="currentColor" transform="translate(0,0.5)"><path transform="translate(40,353.87877373766446)" d="M0,0L-6,0"></path><path transform="translate(40,325.2621260693743)" d="M0,0L-6,0"></path><path transform="translate(40,296.64547840108406)" d="M0,0L-6,0"></path><path transform="translate(40,268.0288307327939)" d="M0,0L-6,0"></path><path transform="translate(40,239.4121830645037)" d="M0,0L-6,0"></path><path transform="translate(40,210.79553539621344)" d="M0,0L-6,0"></path><path transform="translate(40,182.17888772792324)" d="M0,0L-6,0"></path><path transform="translate(40,153.56224005963304)" d="M0,0L-6,0"></path><path transform="translate(40,124.94559239134281)" d="M0,0L-6,0"></path><path transform="translate(40,96.32894472305259)" d="M0,0L-6,0"></path><path transform="translate(40,67.71229705476239)" d="M0,0L-6,0"></path><path transform="translate(40,39.09564938647217)" d="M0,0L-6,0"></path></g><g aria-label="y-axis tick label" text-anchor="end" font-variant="tabular-nums" transform="translate(-8.5,0.5)"><text y="0.32em" transform="translate(40,353.87877373766446)">−2.0</text><text y="0.32em" transform="translate(40,325.2621260693743)">−1.5</text><text y="0.32em" transform="translate(40,296.64547840108406)">−1.0</text><text y="0.32em" transform="translate(40,268.0288307327939)">−0.5</text><text y="0.32em" transform="translate(40,239.4121830645037)">0.0</text><text y="0.32em" transform="translate(40,210.79553539621344)">0.5</text><text y="0.32em" transform="translate(40,182.17888772792324)">1.0</text><text y="0.32em" transform="translate(40,153.56224005963304)">1.5</text><text y="0.32em" transform="translate(40,124.94559239134281)">2.0</text><text y="0.32em" transform="translate(40,96.32894472305259)">2.5</text><text y="0.32em" transform="translate(40,67.71229705476239)">3.0</text><text y="0.32em" transform="translate(40,39.09564938647217)">3.5</text></g><g aria-label="y-axis label" text-anchor="start" transform="translate(-36.5,-16.5)"><text y="0.71em" transform="translate(40,20)">↑ LD2</text></g><g aria-label="x-grid" aria-hidden="true" stroke="currentColor" stroke-opacity="0.1" transform="translate(0.5,0)"><line x1="121.9633083465578" x2="121.9633083465578" y1="20" y2="370"></line><line x1="217.1809221379816" x2="217.1809221379816" y1="20" y2="370"></line><line x1="312.39853592940545" x2="312.39853592940545" y1="20" y2="370"></line><line x1="407.6161497208293" x2="407.6161497208293" y1="20" y2="370"></line><line x1="502.83376351225314" x2="502.83376351225314" y1="20" y2="370"></line><line x1="598.051377303677" x2="598.051377303677" y1="20" y2="370"></line></g><g aria-label="x-axis tick" aria-hidden="true" fill="none" stroke="currentColor" transform="translate(0.5,0)"><path transform="translate(121.9633083465578,370)" d="M0,0L0,6"></path><path transform="translate(217.1809221379816,370)" d="M0,0L0,6"></path><path transform="translate(312.39853592940545,370)" d="M0,0L0,6"></path><path transform="translate(407.6161497208293,370)" d="M0,0L0,6"></path><path transform="translate(502.83376351225314,370)" d="M0,0L0,6"></path><path transform="translate(598.051377303677,370)" d="M0,0L0,6"></path></g><g aria-label="x-axis tick label" font-variant="tabular-nums" transform="translate(0.5,9.5)"><text y="0.71em" transform="translate(121.9633083465578,370)">−3</text><text y="0.71em" transform="translate(217.1809221379816,370)">−2</text><text y="0.71em" transform="translate(312.39853592940545,370)">−1</text><text y="0.71em" transform="translate(407.6161497208293,370)">0</text><text y="0.71em" transform="translate(502.83376351225314,370)">1</text><text y="0.71em" transform="translate(598.051377303677,370)">2</text></g><g aria-label="x-axis label" text-anchor="end" transform="translate(17.5,27.5)"><text transform="translate(620,370)">LD1 →</text></g><g aria-label="dot" fill-opacity="0.7" transform="translate(0.5,0.5)"><circle cx="304.4823757631265" cy="269.81968332347805" r="4" fill="#4269d0"></circle><circle cx="349.29515712262986" cy="269.8956159299595" r="4" fill="#4269d0"></circle><circle cx="336.5017255482168" cy="234.11672110324673" r="4" fill="#4269d0"></circle><circle cx="299.2156886097167" cy="290.52706116910656" r="4" fill="#4269d0"></circle><circle cx="272.6207456634564" cy="265.3104616310389" r="4" fill="#4269d0"></circle><circle cx="322.4174393433543" cy="266.11111185884494" r="4" fill="#4269d0"></circle><circle cx="340.2910059884589" cy="323.4870169286115" r="4" fill="#4269d0"></circle><circle cx="320.25358587216255" cy="215.3037685791183" r="4" fill="#4269d0"></circle><circle cx="263.1155430772871" cy="282.67352507548617" r="4" fill="#4269d0"></circle><circle cx="290.8038830185245" cy="370" r="4" fill="#4269d0"></circle><circle cx="328.18130173221516" cy="301.99012421282106" r="4" fill="#4269d0"></circle><circle cx="314.80301963091716" cy="265.3339391553968" r="4" fill="#4269d0"></circle><circle cx="318.1323142432551" cy="271.54293400968993" r="4" fill="#4269d0"></circle><circle cx="294.69428143166147" cy="310.28515690068633" r="4" fill="#4269d0"></circle><circle cx="289.7356988564567" cy="208.2177433335097" r="4" fill="#4269d0"></circle><circle cx="286.38935113282054" cy="265.29628244000247" r="4" fill="#4269d0"></circle><circle cx="294.77492471757984" cy="279.7562596112333" r="4" fill="#4269d0"></circle><circle cx="303.2420411154221" cy="317.78546907907133" r="4" fill="#4269d0"></circle><circle cx="332.0416155148115" cy="294.1865262003169" r="4" fill="#4269d0"></circle><circle cx="340.72839449434633" cy="276.44018081670055" r="4" fill="#4269d0"></circle><circle cx="305.432589603625" cy="324.84434663764387" r="4" fill="#4269d0"></circle><circle cx="307.6474278051327" cy="240.51243689082693" r="4" fill="#4269d0"></circle><circle cx="321.65414073330044" cy="225.30017008812877" r="4" fill="#4269d0"></circle><circle cx="267.0713467717166" cy="249.749068666516" r="4" fill="#4269d0"></circle><circle cx="306.79357144148344" cy="261.57097307503943" r="4" fill="#4269d0"></circle><circle cx="332.8759766952897" cy="237.40599546671203" r="4" fill="#4269d0"></circle><circle cx="314.2666014181407" cy="301.4970479840644" r="4" fill="#4269d0"></circle><circle cx="327.3200889527266" cy="244.17173387084958" r="4" fill="#4269d0"></circle><circle cx="314.07406473441534" cy="255.4756715251917" r="4" fill="#4269d0"></circle><circle cx="355.76570149629936" cy="289.48188803678244" r="4" fill="#4269d0"></circle><circle cx="288.16359221896283" cy="295.6306610663036" r="4" fill="#4269d0"></circle><circle cx="296.14623311764956" cy="287.946698589422" r="4" fill="#4269d0"></circle><circle cx="307.36091726029076" cy="218.25254677665774" r="4" fill="#4269d0"></circle><circle cx="272.0365362496491" cy="265.42380004025375" r="4" fill="#4269d0"></circle><circle cx="330.9549630506661" cy="309.5453700336766" r="4" fill="#4269d0"></circle><circle cx="299.27918356003" cy="272.7536482474006" r="4" fill="#4269d0"></circle><circle cx="348.4786655349484" cy="261.8737693439936" r="4" fill="#4269d0"></circle><circle cx="292.2913578798165" cy="278.27863792366594" r="4" fill="#4269d0"></circle><circle cx="341.0281130664753" cy="245.17565164716368" r="4" fill="#4269d0"></circle><circle cx="328.8656815772607" cy="259.9639547547612" r="4" fill="#4269d0"></circle><circle cx="348.4936263390654" cy="312.29984321350526" r="4" fill="#4269d0"></circle><circle cx="292.69897572383866" cy="226.76489597519893" r="4" fill="#4269d0"></circle><circle cx="326.5163046414372" cy="298.8078911321632" r="4" fill="#4269d0"></circle><circle cx="281.9483431419472" cy="252.7696742636823" r="4" fill="#4269d0"></circle><circle cx="332.40396437378973" cy="252.59502075082506" r="4" fill="#4269d0"></circle><circle cx="333.357937518555" cy="288.93194608539847" r="4" fill="#4269d0"></circle><circle cx="324.4666273238476" cy="311.9013129565426" r="4" fill="#4269d0"></circle><circle cx="338.511861972149" cy="255.9864400773959" r="4" fill="#4269d0"></circle><circle cx="294.7446382246265" cy="287.9022057208738" r="4" fill="#4269d0"></circle><circle cx="330.2434100978383" cy="241.5659837471311" r="4" fill="#4269d0"></circle><circle cx="337.75060087953017" cy="263.16541920298386" r="4" fill="#4269d0"></circle><circle cx="330.8820335252097" cy="258.168314408255" r="4" fill="#4269d0"></circle><circle cx="322.4063896194852" cy="256.87155157174413" r="4" fill="#4269d0"></circle><circle cx="317.68874217549967" cy="295.14920113347205" r="4" fill="#4269d0"></circle><circle cx="331.0220984884993" cy="284.931893100054" r="4" fill="#4269d0"></circle><circle cx="298.48600491592674" cy="280.9309008983308" r="4" fill="#4269d0"></circle><circle cx="346.89475578677184" cy="283.86110387136705" r="4" fill="#4269d0"></circle><circle cx="352.83329377880796" cy="264.61457525828297" r="4" fill="#4269d0"></circle><circle cx="315.8285286308598" cy="259.36027821668176" r="4" fill="#4269d0"></circle><circle cx="355.613577909792" cy="252.8357197300247" r="4" fill="#4269d0"></circle><circle cx="374.6022665008567" cy="302.85244413964887" r="4" fill="#4269d0"></circle><circle cx="324.0101745157451" cy="265.1776889298882" r="4" fill="#4269d0"></circle><circle cx="345.75672818575" cy="279.3524432661552" r="4" fill="#4269d0"></circle><circle cx="349.40883076340873" cy="278.93307346948495" r="4" fill="#4269d0"></circle><circle cx="298.88116811947566" cy="339.1276011518892" r="4" fill="#4269d0"></circle><circle cx="336.1394936015193" cy="274.0379118869309" r="4" fill="#4269d0"></circle><circle cx="366.603626670634" cy="259.8848820856129" r="4" fill="#4269d0"></circle><circle cx="358.3722491960558" cy="210.38247034782037" r="4" fill="#4269d0"></circle><circle cx="343.46534919933606" cy="318.72978273301516" r="4" fill="#4269d0"></circle><circle cx="361.3422922822432" cy="254.19597795046877" r="4" fill="#4269d0"></circle><circle cx="373.94356523337694" cy="248.70233295630234" r="4" fill="#4269d0"></circle><circle cx="294.0666492720188" cy="303.75754385956685" r="4" fill="#4269d0"></circle><circle cx="368.81451605157685" cy="300.7333321683409" r="4" fill="#4269d0"></circle><circle cx="336.96419118831085" cy="249.9206771725407" r="4" fill="#4269d0"></circle><circle cx="330.98790845539463" cy="303.67611121967815" r="4" fill="#4269d0"></circle><circle cx="400.3896545603001" cy="277.46864913009694" r="4" fill="#4269d0"></circle><circle cx="310.78685972571344" cy="306.54631376667845" r="4" fill="#4269d0"></circle><circle cx="317.5564701446358" cy="351.1762282729468" r="4" fill="#4269d0"></circle><circle cx="330.4685141258461" cy="276.96926475401193" r="4" fill="#4269d0"></circle><circle cx="289.0278891555523" cy="235.71512822048118" r="4" fill="#4269d0"></circle><circle cx="298.6246517868852" cy="312.8975515925987" r="4" fill="#4269d0"></circle><circle cx="310.5580548495794" cy="288.9956134064863" r="4" fill="#4269d0"></circle><circle cx="312.9822641017424" cy="294.3077466741608" r="4" fill="#4269d0"></circle><circle cx="314.9188693893856" cy="268.4886386665723" r="4" fill="#4269d0"></circle><circle cx="350.8335423732275" cy="313.3735114920228" r="4" fill="#4269d0"></circle><circle cx="389.5727812617221" cy="283.7118987035358" r="4" fill="#4269d0"></circle><circle cx="330.6031990005127" cy="320.3693447911673" r="4" fill="#4269d0"></circle><circle cx="352.9980605499366" cy="302.7917598509611" r="4" fill="#4269d0"></circle><circle cx="330.9628578151795" cy="287.09609001435354" r="4" fill="#4269d0"></circle><circle cx="375.1308191771899" cy="288.72103666385243" r="4" fill="#4269d0"></circle><circle cx="321.46256957297646" cy="284.3265514748068" r="4" fill="#4269d0"></circle><circle cx="361.44900264782194" cy="292.6749167865929" r="4" fill="#4269d0"></circle><circle cx="323.41737913791536" cy="302.858631303334" r="4" fill="#4269d0"></circle><circle cx="351.29044965472565" cy="239.66894636878934" r="4" fill="#4269d0"></circle><circle cx="337.33893335500574" cy="327.3653264936941" r="4" fill="#4269d0"></circle><circle cx="351.78377980616574" cy="306.01845124547395" r="4" fill="#4269d0"></circle><circle cx="351.0396405551604" cy="254.1711750274344" r="4" fill="#4269d0"></circle><circle cx="303.73855064827" cy="316.9331003610008" r="4" fill="#4269d0"></circle><circle cx="302.1948635486974" cy="247.23154385441165" r="4" fill="#4269d0"></circle><circle cx="300.3654579637293" cy="252.64596777604734" r="4" fill="#4269d0"></circle><circle cx="377.0326620489662" cy="284.9167967531198" r="4" fill="#4269d0"></circle><circle cx="293.30942758572735" cy="293.15392169284945" r="4" fill="#4269d0"></circle><circle cx="326.19248023667114" cy="253.00844086287415" r="4" fill="#4269d0"></circle><circle cx="370.6458555599643" cy="277.50298429803996" r="4" fill="#4269d0"></circle><circle cx="393.79446986764856" cy="295.2183321414929" r="4" fill="#4269d0"></circle><circle cx="325.5377674594748" cy="233.69567131252063" r="4" fill="#4269d0"></circle><circle cx="337.0852748950514" cy="238.5267686706193" r="4" fill="#4269d0"></circle><circle cx="340.1025774413762" cy="263.9443177945918" r="4" fill="#4269d0"></circle><circle cx="280.80282806492824" cy="275.04155164933496" r="4" fill="#4269d0"></circle><circle cx="362.499176687437" cy="246.7476548228142" r="4" fill="#4269d0"></circle><circle cx="332.49716125565277" cy="235.0272350485167" r="4" fill="#4269d0"></circle><circle cx="293.175759150506" cy="302.1816565759466" r="4" fill="#4269d0"></circle><circle cx="343.03299468377423" cy="297.285352552792" r="4" fill="#4269d0"></circle><circle cx="313.54220258866656" cy="224.73233677489344" r="4" fill="#4269d0"></circle><circle cx="328.62658226853745" cy="279.1823577239194" r="4" fill="#4269d0"></circle><circle cx="300.5332825654406" cy="282.15730238397873" r="4" fill="#4269d0"></circle><circle cx="329.2507709970548" cy="237.84219851939733" r="4" fill="#4269d0"></circle><circle cx="360.5385881150678" cy="255.79461362003218" r="4" fill="#4269d0"></circle><circle cx="353.6473856984135" cy="286.95624515427625" r="4" fill="#4269d0"></circle><circle cx="344.4420185966539" cy="271.3844647633792" r="4" fill="#4269d0"></circle><circle cx="336.10197514510395" cy="253.42140239697437" r="4" fill="#4269d0"></circle><circle cx="365.25415466567097" cy="273.9317716796931" r="4" fill="#4269d0"></circle><circle cx="341.704023859779" cy="239.04677148752702" r="4" fill="#4269d0"></circle><circle cx="398.6490671278244" cy="230.8100324302438" r="4" fill="#4269d0"></circle><circle cx="327.6230000819905" cy="259.45226159321516" r="4" fill="#4269d0"></circle><circle cx="324.4929659683862" cy="211.20164633854847" r="4" fill="#4269d0"></circle><circle cx="320.90543050254786" cy="292.1286104431938" r="4" fill="#4269d0"></circle><circle cx="365.7781201424402" cy="337.30174575118264" r="4" fill="#4269d0"></circle><circle cx="331.4205769396318" cy="268.7423904765357" r="4" fill="#4269d0"></circle><circle cx="361.3715387433114" cy="256.0019404812907" r="4" fill="#4269d0"></circle><circle cx="328.8137313235434" cy="290.05544993575387" r="4" fill="#4269d0"></circle><circle cx="317.5036128236573" cy="275.38480827548483" r="4" fill="#4269d0"></circle><circle cx="351.66056221805945" cy="281.28562541702325" r="4" fill="#4269d0"></circle><circle cx="365.862813108861" cy="294.08668311948657" r="4" fill="#4269d0"></circle><circle cx="359.4464413840974" cy="242.7719238222233" r="4" fill="#4269d0"></circle><circle cx="348.09065688482616" cy="238.78869663944994" r="4" fill="#4269d0"></circle><circle cx="361.26608427736977" cy="328.57233212806665" r="4" fill="#4269d0"></circle><circle cx="367.3507802088011" cy="252.13219265767088" r="4" fill="#4269d0"></circle><circle cx="346.08364428771335" cy="259.2027559400449" r="4" fill="#4269d0"></circle><circle cx="309.1310312558953" cy="267.62226269462" r="4" fill="#4269d0"></circle><circle cx="341.394205177377" cy="299.0609173711888" r="4" fill="#4269d0"></circle><circle cx="304.0245689544637" cy="289.42611886065157" r="4" fill="#4269d0"></circle><circle cx="339.08555340298074" cy="301.07927027920874" r="4" fill="#4269d0"></circle><circle cx="340.92899103683106" cy="292.41036930747674" r="4" fill="#4269d0"></circle><circle cx="348.3783592375343" cy="310.9709296751601" r="4" fill="#4269d0"></circle><circle cx="362.74414832343155" cy="260.65962212281806" r="4" fill="#4269d0"></circle><circle cx="353.67872637112896" cy="164.8712405529324" r="4" fill="#efb118"></circle><circle cx="342.02066158149654" cy="141.50167833765778" r="4" fill="#efb118"></circle><circle cx="338.05369588946184" cy="109.99118018113411" r="4" fill="#efb118"></circle><circle cx="324.2821843654964" cy="178.54546091892055" r="4" fill="#efb118"></circle><circle cx="336.4930330886264" cy="97.22798568591284" r="4" fill="#efb118"></circle><circle cx="380.0632922689373" cy="208.4512622852463" r="4" fill="#efb118"></circle><circle cx="309.1330188294369" cy="150.4980461783239" r="4" fill="#efb118"></circle><circle cx="374.18253445409266" cy="117.4073141662943" r="4" fill="#efb118"></circle><circle cx="354.74837390594155" cy="206.86833739739254" r="4" fill="#efb118"></circle><circle cx="332.35216877267004" cy="114.64932785405433" r="4" fill="#efb118"></circle><circle cx="368.02731620537713" cy="179.9353602936356" r="4" fill="#efb118"></circle><circle cx="317.57602939464203" cy="111.463276207336" r="4" fill="#efb118"></circle><circle cx="361.9215552224622" cy="165.98232565510446" r="4" fill="#efb118"></circle><circle cx="395.81164680934285" cy="125.95855369069785" r="4" fill="#efb118"></circle><circle cx="370.7033829586991" cy="176.0671515141331" r="4" fill="#efb118"></circle><circle cx="355.46630267101403" cy="145.10732117978208" r="4" fill="#efb118"></circle><circle cx="312.9448710698544" cy="106.07162777289257" r="4" fill="#efb118"></circle><circle cx="363.97677482136885" cy="20" r="4" fill="#efb118"></circle><circle cx="330.4398956021286" cy="162.40700037645888" r="4" fill="#efb118"></circle><circle cx="386.7353901713108" cy="178.44284129753785" r="4" fill="#efb118"></circle><circle cx="341.21141977154866" cy="219.12350889374562" r="4" fill="#efb118"></circle><circle cx="362.48606485660724" cy="133.0700433616605" r="4" fill="#efb118"></circle><circle cx="349.84765904960085" cy="174.48080109625843" r="4" fill="#efb118"></circle><circle cx="336.4704754363283" cy="127.03755006546803" r="4" fill="#efb118"></circle><circle cx="353.7113813996218" cy="153.0004091015846" r="4" fill="#efb118"></circle><circle cx="368.59552668764854" cy="129.17049735350295" r="4" fill="#efb118"></circle><circle cx="362.37507098596484" cy="110.61789919939483" r="4" fill="#efb118"></circle><circle cx="358.2730555345443" cy="144.70541485437963" r="4" fill="#efb118"></circle><circle cx="360.3695717054902" cy="176.36093609055973" r="4" fill="#efb118"></circle><circle cx="374.37928591256633" cy="143.1406173341503" r="4" fill="#efb118"></circle><circle cx="354.7753960673548" cy="220.48865123953047" r="4" fill="#efb118"></circle><circle cx="341.26844192338183" cy="109.51271818759054" r="4" fill="#efb118"></circle><circle cx="360.3911553221403" cy="207.45290861095773" r="4" fill="#efb118"></circle><circle cx="382.0097262445131" cy="142.3669503096695" r="4" fill="#efb118"></circle><circle cx="352.10935505836005" cy="129.3838197934868" r="4" fill="#efb118"></circle><circle cx="410.0346751094708" cy="176.4628632224064" r="4" fill="#efb118"></circle><circle cx="363.29419403065253" cy="170.2224286301799" r="4" fill="#efb118"></circle><circle cx="373.4660135071762" cy="168.86882243137367" r="4" fill="#efb118"></circle><circle cx="361.0879954432896" cy="117.67844184513517" r="4" fill="#efb118"></circle><circle cx="376.6917827709737" cy="131.35914974905043" r="4" fill="#efb118"></circle><circle cx="369.8146586807008" cy="163.5120702521006" r="4" fill="#efb118"></circle><circle cx="357.73918122572843" cy="174.63816634262864" r="4" fill="#efb118"></circle><circle cx="342.5552646876005" cy="111.30681948997952" r="4" fill="#efb118"></circle><circle cx="382.0591674579705" cy="180.0503786969064" r="4" fill="#efb118"></circle><circle cx="376.3894250705771" cy="118.32198666596706" r="4" fill="#efb118"></circle><circle cx="396.2691396493303" cy="162.73026907688984" r="4" fill="#efb118"></circle><circle cx="353.80975567808275" cy="111.54181341721501" r="4" fill="#efb118"></circle><circle cx="382.6127415464485" cy="182.91657109288636" r="4" fill="#efb118"></circle><circle cx="325.9298153484511" cy="83.6592985458312" r="4" fill="#efb118"></circle><circle cx="393.07692203963836" cy="133.81674535733015" r="4" fill="#efb118"></circle><circle cx="402.7228788841404" cy="138.2762959616422" r="4" fill="#efb118"></circle><circle cx="369.00534523888575" cy="128.22212765443476" r="4" fill="#efb118"></circle><circle cx="372.17821944138785" cy="181.28790838660547" r="4" fill="#efb118"></circle><circle cx="357.42532701070127" cy="143.3513277172925" r="4" fill="#efb118"></circle><circle cx="345.4828240573625" cy="207.25636251196383" r="4" fill="#efb118"></circle><circle cx="351.47691792693536" cy="89.53370847815937" r="4" fill="#efb118"></circle><circle cx="373.263629181623" cy="168.6266645570032" r="4" fill="#efb118"></circle><circle cx="349.5863350111498" cy="161.61660290509232" r="4" fill="#efb118"></circle><circle cx="368.7110841654152" cy="136.5009835291973" r="4" fill="#efb118"></circle><circle cx="319.40049894767026" cy="178.38381852854093" r="4" fill="#efb118"></circle><circle cx="367.69110139444626" cy="123.75024979029675" r="4" fill="#efb118"></circle><circle cx="387.8500171445441" cy="168.00513866520953" r="4" fill="#efb118"></circle><circle cx="385.2731949687773" cy="184.93046001285427" r="4" fill="#efb118"></circle><circle cx="371.85458181884144" cy="75.68418590969637" r="4" fill="#efb118"></circle><circle cx="359.51530614885843" cy="203.2655736050989" r="4" fill="#efb118"></circle><circle cx="363.43396107761004" cy="139.1996490922351" r="4" fill="#efb118"></circle><circle cx="390.74868466378206" cy="148.05418935764584" r="4" fill="#efb118"></circle><circle cx="362.3246849649295" cy="133.41842904565917" r="4" fill="#efb118"></circle><circle cx="540.1019686717256" cy="233.13158177821143" r="4" fill="#ff725c"></circle><circle cx="547.9585135613199" cy="253.13042983653887" r="4" fill="#ff725c"></circle><circle cx="519.4447282821076" cy="195.69731160235852" r="4" fill="#ff725c"></circle><circle cx="551.0875896916193" cy="248.1180728380493" r="4" fill="#ff725c"></circle><circle cx="547.8687062929865" cy="262.53543617319167" r="4" fill="#ff725c"></circle><circle cx="533.0577677309249" cy="229.99704569738677" r="4" fill="#ff725c"></circle><circle cx="513.5230831131415" cy="257.73134943815757" r="4" fill="#ff725c"></circle><circle cx="527.7858466292431" cy="265.25303155611203" r="4" fill="#ff725c"></circle><circle cx="522.1456193911798" cy="263.5345389521905" r="4" fill="#ff725c"></circle><circle cx="515.8314718349062" cy="259.47120452820474" r="4" fill="#ff725c"></circle><circle cx="527.8917507874982" cy="310.3432497010834" r="4" fill="#ff725c"></circle><circle cx="517.8206072991256" cy="252.0747369547861" r="4" fill="#ff725c"></circle><circle cx="537.3202664484104" cy="250.11350930893855" r="4" fill="#ff725c"></circle><circle cx="557.4529077882781" cy="274.97196236577" r="4" fill="#ff725c"></circle><circle cx="493.04205896694106" cy="220.26029652123069" r="4" fill="#ff725c"></circle><circle cx="540.0332982292806" cy="264.6184453801104" r="4" fill="#ff725c"></circle><circle cx="510.9782266708247" cy="267.7268039774942" r="4" fill="#ff725c"></circle><circle cx="574.7825536644161" cy="291.7219430702798" r="4" fill="#ff725c"></circle><circle cx="513.613736091044" cy="246.3939210762677" r="4" fill="#ff725c"></circle><circle cx="547.7263585739017" cy="248.42136612561245" r="4" fill="#ff725c"></circle><circle cx="573.8600220523039" cy="245.7942076216642" r="4" fill="#ff725c"></circle><circle cx="529.8885198680656" cy="274.0783508045405" r="4" fill="#ff725c"></circle><circle cx="509.4402676626385" cy="223.0661517704584" r="4" fill="#ff725c"></circle><circle cx="501.6537473835229" cy="260.589224725332" r="4" fill="#ff725c"></circle><circle cx="560.1653360538498" cy="303.3424863824941" r="4" fill="#ff725c"></circle><circle cx="520.2438642036141" cy="266.0860428635672" r="4" fill="#ff725c"></circle><circle cx="543.8900280760314" cy="272.9971133484873" r="4" fill="#ff725c"></circle><circle cx="518.2714432924919" cy="210.12499712181668" r="4" fill="#ff725c"></circle><circle cx="547.8156811436836" cy="241.03427376683584" r="4" fill="#ff725c"></circle><circle cx="536.6733682916134" cy="261.38898133101236" r="4" fill="#ff725c"></circle><circle cx="510.88500056089146" cy="285.7121683462546" r="4" fill="#ff725c"></circle><circle cx="515.360275994905" cy="273.14538645353264" r="4" fill="#ff725c"></circle><circle cx="561.4913566575183" cy="145.74608647873742" r="4" fill="#ff725c"></circle><circle cx="545.5385878142208" cy="231.79150189500598" r="4" fill="#ff725c"></circle><circle cx="514.8679812368053" cy="253.7096818805865" r="4" fill="#ff725c"></circle><circle cx="539.0012916987946" cy="303.52968825406214" r="4" fill="#ff725c"></circle><circle cx="474.98415039089605" cy="297.36157808007147" r="4" fill="#ff725c"></circle><circle cx="514.9870452403821" cy="251.20707402481773" r="4" fill="#ff725c"></circle><circle cx="504.5813520336983" cy="241.95667992775498" r="4" fill="#ff725c"></circle><circle cx="496.9817497191059" cy="247.0051247837457" r="4" fill="#ff725c"></circle><circle cx="544.5082813825925" cy="256.2274501519077" r="4" fill="#ff725c"></circle><circle cx="517.5937154880496" cy="232.39948656431105" r="4" fill="#ff725c"></circle><circle cx="520.6703680798785" cy="202.19773851578174" r="4" fill="#ff725c"></circle><circle cx="537.9659992913328" cy="235.18646534120424" r="4" fill="#ff725c"></circle><circle cx="542.5421476273543" cy="289.5128182432554" r="4" fill="#ff725c"></circle><circle cx="509.8202089139049" cy="224.417626850704" r="4" fill="#ff725c"></circle><circle cx="539.195717997676" cy="228.58314824593234" r="4" fill="#ff725c"></circle><circle cx="558.4754344632075" cy="281.4923387642521" r="4" fill="#ff725c"></circle><circle cx="507.43409804101606" cy="288.23613868814874" r="4" fill="#ff725c"></circle><circle cx="525.5116771686533" cy="244.35137967998884" r="4" fill="#ff725c"></circle><circle cx="566.5228319900127" cy="247.8233487453929" r="4" fill="#ff725c"></circle><circle cx="503.00472516502765" cy="240.08652712942717" r="4" fill="#ff725c"></circle><circle cx="547.8823508368599" cy="212.92469619457546" r="4" fill="#ff725c"></circle><circle cx="536.0626024610494" cy="251.37810653672724" r="4" fill="#ff725c"></circle><circle cx="519.0125812645888" cy="279.98032529356743" r="4" fill="#ff725c"></circle><circle cx="505.515945003107" cy="251.07865534899676" r="4" fill="#ff725c"></circle><circle cx="528.3693082918671" cy="270.91581512284046" r="4" fill="#ff725c"></circle><circle cx="494.1988047718805" cy="266.6846523182302" r="4" fill="#ff725c"></circle><circle cx="556.7031735779839" cy="237.58780220818804" r="4" fill="#ff725c"></circle><circle cx="507.8611845742176" cy="226.1736203131936" r="4" fill="#ff725c"></circle><circle cx="543.9477045166691" cy="278.12388176891614" r="4" fill="#ff725c"></circle><circle cx="524.7257624501608" cy="234.1851596217317" r="4" fill="#ff725c"></circle><circle cx="572.090363527181" cy="194.82415639227773" r="4" fill="#ff725c"></circle><circle cx="537.2030862818215" cy="250.90914580087633" r="4" fill="#ff725c"></circle><circle cx="535.1249687104872" cy="255.58532578558652" r="4" fill="#ff725c"></circle><circle cx="550.6154896859089" cy="264.5598341215181" r="4" fill="#ff725c"></circle><circle cx="534.5057338281814" cy="281.47174028972466" r="4" fill="#ff725c"></circle><circle cx="562.7553370288334" cy="233.31032441759515" r="4" fill="#ff725c"></circle><circle cx="516.775981176458" cy="227.0752399821024" r="4" fill="#ff725c"></circle><circle cx="517.3225919897361" cy="259.38291367468116" r="4" fill="#ff725c"></circle><circle cx="524.2260094441342" cy="241.11241437319822" r="4" fill="#ff725c"></circle><circle cx="535.7657097994078" cy="267.14005575126424" r="4" fill="#ff725c"></circle><circle cx="512.5044015222231" cy="241.44785836259564" r="4" fill="#ff725c"></circle><circle cx="555.75712923182" cy="276.8571534225667" r="4" fill="#ff725c"></circle><circle cx="517.304485670826" cy="218.87542578927187" r="4" fill="#ff725c"></circle><circle cx="539.6860996907176" cy="250.14340284916145" r="4" fill="#ff725c"></circle><circle cx="539.4515450352234" cy="259.7541624482625" r="4" fill="#ff725c"></circle><circle cx="529.5519986285558" cy="326.05617681696174" r="4" fill="#ff725c"></circle><circle cx="519.9840194477131" cy="200.4952656946959" r="4" fill="#ff725c"></circle><circle cx="544.288615899348" cy="203.35251046676674" r="4" fill="#ff725c"></circle><circle cx="517.2288444130844" cy="228.018985095375" r="4" fill="#ff725c"></circle><circle cx="534.5469748206967" cy="232.0333048741461" r="4" fill="#ff725c"></circle><circle cx="532.7859257094981" cy="262.33901611724843" r="4" fill="#ff725c"></circle><circle cx="517.5032276043931" cy="236.1350069774272" r="4" fill="#ff725c"></circle><circle cx="522.0835133051276" cy="276.5224585378795" r="4" fill="#ff725c"></circle><circle cx="565.7433958481687" cy="210.23356136841326" r="4" fill="#ff725c"></circle><circle cx="537.1631408337262" cy="234.8526789855307" r="4" fill="#ff725c"></circle><circle cx="530.0487853619123" cy="217.45845024958294" r="4" fill="#ff725c"></circle><circle cx="526.8278530320457" cy="241.18469289732997" r="4" fill="#ff725c"></circle><circle cx="518.9142230384712" cy="207.27441182482764" r="4" fill="#ff725c"></circle><circle cx="516.6226789578112" cy="254.25365924046125" r="4" fill="#ff725c"></circle><circle cx="538.1946872551861" cy="254.40748036720402" r="4" fill="#ff725c"></circle><circle cx="516.8513669216646" cy="273.4746742664611" r="4" fill="#ff725c"></circle><circle cx="540.3689737592215" cy="214.57304139292617" r="4" fill="#ff725c"></circle><circle cx="506.0071545914459" cy="213.82526638453223" r="4" fill="#ff725c"></circle><circle cx="541.1940569465559" cy="246.98942890892414" r="4" fill="#ff725c"></circle><circle cx="502.88181881151814" cy="205.66390001994338" r="4" fill="#ff725c"></circle><circle cx="520.696195699347" cy="212.5840590787111" r="4" fill="#ff725c"></circle><circle cx="527.6804374437148" cy="223.24133538332674" r="4" fill="#ff725c"></circle><circle cx="535.4107475564892" cy="169.45682872258956" r="4" fill="#ff725c"></circle><circle cx="508.54212388968995" cy="244.93017314608755" r="4" fill="#ff725c"></circle><circle cx="567.9533810634022" cy="253.84959080928195" r="4" fill="#ff725c"></circle><circle cx="509.68741268224403" cy="277.7837106844447" r="4" fill="#ff725c"></circle><circle cx="498.2236515010441" cy="300.39886823001945" r="4" fill="#ff725c"></circle><circle cx="538.737070117989" cy="193.25629686414206" r="4" fill="#ff725c"></circle><circle cx="510.8448797443752" cy="272.1611735296204" r="4" fill="#ff725c"></circle><circle cx="525.0977797088435" cy="258.4034933877522" r="4" fill="#ff725c"></circle><circle cx="525.5806296176249" cy="203.5922934635087" r="4" fill="#ff725c"></circle><circle cx="563.5055559376796" cy="268.67657059730095" r="4" fill="#ff725c"></circle><circle cx="493.93317827447066" cy="275.3612634174365" r="4" fill="#ff725c"></circle><circle cx="544.6050329722311" cy="222.89497713517014" r="4" fill="#ff725c"></circle><circle cx="526.0283739137936" cy="227.59169122593872" r="4" fill="#ff725c"></circle><circle cx="570.6870309375211" cy="194.39874155530106" r="4" fill="#ff725c"></circle><circle cx="541.4903744913566" cy="281.18647931395157" r="4" fill="#ff725c"></circle><circle cx="549.6432131658387" cy="242.42325715909328" r="4" fill="#ff725c"></circle><circle cx="533.5214176387886" cy="243.93855909582726" r="4" fill="#ff725c"></circle><circle cx="549.158471879973" cy="247.1566428547732" r="4" fill="#ff725c"></circle><circle cx="523.0166024024606" cy="281.9228826590774" r="4" fill="#ff725c"></circle><circle cx="508.7936033304029" cy="231.00099446091707" r="4" fill="#ff725c"></circle></g><g aria-label="arrow" fill="none" stroke="red" stroke-width="2" stroke-linecap="round" stroke-miterlimit="1" transform="translate(0.5,0.5)"><path d="M407.6161497208293,239.4121830645037L491.83052487647365,27.31865082372175M483.464636858019,33.936029114287756L491.83052487647365,27.31865082372175L493.3783985733281,37.87241151820236"></path><path d="M407.6161497208293,239.4121830645037L40,237.5014346577116M49.209758982570904,242.88270934506332L40,237.5014346577116L49.2652000752742,232.21618675974912"></path><path d="M407.6161497208293,239.4121830645037L620,257.9996476905005M611.2625578862048,251.88124241740394L620,257.9996476905005L610.332584545952,262.50729188859486"></path><path d="M407.6161497208293,239.4121830645037L602.0523294370123,365.7661989683015M597.2127096399594,356.2606291275318L602.0523294370123,365.7661989683015L591.400454578932,365.2046477368226"></path></g><g aria-label="text" fill="darkred" font-size="10" transform="translate(5.5,5.5)"><text y="0.32em" transform="translate(491.83052487647365,27.31865082372175)">Beak Length (mm)</text><text y="0.32em" transform="translate(40,237.5014346577116)">Beak Depth (mm)</text><text y="0.32em" transform="translate(620,257.9996476905005)">Flipper Length (mm)</text><text y="0.32em" transform="translate(602.0523294370123,365.7661989683015)">Body Mass (g)</text></g></svg>