<svg class="plot-d6a7b5" fill="currentColor" font-family="system-ui, sans-serif" font-size="10" text-anchor="middle" width="640" height="400" viewBox="0 0 640 400"><style>:where(.plot-d6a7b5) {
  --plot-background: white;
  display: block;
  height: auto;
  height: intrinsic;
  max-width: 100%;
}
:where(.plot-d6a7b5 text),
:where(.plot-d6a7b5 tspan) {
  white-space: pre;
}</style><g aria-label="y-grid" aria-hidden="true" stroke="currentColor" stroke-opacity="0.1" transform="translate(0,0.5)"><line x1="40" x2="620" y1="347.2688303036828" y2="347.2688303036828"></line><line x1="40" x2="620" y1="308.4022040428998" y2="308.4022040428998"></line><line x1="40" x2="620" y1="269.53557778211683" y2="269.53557778211683"></line><line x1="40" x2="620" y1="230.66895152133372" y2="230.66895152133372"></line><line x1="40" x2="620" y1="191.80232526055076" y2="191.80232526055076"></line><line x1="40" x2="620" y1="152.93569899976774" y2="152.93569899976774"></line><line x1="40" x2="620" y1="114.06907273898472" y2="114.06907273898472"></line><line x1="40" x2="620" y1="75.20244647820167" y2="75.20244647820167"></line><line x1="40" x2="620" y1="36.33582021741863" y2="36.33582021741863"></line></g><g aria-label="y-axis tick" aria-hidden="true" fill="none" stroke="currentColor" transform="translate(0,0.5)"><path transform="translate(40,347.2688303036828)" d="M0,0L-6,0"></path><path transform="translate(40,308.4022040428998)" d="M0,0L-6,0"></path><path transform="translate(40,269.53557778211683)" d="M0,0L-6,0"></path><path transform="translate(40,230.66895152133372)" d="M0,0L-6,0"></path><path transform="translate(40,191.80232526055076)" d="M0,0L-6,0"></path><path transform="translate(40,152.93569899976774)" d="M0,0L-6,0"></path><path transform="translate(40,114.06907273898472)" d="M0,0L-6,0"></path><path transform="translate(40,75.20244647820167)" d="M0,0L-6,0"></path><path transform="translate(40,36.33582021741863)" d="M0,0L-6,0"></path></g><g aria-label="y-axis tick label" text-anchor="end" font-variant="tabular-nums" transform="translate(-8.5,0.5)"><text y="0.32em" transform="translate(40,347.2688303036828)">−1.5</text><text y="0.32em" transform="translate(40,308.4022040428998)">−1.0</text><text y="0.32em" transform="translate(40,269.53557778211683)">−0.5</text><text y="0.32em" transform="translate(40,230.66895152133372)">0.0</text><text y="0.32em" transform="translate(40,191.80232526055076)">0.5</text><text y="0.32em" transform="translate(40,152.93569899976774)">1.0</text><text y="0.32em" transform="translate(40,114.06907273898472)">1.5</text><text y="0.32em" transform="translate(40,75.20244647820167)">2.0</text><text y="0.32em" transform="translate(40,36.33582021741863)">2.5</text></g><g aria-label="y-axis label" text-anchor="start" transform="translate(-36.5,-16.5)"><text y="0.71em" transform="translate(40,20)">↑ RDA2</text></g><g aria-label="x-grid" aria-hidden="true" stroke="currentColor" stroke-opacity="0.1" transform="translate(0.5,0)"><line x1="104.58358763712602" x2="104.58358763712602" y1="20" y2="370"></line><line x1="216.75928603963686" x2="216.75928603963686" y1="20" y2="370"></line><line x1="328.9349844421477" x2="328.9349844421477" y1="20" y2="370"></line><line x1="441.1106828446586" x2="441.1106828446586" y1="20" y2="370"></line><line x1="553.2863812471694" x2="553.2863812471694" y1="20" y2="370"></line></g><g aria-label="x-axis tick" aria-hidden="true" fill="none" stroke="currentColor" transform="translate(0.5,0)"><path transform="translate(104.58358763712602,370)" d="M0,0L0,6"></path><path transform="translate(216.75928603963686,370)" d="M0,0L0,6"></path><path transform="translate(328.9349844421477,370)" d="M0,0L0,6"></path><path transform="translate(441.1106828446586,370)" d="M0,0L0,6"></path><path transform="translate(553.2863812471694,370)" d="M0,0L0,6"></path></g><g aria-label="x-axis tick label" font-variant="tabular-nums" transform="translate(0.5,9.5)"><text y="0.71em" transform="translate(104.58358763712602,370)">−2</text><text y="0.71em" transform="translate(216.75928603963686,370)">−1</text><text y="0.71em" transform="translate(328.9349844421477,370)">0</text><text y="0.71em" transform="translate(441.1106828446586,370)">1</text><text y="0.71em" transform="translate(553.2863812471694,370)">2</text></g><g aria-label="x-axis label" text-anchor="end" transform="translate(17.5,27.5)"><text transform="translate(620,370)">RDA1 →</text></g><g aria-label="dot" fill-opacity="0.7" transform="translate(0.5,0.5)"><circle cx="378.37419156494923" cy="316.67227539658154" r="4" fill="#4269d0"></circle><circle cx="352.40789061008275" cy="279.8552701762554" r="4" fill="#4269d0"></circle><circle cx="390.831187449577" cy="264.4058622642689" r="4" fill="#4269d0"></circle><circle cx="376.5042623764739" cy="308.569853918586" r="4" fill="#4269d0"></circle><circle cx="412.49679162209816" cy="318.22098081448667" r="4" fill="#4269d0"></circle><circle cx="378.5115299710667" cy="288.21470783483466" r="4" fill="#4269d0"></circle><circle cx="309.209224442713" cy="323.01654886881863" r="4" fill="#4269d0"></circle><circle cx="421.85483933307205" cy="260.8958224505222" r="4" fill="#4269d0"></circle><circle cx="407.68905129971387" cy="328.9931531349935" r="4" fill="#4269d0"></circle><circle cx="309.2407483433009" cy="370" r="4" fill="#4269d0"></circle><circle cx="340.98848000145216" cy="309.12453624238816" r="4" fill="#4269d0"></circle><circle cx="385.36749653165066" cy="286.83854643596226" r="4" fill="#4269d0"></circle><circle cx="376.56119665724873" cy="293.6244345249283" r="4" fill="#4269d0"></circle><circle cx="359.55125655010227" cy="329.6077359732189" r="4" fill="#4269d0"></circle><circle cx="458.13377212477604" cy="262.0524293850974" r="4" fill="#4269d0"></circle><circle cx="380.21295523736734" cy="298.2345271401383" r="4" fill="#4269d0"></circle><circle cx="346.60381628287894" cy="324.9031317408932" r="4" fill="#4269d0"></circle><circle cx="322.549197389583" cy="317.56289607342757" r="4" fill="#4269d0"></circle><circle cx="303.2231613737968" cy="318.45745321979206" r="4" fill="#4269d0"></circle><circle cx="308.75489793305104" cy="309.2503775001072" r="4" fill="#4269d0"></circle><circle cx="313.646458824888" cy="322.9144756857511" r="4" fill="#4269d0"></circle><circle cx="370.5589552353945" cy="294.413764064847" r="4" fill="#4269d0"></circle><circle cx="382.27065028721165" cy="261.44061168344535" r="4" fill="#4269d0"></circle><circle cx="409.28255715898047" cy="297.0090911085439" r="4" fill="#4269d0"></circle><circle cx="357.33527465764695" cy="302.75322407532167" r="4" fill="#4269d0"></circle><circle cx="439.43169202096107" cy="242.0508389811724" r="4" fill="#4269d0"></circle><circle cx="391.30623047645145" cy="302.7494222333345" r="4" fill="#4269d0"></circle><circle cx="440.20424782972907" cy="242.78601658508677" r="4" fill="#4269d0"></circle><circle cx="435.1464928073767" cy="267.92035230781863" r="4" fill="#4269d0"></circle><circle cx="371.7466300785597" cy="265.4387994204291" r="4" fill="#4269d0"></circle><circle cx="427.3478866328421" cy="291.5077886914496" r="4" fill="#4269d0"></circle><circle cx="423.29466510780105" cy="290.92510407363153" r="4" fill="#4269d0"></circle><circle cx="486.41319711251884" cy="227.0284692289515" r="4" fill="#4269d0"></circle><circle cx="472.45410389554365" cy="271.92663960049674" r="4" fill="#4269d0"></circle><circle cx="379.6324971108308" cy="287.6996122326886" r="4" fill="#4269d0"></circle><circle cx="437.42503089762727" cy="274.069370316693" r="4" fill="#4269d0"></circle><circle cx="397.4199123850373" cy="260.8167406111155" r="4" fill="#4269d0"></circle><circle cx="438.6107446185304" cy="278.6995672823679" r="4" fill="#4269d0"></circle><circle cx="427.7134063799189" cy="240.30576394153758" r="4" fill="#4269d0"></circle><circle cx="419.175882520496" cy="260.7501536115079" r="4" fill="#4269d0"></circle><circle cx="360.1700798328848" cy="284.54505597330166" r="4" fill="#4269d0"></circle><circle cx="475.1367730868983" cy="262.29802352782065" r="4" fill="#4269d0"></circle><circle cx="392.3310732929386" cy="277.58061665508893" r="4" fill="#4269d0"></circle><circle cx="472.84459608637434" cy="264.71606525337677" r="4" fill="#4269d0"></circle><circle cx="350.84058410150084" cy="272.93950107228176" r="4" fill="#4269d0"></circle><circle cx="312.40799498455567" cy="306.33371560915134" r="4" fill="#4269d0"></circle><circle cx="302.6472891869757" cy="315.5876382600732" r="4" fill="#4269d0"></circle><circle cx="335.8092760383093" cy="282.0437693966337" r="4" fill="#4269d0"></circle><circle cx="344.98935814885425" cy="316.8788557314535" r="4" fill="#4269d0"></circle><circle cx="351.04201878066806" cy="284.2496412030289" r="4" fill="#4269d0"></circle><circle cx="336.5910600360605" cy="278.2961585451015" r="4" fill="#4269d0"></circle><circle cx="336.6070506307696" cy="292.98792753844634" r="4" fill="#4269d0"></circle><circle cx="346.18889853826" cy="292.9017987804076" r="4" fill="#4269d0"></circle><circle cx="314.00055194515585" cy="322.25745016576377" r="4" fill="#4269d0"></circle><circle cx="316.6042480545928" cy="303.28966049356967" r="4" fill="#4269d0"></circle><circle cx="355.4463670449992" cy="302.92651426772" r="4" fill="#4269d0"></circle><circle cx="309.1395889262955" cy="290.41630584269063" r="4" fill="#4269d0"></circle><circle cx="313.2170970471472" cy="288.52640710382116" r="4" fill="#4269d0"></circle><circle cx="350.46282414572954" cy="294.7429261995" r="4" fill="#4269d0"></circle><circle cx="320.0819660800919" cy="281.64927860668564" r="4" fill="#4269d0"></circle><circle cx="262.20940874033624" cy="298.8873058146597" r="4" fill="#4269d0"></circle><circle cx="340.5736872522417" cy="295.48191027264437" r="4" fill="#4269d0"></circle><circle cx="336.1847023363948" cy="300.3650403211841" r="4" fill="#4269d0"></circle><circle cx="339.110130473206" cy="293.01284657285123" r="4" fill="#4269d0"></circle><circle cx="333.3049358738282" cy="341.10857326078417" r="4" fill="#4269d0"></circle><circle cx="347.3400695296939" cy="306.46883691832676" r="4" fill="#4269d0"></circle><circle cx="342.5366571566436" cy="270.0501449005746" r="4" fill="#4269d0"></circle><circle cx="390.0612487916647" cy="249.31205331993587" r="4" fill="#4269d0"></circle><circle cx="311.24614266009974" cy="315.69552406234516" r="4" fill="#4269d0"></circle><circle cx="347.5376250893202" cy="278.3801247460976" r="4" fill="#4269d0"></circle><circle cx="347.69078678082116" cy="259.8121358239218" r="4" fill="#4269d0"></circle><circle cx="359.14748391182576" cy="338.4533107778181" r="4" fill="#4269d0"></circle><circle cx="301.29108963679215" cy="302.0802461197" r="4" fill="#4269d0"></circle><circle cx="371.11351578334995" cy="285.2803853147158" r="4" fill="#4269d0"></circle><circle cx="329.6922005502138" cy="317.9400180828965" r="4" fill="#4269d0"></circle><circle cx="295.26074833484233" cy="277.4838622638132" r="4" fill="#4269d0"></circle><circle cx="355.05631136803305" cy="313.0687948420035" r="4" fill="#4269d0"></circle><circle cx="297.763860402195" cy="357.33748548415673" r="4" fill="#4269d0"></circle><circle cx="407.5859046362758" cy="262.9725144472628" r="4" fill="#4269d0"></circle><circle cx="473.39135530766123" cy="261.87077868151385" r="4" fill="#4269d0"></circle><circle cx="395.35965404835366" cy="310.92846150682294" r="4" fill="#4269d0"></circle><circle cx="417.402820959796" cy="273.36442777618254" r="4" fill="#4269d0"></circle><circle cx="401.1477097555625" cy="292.38189642376835" r="4" fill="#4269d0"></circle><circle cx="434.00332518947295" cy="255.6615766473014" r="4" fill="#4269d0"></circle><circle cx="358.2059740374173" cy="275.88769850676135" r="4" fill="#4269d0"></circle><circle cx="344.72010263947556" cy="255.7287041273307" r="4" fill="#4269d0"></circle><circle cx="366.9972737638645" cy="294.98284180838317" r="4" fill="#4269d0"></circle><circle cx="362.10132127721926" cy="281.56802469842296" r="4" fill="#4269d0"></circle><circle cx="396.482369993832" cy="272.6485871891779" r="4" fill="#4269d0"></circle><circle cx="354.1553696632321" cy="260.9463825485245" r="4" fill="#4269d0"></circle><circle cx="414.42953316174703" cy="263.49172513242337" r="4" fill="#4269d0"></circle><circle cx="363.033052246387" cy="270.53387307809624" r="4" fill="#4269d0"></circle><circle cx="382.0568218553267" cy="296.92163199285125" r="4" fill="#4269d0"></circle><circle cx="418.1627222416957" cy="241.92948871409467" r="4" fill="#4269d0"></circle><circle cx="280.1901660697293" cy="317.5757204534814" r="4" fill="#4269d0"></circle><circle cx="286.7153053164234" cy="299.94909892283107" r="4" fill="#4269d0"></circle><circle cx="324.9032676045586" cy="279.88731243765216" r="4" fill="#4269d0"></circle><circle cx="314.0050873357914" cy="332.2211207131125" r="4" fill="#4269d0"></circle><circle cx="376.89287371312736" cy="283.76063065642614" r="4" fill="#4269d0"></circle><circle cx="366.27949896052377" cy="304.01553821244295" r="4" fill="#4269d0"></circle><circle cx="283.03583612000176" cy="276.21385192893285" r="4" fill="#4269d0"></circle><circle cx="340.99178464873506" cy="324.53330949309407" r="4" fill="#4269d0"></circle><circle cx="351.02634367813016" cy="282.99724312053274" r="4" fill="#4269d0"></circle><circle cx="295.46617866992204" cy="277.56175819153464" r="4" fill="#4269d0"></circle><circle cx="258.3934247182178" cy="278.97663498065447" r="4" fill="#4269d0"></circle><circle cx="376.3158573977875" cy="261.9084106992418" r="4" fill="#4269d0"></circle><circle cx="355.7766860447237" cy="265.09393872576027" r="4" fill="#4269d0"></circle><circle cx="329.88928485844104" cy="284.12543538160753" r="4" fill="#4269d0"></circle><circle cx="385.66643291399635" cy="289.2700112698962" r="4" fill="#4269d0"></circle><circle cx="321.47206757209193" cy="271.82797073747327" r="4" fill="#4269d0"></circle><circle cx="387.8612959695709" cy="275.6904506588631" r="4" fill="#4269d0"></circle><circle cx="361.1722065596675" cy="333.7401705544652" r="4" fill="#4269d0"></circle><circle cx="326.38881524861995" cy="308.0277432615165" r="4" fill="#4269d0"></circle><circle cx="406.3688480441792" cy="288.1685524030337" r="4" fill="#4269d0"></circle><circle cx="353.8980638948149" cy="303.01608077960526" r="4" fill="#4269d0"></circle><circle cx="368.6580816823551" cy="324.00182945311985" r="4" fill="#4269d0"></circle><circle cx="395.2812999322636" cy="272.478653032301" r="4" fill="#4269d0"></circle><circle cx="341.95040781447074" cy="284.1522524400978" r="4" fill="#4269d0"></circle><circle cx="321.1148220515667" cy="305.77114466982175" r="4" fill="#4269d0"></circle><circle cx="344.3124646017258" cy="297.18292232780664" r="4" fill="#4269d0"></circle><circle cx="373.11892538836514" cy="279.23857605420784" r="4" fill="#4269d0"></circle><circle cx="326.0898761277407" cy="290.47542032518544" r="4" fill="#4269d0"></circle><circle cx="377.8499444876807" cy="272.42779489031244" r="4" fill="#4269d0"></circle><circle cx="331.57536466755755" cy="253.00474779835014" r="4" fill="#4269d0"></circle><circle cx="376.2268894796906" cy="284.6393704427753" r="4" fill="#4269d0"></circle><circle cx="411.9938637600796" cy="269.6290130792043" r="4" fill="#4269d0"></circle><circle cx="404.99821957045026" cy="271.7896885767373" r="4" fill="#4269d0"></circle><circle cx="319.34335358258846" cy="297.31859521855466" r="4" fill="#4269d0"></circle><circle cx="415.06930540435076" cy="257.17963847018206" r="4" fill="#4269d0"></circle><circle cx="390.06379858435156" cy="256.1421501685082" r="4" fill="#4269d0"></circle><circle cx="394.3232371880427" cy="275.9679721539563" r="4" fill="#4269d0"></circle><circle cx="416.03756317802373" cy="273.07150311586156" r="4" fill="#4269d0"></circle><circle cx="383.41085483123595" cy="263.2005125523274" r="4" fill="#4269d0"></circle><circle cx="355.6901739311609" cy="273.85131014414566" r="4" fill="#4269d0"></circle><circle cx="412.8123976266642" cy="231.1904417523916" r="4" fill="#4269d0"></circle><circle cx="412.2068250172134" cy="256.3850725227919" r="4" fill="#4269d0"></circle><circle cx="325.1090644472657" cy="300.15615411069695" r="4" fill="#4269d0"></circle><circle cx="385.35727835215914" cy="255.65551036335404" r="4" fill="#4269d0"></circle><circle cx="404.1568341153172" cy="253.784519183303" r="4" fill="#4269d0"></circle><circle cx="424.8920576629919" cy="281.98921341129454" r="4" fill="#4269d0"></circle><circle cx="374.11824967345126" cy="283.5910615602398" r="4" fill="#4269d0"></circle><circle cx="422.35256281287656" cy="277.5779235344168" r="4" fill="#4269d0"></circle><circle cx="378.7122169508801" cy="274.5297999082604" r="4" fill="#4269d0"></circle><circle cx="373.64044243803113" cy="287.62772478482407" r="4" fill="#4269d0"></circle><circle cx="363.47269135389297" cy="277.99175518913825" r="4" fill="#4269d0"></circle><circle cx="387.03342832268294" cy="252.57768636133218" r="4" fill="#4269d0"></circle><circle cx="492.5516688673158" cy="176.02238097860354" r="4" fill="#efb118"></circle><circle cx="516.248497118762" cy="177.0595290548148" r="4" fill="#efb118"></circle><circle cx="545.464531741264" cy="161.89310528691323" r="4" fill="#efb118"></circle><circle cx="507.8245865789198" cy="192.80934773763167" r="4" fill="#efb118"></circle><circle cx="560.4251961387537" cy="150.08686964767094" r="4" fill="#efb118"></circle><circle cx="433.913417281196" cy="189.90625544867277" r="4" fill="#efb118"></circle><circle cx="543.3905551176227" cy="185.77123740934076" r="4" fill="#efb118"></circle><circle cx="505.8990523361801" cy="156.09835769237773" r="4" fill="#efb118"></circle><circle cx="462.26306533062575" cy="191.25902436701423" r="4" fill="#efb118"></circle><circle cx="547.82598205726" cy="163.26038992285285" r="4" fill="#efb118"></circle><circle cx="469.3256278815902" cy="177.3515565227562" r="4" fill="#efb118"></circle><circle cx="565.6320656579094" cy="164.22061594997504" r="4" fill="#efb118"></circle><circle cx="485.88478433147884" cy="174.09318446953708" r="4" fill="#efb118"></circle><circle cx="482.11520001923265" cy="150.11131283455128" r="4" fill="#efb118"></circle><circle cx="466.7175200512786" cy="179.7774996347478" r="4" fill="#efb118"></circle><circle cx="502.78031788914035" cy="171.80738077810724" r="4" fill="#efb118"></circle><circle cx="568.3324270175841" cy="169.49884598002217" r="4" fill="#efb118"></circle><circle cx="620" cy="72.67266950036515" r="4" fill="#efb118"></circle><circle cx="516.1180754614845" cy="180.8499012484024" r="4" fill="#efb118"></circle><circle cx="446.3103036280316" cy="184.4672578408051" r="4" fill="#efb118"></circle><circle cx="454.0877193208438" cy="219.33299161851312" r="4" fill="#efb118"></circle><circle cx="496.59306889669233" cy="178.91004540778732" r="4" fill="#efb118"></circle><circle cx="477.7637306078572" cy="197.49068581311028" r="4" fill="#efb118"></circle><circle cx="533.2753947460337" cy="171.24372479635096" r="4" fill="#efb118"></circle><circle cx="500.9511152775694" cy="170.36414756673219" r="4" fill="#efb118"></circle><circle cx="506.20415794665263" cy="157.6149818424572" r="4" fill="#efb118"></circle><circle cx="534.3090265895715" cy="134.73093586466373" r="4" fill="#efb118"></circle><circle cx="496.6419194476782" cy="176.30414075180013" r="4" fill="#efb118"></circle><circle cx="478.28940234236484" cy="179.2073799393573" r="4" fill="#efb118"></circle><circle cx="494.40898377321537" cy="155.02910760565973" r="4" fill="#efb118"></circle><circle cx="434.50662656878154" cy="222.9209203396306" r="4" fill="#efb118"></circle><circle cx="553.3618250696688" cy="144.73459758448942" r="4" fill="#efb118"></circle><circle cx="443.5628075796139" cy="209.646558414084" r="4" fill="#efb118"></circle><circle cx="480.921190297228" cy="162.6454682189088" r="4" fill="#efb118"></circle><circle cx="513.3579787502151" cy="172.8182592542748" r="4" fill="#efb118"></circle><circle cx="434.52986346721974" cy="161.866015727186" r="4" fill="#efb118"></circle><circle cx="483.8859902717655" cy="169.66497628899796" r="4" fill="#efb118"></circle><circle cx="475.47336224006875" cy="166.29035629080818" r="4" fill="#efb118"></circle><circle cx="517.6691559087699" cy="157.1124319483515" r="4" fill="#efb118"></circle><circle cx="502.46884858006285" cy="147.2585617173482" r="4" fill="#efb118"></circle><circle cx="471.3016672877727" cy="180.0465113091646" r="4" fill="#efb118"></circle><circle cx="481.25271301460367" cy="181.18697328770622" r="4" fill="#efb118"></circle><circle cx="538.752814175369" cy="162.6234371299052" r="4" fill="#efb118"></circle><circle cx="451.6442679614908" cy="179.2416695149604" r="4" fill="#efb118"></circle><circle cx="517.390649776828" cy="133.53014776147108" r="4" fill="#efb118"></circle><circle cx="453.2582971580343" cy="167.98355835837285" r="4" fill="#efb118"></circle><circle cx="540.5915213357035" cy="141.29702610403507" r="4" fill="#efb118"></circle><circle cx="446.34908812098075" cy="183.34058420415755" r="4" fill="#efb118"></circle><circle cx="575.0877005825511" cy="156.2442334508697" r="4" fill="#efb118"></circle><circle cx="487.1580537196327" cy="140.19015463486684" r="4" fill="#efb118"></circle><circle cx="468.653572246445" cy="147.85116528623303" r="4" fill="#efb118"></circle><circle cx="504.1344888234429" cy="159.14463416269012" r="4" fill="#efb118"></circle><circle cx="461.111334576707" cy="181.40414673110922" r="4" fill="#efb118"></circle><circle cx="502.7578003506806" cy="169.3389676263012" r="4" fill="#efb118"></circle><circle cx="457.99876178141074" cy="212.54901007184807" r="4" fill="#efb118"></circle><circle cx="549.195660784774" cy="147.04785103615754" r="4" fill="#efb118"></circle><circle cx="466.4863703301742" cy="180.02093511140083" r="4" fill="#efb118"></circle><circle cx="493.1733352923344" cy="183.7837277247588" r="4" fill="#efb118"></circle><circle cx="494.5430140198484" cy="167.57118883806353" r="4" fill="#efb118"></circle><circle cx="513.2677320621829" cy="191.1897264004954" r="4" fill="#efb118"></circle><circle cx="510.09317589470913" cy="154.18295614057698" r="4" fill="#efb118"></circle><circle cx="458.87755080873916" cy="169.54674841689405" r="4" fill="#efb118"></circle><circle cx="446.1405796080972" cy="179.47425681976284" r="4" fill="#efb118"></circle><circle cx="551.9053437728331" cy="118.12509196998899" r="4" fill="#efb118"></circle><circle cx="450.62365493724405" cy="199.63926117691523" r="4" fill="#efb118"></circle><circle cx="495.7541240582215" cy="174.79136442737868" r="4" fill="#efb118"></circle><circle cx="467.9785297814197" cy="161.94437255263455" r="4" fill="#efb118"></circle><circle cx="518.4199536710319" cy="144.20822316804288" r="4" fill="#efb118"></circle><circle cx="187.99462190893905" cy="186.72598827173516" r="4" fill="#ff725c"></circle><circle cx="165.973898666031" cy="192.2380441596383" r="4" fill="#ff725c"></circle><circle cx="241.89502218427282" cy="166.01568762821927" r="4" fill="#ff725c"></circle><circle cx="166.41885616962543" cy="193.07786231635387" r="4" fill="#ff725c"></circle><circle cx="151.23079343663022" cy="211.0468206420866" r="4" fill="#ff725c"></circle><circle cx="198.30081089640387" cy="185.38814455403468" r="4" fill="#ff725c"></circle><circle cx="194.87449648427878" cy="203.52600861394944" r="4" fill="#ff725c"></circle><circle cx="165.32410972223258" cy="219.33439626583407" r="4" fill="#ff725c"></circle><circle cx="175.03411720370016" cy="214.5785228261105" r="4" fill="#ff725c"></circle><circle cx="180.99634338925264" cy="220.36096962619666" r="4" fill="#ff725c"></circle><circle cx="130.02144072579935" cy="239.3074051251718" r="4" fill="#ff725c"></circle><circle cx="192.07765147232482" cy="206.44049807339604" r="4" fill="#ff725c"></circle><circle cx="177.32406147185725" cy="195.02492614112447" r="4" fill="#ff725c"></circle><circle cx="136.93978363300812" cy="209.78958436546165" r="4" fill="#ff725c"></circle><circle cx="240.44192798061303" cy="193.6107831592908" r="4" fill="#ff725c"></circle><circle cx="163.69026907031193" cy="204.39312261544723" r="4" fill="#ff725c"></circle><circle cx="178.1675662140472" cy="224.32263423881005" r="4" fill="#ff725c"></circle><circle cx="112.25300771403187" cy="205.81690819590418" r="4" fill="#ff725c"></circle><circle cx="205.18019244579455" cy="196.36779589965803" r="4" fill="#ff725c"></circle><circle cx="164.54786661633366" cy="199.21791328264587" r="4" fill="#ff725c"></circle><circle cx="146.82156055154172" cy="186.79885965648833" r="4" fill="#ff725c"></circle><circle cx="167.34273029962418" cy="206.0692579440546" r="4" fill="#ff725c"></circle><circle cx="225.43591301403296" cy="187.0408215840724" r="4" fill="#ff725c"></circle><circle cx="192.01398820093794" cy="226.01291865292245" r="4" fill="#ff725c"></circle><circle cx="111.03584463137517" cy="220.47544764801913" r="4" fill="#ff725c"></circle><circle cx="169.84777366988948" cy="225.1002160644999" r="4" fill="#ff725c"></circle><circle cx="148.9792295676998" cy="214.28103437908447" r="4" fill="#ff725c"></circle><circle cx="231.7625208736537" cy="173.44098196443753" r="4" fill="#ff725c"></circle><circle cx="174.14259977957795" cy="190.89027682051906" r="4" fill="#ff725c"></circle><circle cx="161.4986661133363" cy="212.56634170293782" r="4" fill="#ff725c"></circle><circle cx="169.53467326185444" cy="226.55076633734114" r="4" fill="#ff725c"></circle><circle cx="182.0156803820976" cy="210.72474346932609" r="4" fill="#ff725c"></circle><circle cx="258.66093215241085" cy="107.04579031940897" r="4" fill="#ff725c"></circle><circle cx="194.67766028463106" cy="168.09140302192807" r="4" fill="#ff725c"></circle><circle cx="191.55233480537277" cy="209.4858001186331" r="4" fill="#ff725c"></circle><circle cx="130.13962317396653" cy="226.7445511480767" r="4" fill="#ff725c"></circle><circle cx="186.5250144108515" cy="251.69864045615412" r="4" fill="#ff725c"></circle><circle cx="192.55453190646458" cy="208.77261772745456" r="4" fill="#ff725c"></circle><circle cx="210.37983994838913" cy="209.30817439124007" r="4" fill="#ff725c"></circle><circle cx="207.73345054485347" cy="217.3856465836794" r="4" fill="#ff725c"></circle><circle cx="165.85551417100265" cy="197.2045434810631" r="4" fill="#ff725c"></circle><circle cx="207.11114291104101" cy="195.1667502838589" r="4" fill="#ff725c"></circle><circle cx="224.06375893232223" cy="186.57270775584584" r="4" fill="#ff725c"></circle><circle cx="189.23499760286572" cy="187.95258562368736" r="4" fill="#ff725c"></circle><circle cx="139.53212742855533" cy="215.4835834857237" r="4" fill="#ff725c"></circle><circle cx="220.5150278849334" cy="193.11257731839524" r="4" fill="#ff725c"></circle><circle cx="192.3101760508336" cy="184.76784322411822" r="4" fill="#ff725c"></circle><circle cx="134.3640672461077" cy="204.31284140145874" r="4" fill="#ff725c"></circle><circle cx="164.3643305472041" cy="239.34303630104318" r="4" fill="#ff725c"></circle><circle cx="196.56528164142568" cy="191.10067060264632" r="4" fill="#ff725c"></circle><circle cx="146.1840851297727" cy="196.78448310872292" r="4" fill="#ff725c"></circle><circle cx="215.3611892398438" cy="201.57460073596857" r="4" fill="#ff725c"></circle><circle cx="192.6840316003117" cy="179.87948937124887" r="4" fill="#ff725c"></circle><circle cx="181.38330669024845" cy="189.9850781888451" r="4" fill="#ff725c"></circle><circle cx="157.80902280800822" cy="234.02548970313816" r="4" fill="#ff725c"></circle><circle cx="200.98350560042616" cy="211.6010028904733" r="4" fill="#ff725c"></circle><circle cx="156.59427482934626" cy="226.7290431591641" r="4" fill="#ff725c"></circle><circle cx="199.4466559153659" cy="221.9239275851439" r="4" fill="#ff725c"></circle><circle cx="169.2855799687265" cy="184.98596663098587" r="4" fill="#ff725c"></circle><circle cx="220.53754542339303" cy="195.58099047020121" r="4" fill="#ff725c"></circle><circle cx="139.53814089745424" cy="222.28224318365838" r="4" fill="#ff725c"></circle><circle cx="200.53084327877295" cy="191.3262556584125" r="4" fill="#ff725c"></circle><circle cx="196.78067116603123" cy="146.8795204777998" r="4" fill="#ff725c"></circle><circle cx="177.95848058083777" cy="192.53673913131357" r="4" fill="#ff725c"></circle><circle cx="175.94722481625033" cy="196.58207904766115" r="4" fill="#ff725c"></circle><circle cx="154.1336253272064" cy="198.17736178866537" r="4" fill="#ff725c"></circle><circle cx="152.06459741279036" cy="214.16456366256358" r="4" fill="#ff725c"></circle><circle cx="167.39512918976345" cy="181.1601680030482" r="4" fill="#ff725c"></circle><circle cx="220.20454462775425" cy="180.20449625081773" r="4" fill="#ff725c"></circle><circle cx="178.0425168168749" cy="220.45411657666708" r="4" fill="#ff725c"></circle><circle cx="190.01697342302694" cy="204.22252169585752" r="4" fill="#ff725c"></circle><circle cx="171.40148249206632" cy="195.20904099518447" r="4" fill="#ff725c"></circle><circle cx="210.10404495545583" cy="192.1709440376614" r="4" fill="#ff725c"></circle><circle cx="137.82420721750523" cy="205.36042622145794" r="4" fill="#ff725c"></circle><circle cx="224.4008764055668" cy="180.20929308851854" r="4" fill="#ff725c"></circle><circle cx="180.10532921553082" cy="190.0719003491638" r="4" fill="#ff725c"></circle><circle cx="167.86726296153924" cy="198.9795725613063" r="4" fill="#ff725c"></circle><circle cx="118.38048277908516" cy="245.26432418069467" r="4" fill="#ff725c"></circle><circle cx="239.71040445946215" cy="164.99175556886559" r="4" fill="#ff725c"></circle><circle cx="211.36121469844684" cy="166.66519134521886" r="4" fill="#ff725c"></circle><circle cx="218.0997289518841" cy="182.93709316235717" r="4" fill="#ff725c"></circle><circle cx="192.6787919119985" cy="189.54640527885772" r="4" fill="#ff725c"></circle><circle cx="171.51002781967784" cy="203.40780520345626" r="4" fill="#ff725c"></circle><circle cx="209.28077521952275" cy="189.3046611397489" r="4" fill="#ff725c"></circle><circle cx="166.86867444980288" cy="216.02520837847635" r="4" fill="#ff725c"></circle><circle cx="181.86812267133269" cy="171.34050254815855" r="4" fill="#ff725c"></circle><circle cx="194.8891957593697" cy="180.71647643523173" r="4" fill="#ff725c"></circle><circle cx="214.21341675623484" cy="173.76382592431048" r="4" fill="#ff725c"></circle><circle cx="200.59223424240832" cy="183.29565485882114" r="4" fill="#ff725c"></circle><circle cx="231.9357693885669" cy="172.6672376849603" r="4" fill="#ff725c"></circle><circle cx="194.52188144227432" cy="201.01802328452263" r="4" fill="#ff725c"></circle><circle cx="172.7433937683561" cy="198.61619713232432" r="4" fill="#ff725c"></circle><circle cx="178.0302776077646" cy="211.68163479315962" r="4" fill="#ff725c"></circle><circle cx="201.41110115949746" cy="178.20629326126308" r="4" fill="#ff725c"></circle><circle cx="229.81834921157935" cy="194.28654890954047" r="4" fill="#ff725c"></circle><circle cx="180.7295149571479" cy="184.26075400491825" r="4" fill="#ff725c"></circle><circle cx="250.28934235152317" cy="175.8673863791353" r="4" fill="#ff725c"></circle><circle cx="222.71893413948726" cy="180.2498218449756" r="4" fill="#ff725c"></circle><circle cx="215.16810442579475" cy="172.05928235378474" r="4" fill="#ff725c"></circle><circle cx="254.5070080762103" cy="138.757643393771" r="4" fill="#ff725c"></circle><circle cx="214.63114479654035" cy="190.41668013531577" r="4" fill="#ff725c"></circle><circle cx="142.99681201545576" cy="193.44752874585313" r="4" fill="#ff725c"></circle><circle cx="174.96486401429436" cy="227.58432410050082" r="4" fill="#ff725c"></circle><circle cx="168.0105660363049" cy="239.04534954407785" r="4" fill="#ff725c"></circle><circle cx="226.64557332549208" cy="160.54370771228267" r="4" fill="#ff725c"></circle><circle cx="180.27593122865483" cy="219.91296988143785" r="4" fill="#ff725c"></circle><circle cx="177.72850906471695" cy="213.3127808096091" r="4" fill="#ff725c"></circle><circle cx="237.4712675578712" cy="156.95825690708068" r="4" fill="#ff725c"></circle><circle cx="140.19770492020155" cy="195.48264571720256" r="4" fill="#ff725c"></circle><circle cx="195.09016292525536" cy="222.0477219785027" r="4" fill="#ff725c"></circle><circle cx="194.46919541131285" cy="175.6054420041614" r="4" fill="#ff725c"></circle><circle cx="205.390514978015" cy="185.6660988094231" r="4" fill="#ff725c"></circle><circle cx="201.39723468969518" cy="143.3355239309087" r="4" fill="#ff725c"></circle><circle cx="149.5628808854987" cy="210.70256797667963" r="4" fill="#ff725c"></circle><circle cx="176.83348726384312" cy="181.67457428371443" r="4" fill="#ff725c"></circle><circle cx="189.81504571791055" cy="187.09201256851966" r="4" fill="#ff725c"></circle><circle cx="170.32416591593005" cy="190.1404276807068" r="4" fill="#ff725c"></circle><circle cx="169.24621451718585" cy="210.29072942497874" r="4" fill="#ff725c"></circle><circle cx="217.863127271154" cy="197.67228215898098" r="4" fill="#ff725c"></circle></g><g aria-label="arrow" fill="none" stroke="blue" stroke-width="2" stroke-linecap="round" stroke-miterlimit="1" transform="translate(0.5,0.5)"><path d="M328.9349844421477,230.66895152133372L559.630382429184,30.448614783465935M549.1580860273865,32.475628806771354L559.630382429184,30.448614783465935L556.1496798662951,40.53139651503565"></path><path d="M328.9349844421477,230.66895152133372L40,70.80630851871999M45.50092138139736,79.9451072216931L40,70.80630851871999L50.664892527545675,70.61177020969545"></path></g><g aria-label="text" fill="darkblue" font-size="10" transform="translate(5.5,5.5)"><text y="0.32em" transform="translate(559.630382429184,30.448614783465935)">Species_Chinstrap</text><text y="0.32em" transform="translate(40,70.80630851871999)">Species_Gentoo</text></g><g aria-label="arrow" fill="none" stroke="red" stroke-width="2" stroke-linecap="round" stroke-miterlimit="1" transform="translate(0.5,0.5)"><path d="M328.9349844421477,230.66895152133372L372.22853317040176,168.2597984568773M362.5810717312681,172.8099924701262L372.22853317040176,168.2597984568773L371.3453860584563,178.8898421518223"></path><path d="M328.9349844421477,230.66895152133372L430.2304628377313,262.0298098135958M422.9834181825314,254.20305304317577L430.2304628377313,262.0298098135958L419.82877031770573,264.39255620214914"></path><path d="M328.9349844421477,230.66895152133372L319.49345473377366,227.34049632652415M321.6642470606512,229.87492686260762L319.49345473377366,227.34049632652415L322.77373212558774,226.7277502931496"></path><path d="M328.9349844421477,230.66895152133372L328.6598411130729,230.74002640516508M328.75111396459835,230.76536607502123L328.6598411130729,230.74002640516508L328.72742233665457,230.67365163199628"></path><path d="M328.9349844421477,230.66895152133372L394.9449215639581,70.80661911161863M386.4896784543971,77.30943709584669L394.9449215639581,70.80661911161863L396.3489055797054,81.38048343178578"></path><path d="M328.9349844421477,230.66895152133372L205.07541848985394,203.98933191491065M212.98284630649584,211.14826780667389L205.07541848985394,203.98933191491065L215.22895274450605,200.72076649298867"></path><path d="M328.9349844421477,230.66895152133372L539.3625279577453,20M529.0609035236918,22.76664269422143L539.3625279577453,20L536.607698597109,30.304789807247573"></path></g><g aria-label="text" fill="darkred" font-size="10" transform="translate(5.5,5.5)"><text y="0.32em" transform="translate(372.22853317040176,168.2597984568773)">Beak Length (mm)</text><text y="0.32em" transform="translate(430.2304628377313,262.0298098135958)">Beak Depth (mm)</text><text y="0.32em" transform="translate(319.49345473377366,227.34049632652415)">Flipper Length (mm)</text><text y="0.32em" transform="translate(328.6598411130729,230.74002640516508)">Body Mass (g)</text><text y="0.32em" transform="translate(394.9449215639581,70.80661911161863)">Sex_FEMALE</text><text y="0.32em" transform="translate(205.07541848985394,203.98933191491065)">Island_Biscoe</text><text y="0.32em" transform="translate(539.3625279577453,20)">Island_Dream</text></g></svg>