<svg class="plot-d6a7b5" fill="currentColor" font-family="system-ui, sans-serif" font-size="10" text-anchor="middle" width="640" height="300" viewBox="0 0 640 300"><style>:where(.plot-d6a7b5) {
  --plot-background: white;
  display: block;
  height: auto;
  height: intrinsic;
  max-width: 100%;
}
:where(.plot-d6a7b5 text),
:where(.plot-d6a7b5 tspan) {
  white-space: pre;
}</style><g aria-label="y-axis tick" aria-hidden="true" fill="none" stroke="currentColor" transform="translate(0,0.5)"><path transform="translate(40,242.31103198479246)" d="M0,0L-6,0"></path><path transform="translate(40,204.39592519337566)" d="M0,0L-6,0"></path><path transform="translate(40,166.48081840195886)" d="M0,0L-6,0"></path><path transform="translate(40,128.5657116105421)" d="M0,0L-6,0"></path><path transform="translate(40,90.6506048191253)" d="M0,0L-6,0"></path><path transform="translate(40,52.73549802770853)" d="M0,0L-6,0"></path></g><g aria-label="y-axis tick label" text-anchor="end" font-variant="tabular-nums" transform="translate(-8.5,0.5)"><text y="0.32em" transform="translate(40,242.31103198479246)">10</text><text y="0.32em" transform="translate(40,204.39592519337566)">20</text><text y="0.32em" transform="translate(40,166.48081840195886)">30</text><text y="0.32em" transform="translate(40,128.5657116105421)">40</text><text y="0.32em" transform="translate(40,90.6506048191253)">50</text><text y="0.32em" transform="translate(40,52.73549802770853)">60</text></g><g aria-label="y-axis label" text-anchor="start" transform="translate(-36.5,-16.5)"><text y="0.71em" transform="translate(40,20)">↑ Variance Explained (%)</text></g><g aria-label="x-axis tick" aria-hidden="true" fill="none" stroke="currentColor" transform="translate(0.5,0)"><path transform="translate(40,270)" d="M0,0L0,6"></path><path transform="translate(136.66666666666666,270)" d="M0,0L0,6"></path><path transform="translate(233.33333333333331,270)" d="M0,0L0,6"></path><path transform="translate(330,270)" d="M0,0L0,6"></path><path transform="translate(426.66666666666663,270)" d="M0,0L0,6"></path><path transform="translate(523.3333333333334,270)" d="M0,0L0,6"></path><path transform="translate(620,270)" d="M0,0L0,6"></path></g><g aria-label="x-axis tick label" font-variant="tabular-nums" transform="translate(0.5,9.5)"><text y="0.71em" transform="translate(40,270)">1.0</text><text y="0.71em" transform="translate(136.66666666666666,270)">1.5</text><text y="0.71em" transform="translate(233.33333333333331,270)">2.0</text><text y="0.71em" transform="translate(330,270)">2.5</text><text y="0.71em" transform="translate(426.66666666666663,270)">3.0</text><text y="0.71em" transform="translate(523.3333333333334,270)">3.5</text><text y="0.71em" transform="translate(620,270)">4.0</text></g><g aria-label="x-axis label" text-anchor="end" transform="translate(17.5,27.5)"><text transform="translate(620,270)">Principal Component →</text></g><g aria-label="line" fill="none" stroke="steelblue" stroke-width="2" stroke-linejoin="round" stroke-linecap="round" transform="translate(0.5,0.5)"><path d="M40,20L233.333,206.47L426.667,245.283L620,270"></path></g><g aria-label="dot" fill="steelblue" transform="translate(0.5,0.5)"><circle cx="40" cy="20" r="5"></circle><circle cx="233.33333333333331" cy="206.47014965343908" r="5"></circle><circle cx="426.66666666666663" cy="245.28333753722995" r="5"></circle><circle cx="620" cy="270" r="5"></circle></g></svg>