<svg class="plot-d6a7b5" fill="currentColor" font-family="system-ui, sans-serif" font-size="10" text-anchor="middle" width="640" height="400" viewBox="0 0 640 400"><style>:where(.plot-d6a7b5) {
  --plot-background: white;
  display: block;
  height: auto;
  height: intrinsic;
  max-width: 100%;
}
:where(.plot-d6a7b5 text),
:where(.plot-d6a7b5 tspan) {
  white-space: pre;
}</style><g aria-label="y-grid" aria-hidden="true" stroke="currentColor" stroke-opacity="0.1" transform="translate(0,0.5)"><line x1="40" x2="620" y1="367.97508553035766" y2="367.97508553035766"></line><line x1="40" x2="620" y1="343.9980467242024" y2="343.9980467242024"></line><line x1="40" x2="620" y1="320.02100791804713" y2="320.02100791804713"></line><line x1="40" x2="620" y1="296.04396911189195" y2="296.04396911189195"></line><line x1="40" x2="620" y1="272.0669303057367" y2="272.0669303057367"></line><line x1="40" x2="620" y1="248.08989149958143" y2="248.08989149958143"></line><line x1="40" x2="620" y1="224.1128526934262" y2="224.1128526934262"></line><line x1="40" x2="620" y1="200.13581388727096" y2="200.13581388727096"></line><line x1="40" x2="620" y1="176.1587750811157" y2="176.1587750811157"></line><line x1="40" x2="620" y1="152.18173627496043" y2="152.18173627496043"></line><line x1="40" x2="620" y1="128.20469746880514" y2="128.20469746880514"></line><line x1="40" x2="620" y1="104.22765866264993" y2="104.22765866264993"></line><line x1="40" x2="620" y1="80.2506198564947" y2="80.2506198564947"></line><line x1="40" x2="620" y1="56.2735810503394" y2="56.2735810503394"></line><line x1="40" x2="620" y1="32.29654224418424" y2="32.29654224418424"></line></g><g aria-label="y-axis tick" aria-hidden="true" fill="none" stroke="currentColor" transform="translate(0,0.5)"><path transform="translate(40,367.97508553035766)" d="M0,0L-6,0"></path><path transform="translate(40,343.9980467242024)" d="M0,0L-6,0"></path><path transform="translate(40,320.02100791804713)" d="M0,0L-6,0"></path><path transform="translate(40,296.04396911189195)" d="M0,0L-6,0"></path><path transform="translate(40,272.0669303057367)" d="M0,0L-6,0"></path><path transform="translate(40,248.08989149958143)" d="M0,0L-6,0"></path><path transform="translate(40,224.1128526934262)" d="M0,0L-6,0"></path><path transform="translate(40,200.13581388727096)" d="M0,0L-6,0"></path><path transform="translate(40,176.1587750811157)" d="M0,0L-6,0"></path><path transform="translate(40,152.18173627496043)" d="M0,0L-6,0"></path><path transform="translate(40,128.20469746880514)" d="M0,0L-6,0"></path><path transform="translate(40,104.22765866264993)" d="M0,0L-6,0"></path><path transform="translate(40,80.2506198564947)" d="M0,0L-6,0"></path><path transform="translate(40,56.2735810503394)" d="M0,0L-6,0"></path><path transform="translate(40,32.29654224418424)" d="M0,0L-6,0"></path></g><g aria-label="y-axis tick label" text-anchor="end" font-variant="tabular-nums" transform="translate(-8.5,0.5)"><text y="0.32em" transform="translate(40,367.97508553035766)">−0.16</text><text y="0.32em" transform="translate(40,343.9980467242024)">−0.14</text><text y="0.32em" transform="translate(40,320.02100791804713)">−0.12</text><text y="0.32em" transform="translate(40,296.04396911189195)">−0.10</text><text y="0.32em" transform="translate(40,272.0669303057367)">−0.08</text><text y="0.32em" transform="translate(40,248.08989149958143)">−0.06</text><text y="0.32em" transform="translate(40,224.1128526934262)">−0.04</text><text y="0.32em" transform="translate(40,200.13581388727096)">−0.02</text><text y="0.32em" transform="translate(40,176.1587750811157)">0.00</text><text y="0.32em" transform="translate(40,152.18173627496043)">0.02</text><text y="0.32em" transform="translate(40,128.20469746880514)">0.04</text><text y="0.32em" transform="translate(40,104.22765866264993)">0.06</text><text y="0.32em" transform="translate(40,80.2506198564947)">0.08</text><text y="0.32em" transform="translate(40,56.2735810503394)">0.10</text><text y="0.32em" transform="translate(40,32.29654224418424)">0.12</text></g><g aria-label="y-axis label" text-anchor="start" transform="translate(-36.5,-16.5)"><text y="0.71em" transform="translate(40,20)">↑ PC2</text></g><g aria-label="x-grid" aria-hidden="true" stroke="currentColor" stroke-opacity="0.1" transform="translate(0.5,0)"><line x1="72.92394602591887" x2="72.92394602591887" y1="20" y2="370"></line><line x1="175.0468591358973" x2="175.0468591358973" y1="20" y2="370"></line><line x1="277.1697722458757" x2="277.1697722458757" y1="20" y2="370"></line><line x1="379.2926853558541" x2="379.2926853558541" y1="20" y2="370"></line><line x1="481.41559846583255" x2="481.41559846583255" y1="20" y2="370"></line><line x1="583.5385115758111" x2="583.5385115758111" y1="20" y2="370"></line></g><g aria-label="x-axis tick" aria-hidden="true" fill="none" stroke="currentColor" transform="translate(0.5,0)"><path transform="translate(72.92394602591887,370)" d="M0,0L0,6"></path><path transform="translate(175.0468591358973,370)" d="M0,0L0,6"></path><path transform="translate(277.1697722458757,370)" d="M0,0L0,6"></path><path transform="translate(379.2926853558541,370)" d="M0,0L0,6"></path><path transform="translate(481.41559846583255,370)" d="M0,0L0,6"></path><path transform="translate(583.5385115758111,370)" d="M0,0L0,6"></path></g><g aria-label="x-axis tick label" font-variant="tabular-nums" transform="translate(0.5,9.5)"><text y="0.71em" transform="translate(72.92394602591887,370)">−0.10</text><text y="0.71em" transform="translate(175.0468591358973,370)">−0.05</text><text y="0.71em" transform="translate(277.1697722458757,370)">0.00</text><text y="0.71em" transform="translate(379.2926853558541,370)">0.05</text><text y="0.71em" transform="translate(481.41559846583255,370)">0.10</text><text y="0.71em" transform="translate(583.5385115758111,370)">0.15</text></g><g aria-label="x-axis label" text-anchor="end" transform="translate(17.5,27.5)"><text transform="translate(620,370)">PC1 →</text></g><g aria-label="dot" fill-opacity="0.7" transform="translate(0.5,0.5)"><circle cx="151.95771659928732" cy="178.54719921603834" r="4" fill="#4269d0"></circle><circle cx="188.25549878663736" cy="143.12632654612466" r="4" fill="#4269d0"></circle><circle cx="184.17872628274142" cy="164.15084710099498" r="4" fill="#4269d0"></circle><circle cx="149.81666345430642" cy="175.23889477107767" r="4" fill="#4269d0"></circle><circle cx="147.47315976130258" cy="237.0508567492401" r="4" fill="#4269d0"></circle><circle cx="157.40048291072532" cy="148.8836658403714" r="4" fill="#4269d0"></circle><circle cx="221.8795348389787" cy="213.48974965358653" r="4" fill="#4269d0"></circle><circle cx="155.64838487475754" cy="157.8826224685421" r="4" fill="#4269d0"></circle><circle cx="145.02996287951208" cy="250.5076779060082" r="4" fill="#4269d0"></circle><circle cx="171.14691836532057" cy="219.2124613502869" r="4" fill="#4269d0"></circle><circle cx="159.09054774055068" cy="130.7097408186733" r="4" fill="#4269d0"></circle><circle cx="170.72468776991678" cy="182.6260210101763" r="4" fill="#4269d0"></circle><circle cx="222.81012138860564" cy="272.49866425282306" r="4" fill="#4269d0"></circle><circle cx="118.4129000382517" cy="128.1070168656691" r="4" fill="#4269d0"></circle><circle cx="209.28193619596055" cy="323.0584666854737" r="4" fill="#4269d0"></circle><circle cx="114.490189667838" cy="153.14778303835186" r="4" fill="#4269d0"></circle><circle cx="134.3873485839223" cy="165.99320422398108" r="4" fill="#4269d0"></circle><circle cx="151.7237012909035" cy="168.0300761288407" r="4" fill="#4269d0"></circle><circle cx="175.5048181052572" cy="154.6254507614242" r="4" fill="#4269d0"></circle><circle cx="170.3623339340296" cy="131.1798214713926" r="4" fill="#4269d0"></circle><circle cx="146.89988965548264" cy="154.00975237249673" r="4" fill="#4269d0"></circle><circle cx="158.08070628431366" cy="186.45591793298001" r="4" fill="#4269d0"></circle><circle cx="162.08898849709487" cy="162.17186263506463" r="4" fill="#4269d0"></circle><circle cx="93.8245740112266" cy="161.18102268819638" r="4" fill="#4269d0"></circle><circle cx="163.52682855837878" cy="197.42505047767784" r="4" fill="#4269d0"></circle><circle cx="150.17730120144165" cy="117.87465656269553" r="4" fill="#4269d0"></circle><circle cx="148.09240469291018" cy="145.8694326378049" r="4" fill="#4269d0"></circle><circle cx="165.24908021123198" cy="151.70906379526835" r="4" fill="#4269d0"></circle><circle cx="174.60014222912875" cy="200.468612302853" r="4" fill="#4269d0"></circle><circle cx="179.45949588191198" cy="102.59914983599955" r="4" fill="#4269d0"></circle><circle cx="179.85417822663146" cy="255.03683244097928" r="4" fill="#4269d0"></circle><circle cx="166.74676544286513" cy="216.9886919346504" r="4" fill="#4269d0"></circle><circle cx="160.08017646242126" cy="196.44584273481618" r="4" fill="#4269d0"></circle><circle cx="114.53000150267428" cy="181.17442555076346" r="4" fill="#4269d0"></circle><circle cx="200.3205537818112" cy="202.80730094800035" r="4" fill="#4269d0"></circle><circle cx="122.03412568641647" cy="131.93437361874774" r="4" fill="#4269d0"></circle><circle cx="211.5204190525047" cy="184.91054154905132" r="4" fill="#4269d0"></circle><circle cx="121.20082487299649" cy="142.68859865211647" r="4" fill="#4269d0"></circle><circle cx="238.0981443119052" cy="254.70098622531202" r="4" fill="#4269d0"></circle><circle cx="141.34633985657638" cy="101.88523352869137" r="4" fill="#4269d0"></circle><circle cx="217.70715496228968" cy="191.95375256000477" r="4" fill="#4269d0"></circle><circle cx="146.8466154928821" cy="201.6954896723999" r="4" fill="#4269d0"></circle><circle cx="156.72733945306675" cy="127.19691940909897" r="4" fill="#4269d0"></circle><circle cx="181.96330321501196" cy="283.2758310626681" r="4" fill="#4269d0"></circle><circle cx="170.84930310421953" cy="150.86702333382357" r="4" fill="#4269d0"></circle><circle cx="199.71958991336345" cy="196.87602708441327" r="4" fill="#4269d0"></circle><circle cx="151.11397914311215" cy="119.01067461976456" r="4" fill="#4269d0"></circle><circle cx="224.02511569956627" cy="229.12272486732255" r="4" fill="#4269d0"></circle><circle cx="111.81221296499602" cy="116.96080950410538" r="4" fill="#4269d0"></circle><circle cx="191.7729816177193" cy="194.31378975198936" r="4" fill="#4269d0"></circle><circle cx="172.53225259871226" cy="140.27811268651695" r="4" fill="#4269d0"></circle><circle cx="194.72726605700817" cy="194.5660133670099" r="4" fill="#4269d0"></circle><circle cx="124.5879258844329" cy="87.55947857849897" r="4" fill="#4269d0"></circle><circle cx="174.24957619192398" cy="178.73090286222504" r="4" fill="#4269d0"></circle><circle cx="140.9763602487788" cy="92.3055642037522" r="4" fill="#4269d0"></circle><circle cx="200.40360808315444" cy="273.9678912814472" r="4" fill="#4269d0"></circle><circle cx="171.0529931820805" cy="114.06243271079279" r="4" fill="#4269d0"></circle><circle cx="214.5208276638569" cy="182.30514032222942" r="4" fill="#4269d0"></circle><circle cx="125.52482400708845" cy="101.91154777553992" r="4" fill="#4269d0"></circle><circle cx="215.45108470415627" cy="179.6586500419952" r="4" fill="#4269d0"></circle><circle cx="186.52938073048085" cy="71.28335071271327" r="4" fill="#4269d0"></circle><circle cx="193.35459574770908" cy="209.67698674625825" r="4" fill="#4269d0"></circle><circle cx="155.51490116857056" cy="84.34156071196527" r="4" fill="#4269d0"></circle><circle cx="237.17784889309192" cy="227.24140950400465" r="4" fill="#4269d0"></circle><circle cx="134.54122902185966" cy="140.96598007786648" r="4" fill="#4269d0"></circle><circle cx="191.4243487801181" cy="175.75165535181708" r="4" fill="#4269d0"></circle><circle cx="207.85577077068479" cy="136.45092330689386" r="4" fill="#4269d0"></circle><circle cx="249.84682796154718" cy="242.75240395456345" r="4" fill="#4269d0"></circle><circle cx="170.94997945416378" cy="112.8119183682153" r="4" fill="#4269d0"></circle><circle cx="237.54012882003968" cy="206.77773526756178" r="4" fill="#4269d0"></circle><circle cx="213.64282620150126" cy="135.9388466903819" r="4" fill="#4269d0"></circle><circle cx="146.97611887708584" cy="185.25779010091034" r="4" fill="#4269d0"></circle><circle cx="178.7919710917172" cy="75.1682368101094" r="4" fill="#4269d0"></circle><circle cx="213.8396203649127" cy="217.37055596868208" r="4" fill="#4269d0"></circle><circle cx="144.13513852823263" cy="92.82502822354616" r="4" fill="#4269d0"></circle><circle cx="274.00616839213217" cy="183.67359950240476" r="4" fill="#4269d0"></circle><circle cx="156.1295121304613" cy="162.4548383738461" r="4" fill="#4269d0"></circle><circle cx="174.10131289305383" cy="170.4688043178388" r="4" fill="#4269d0"></circle><circle cx="163.56164148657496" cy="134.14588504984442" r="4" fill="#4269d0"></circle><circle cx="169.33147445272533" cy="243.79129049246168" r="4" fill="#4269d0"></circle><circle cx="152.6405660780461" cy="180.3823475415245" r="4" fill="#4269d0"></circle><circle cx="151.70779225682438" cy="155.99748289347082" r="4" fill="#4269d0"></circle><circle cx="172.123154829938" cy="188.73951252443865" r="4" fill="#4269d0"></circle><circle cx="167.5952107776988" cy="179.14038853283427" r="4" fill="#4269d0"></circle><circle cx="191.70196995124832" cy="128.83464257300085" r="4" fill="#4269d0"></circle><circle cx="263.63296591853987" cy="181.46067580248265" r="4" fill="#4269d0"></circle><circle cx="140.2374596316772" cy="86.19100963798076" r="4" fill="#4269d0"></circle><circle cx="209.23909330929226" cy="169.6584931896038" r="4" fill="#4269d0"></circle><circle cx="150.7953066073054" cy="109.58536908607712" r="4" fill="#4269d0"></circle><circle cx="259.334437856078" cy="203.22246615281335" r="4" fill="#4269d0"></circle><circle cx="170.46461780858178" cy="167.26837856139267" r="4" fill="#4269d0"></circle><circle cx="230.90926202820268" cy="187.05122594748275" r="4" fill="#4269d0"></circle><circle cx="106.31339627531737" cy="44.90970225251942" r="4" fill="#4269d0"></circle><circle cx="224.50525979001623" cy="208.89737412472016" r="4" fill="#4269d0"></circle><circle cx="169.38274150678302" cy="121.02010437687618" r="4" fill="#4269d0"></circle><circle cx="251.08323912140798" cy="240.8881938093422" r="4" fill="#4269d0"></circle><circle cx="155.50909926792127" cy="80.94431222676651" r="4" fill="#4269d0"></circle><circle cx="174.98818272319733" cy="210.92734494770696" r="4" fill="#4269d0"></circle><circle cx="141.90326133054526" cy="160.2342204380625" r="4" fill="#4269d0"></circle><circle cx="151.70020266851535" cy="188.16607111952905" r="4" fill="#4269d0"></circle><circle cx="219.83175321311668" cy="129.77368720986664" r="4" fill="#4269d0"></circle><circle cx="161.06961965851124" cy="211.722795427318" r="4" fill="#4269d0"></circle><circle cx="143.09497260566894" cy="115.02206967556636" r="4" fill="#4269d0"></circle><circle cx="262.74529309438714" cy="228.91069462766075" r="4" fill="#4269d0"></circle><circle cx="227.300918956719" cy="105.07138895397162" r="4" fill="#4269d0"></circle><circle cx="233.60782099267195" cy="286.33687523758783" r="4" fill="#4269d0"></circle><circle cx="177.04578504893945" cy="149.77637371091916" r="4" fill="#4269d0"></circle><circle cx="227.18604659541035" cy="232.26123701960273" r="4" fill="#4269d0"></circle><circle cx="162.1161725914398" cy="244.32393844421173" r="4" fill="#4269d0"></circle><circle cx="234.4229500630819" cy="198.71907704892251" r="4" fill="#4269d0"></circle><circle cx="152.69136347356124" cy="117.38299278526162" r="4" fill="#4269d0"></circle><circle cx="168.44865425497423" cy="218.82531502332174" r="4" fill="#4269d0"></circle><circle cx="159.97905974641037" cy="96.8610329855716" r="4" fill="#4269d0"></circle><circle cx="167.20195196429978" cy="189.14018729061385" r="4" fill="#4269d0"></circle><circle cx="145.23883585320422" cy="105.50726348116277" r="4" fill="#4269d0"></circle><circle cx="164.80593708886784" cy="199.01158964170492" r="4" fill="#4269d0"></circle><circle cx="153.66186811623322" cy="134.00698978972702" r="4" fill="#4269d0"></circle><circle cx="231.852875902256" cy="192.8764940100581" r="4" fill="#4269d0"></circle><circle cx="150.04487609374831" cy="57.37837889022573" r="4" fill="#4269d0"></circle><circle cx="217.92759708617228" cy="202.19874562413474" r="4" fill="#4269d0"></circle><circle cx="171.2598236360195" cy="139.86271437581044" r="4" fill="#4269d0"></circle><circle cx="235.29372609756416" cy="190.45845326772113" r="4" fill="#4269d0"></circle><circle cx="168.84600271050624" cy="124.82800646328965" r="4" fill="#4269d0"></circle><circle cx="281.91056123059576" cy="201.03287259334238" r="4" fill="#4269d0"></circle><circle cx="164.98791623200043" cy="146.77715729810535" r="4" fill="#4269d0"></circle><circle cx="200.55931622258845" cy="225.09256789600374" r="4" fill="#4269d0"></circle><circle cx="163.65447341202042" cy="152.28641525399166" r="4" fill="#4269d0"></circle><circle cx="229.31750151514464" cy="165.107524779056" r="4" fill="#4269d0"></circle><circle cx="163.1207610690454" cy="135.0715783812987" r="4" fill="#4269d0"></circle><circle cx="211.6213155834341" cy="160.07148772341506" r="4" fill="#4269d0"></circle><circle cx="150.0497294884447" cy="109.94277507875793" r="4" fill="#4269d0"></circle><circle cx="202.2318644978232" cy="231.9502000182365" r="4" fill="#4269d0"></circle><circle cx="165.3030488077941" cy="92.6558037836704" r="4" fill="#4269d0"></circle><circle cx="222.79567053285882" cy="163.24482942672518" r="4" fill="#4269d0"></circle><circle cx="197.31449184369436" cy="137.19215441820026" r="4" fill="#4269d0"></circle><circle cx="184.9469636064818" cy="143.82871317349077" r="4" fill="#4269d0"></circle><circle cx="143.69568086963244" cy="20" r="4" fill="#4269d0"></circle><circle cx="208.14860807032926" cy="140.47918257102543" r="4" fill="#4269d0"></circle><circle cx="163.89118949461613" cy="101.54107396232595" r="4" fill="#4269d0"></circle><circle cx="157.91522051668102" cy="177.1434890128141" r="4" fill="#4269d0"></circle><circle cx="202.03973973172427" cy="180.1688938007105" r="4" fill="#4269d0"></circle><circle cx="137.68968151529523" cy="147.17920430340024" r="4" fill="#4269d0"></circle><circle cx="172.01963142554553" cy="124.33527963434659" r="4" fill="#4269d0"></circle><circle cx="186.2971538780494" cy="150.18078139710954" r="4" fill="#4269d0"></circle><circle cx="170.88750741444787" cy="104.75000379062698" r="4" fill="#4269d0"></circle><circle cx="235.40276114291694" cy="194.54968918752775" r="4" fill="#4269d0"></circle><circle cx="223.5453018785459" cy="213.56824610242825" r="4" fill="#efb118"></circle><circle cx="250.86751023891043" cy="293.4270207376289" r="4" fill="#efb118"></circle><circle cx="242.37916041421033" cy="293.1590105265677" r="4" fill="#efb118"></circle><circle cx="196.4207268632996" cy="228.74249173760444" r="4" fill="#efb118"></circle><circle cx="256.6131501446147" cy="323.3681314477204" r="4" fill="#efb118"></circle><circle cx="255.1066666198012" cy="203.282638190921" r="4" fill="#efb118"></circle><circle cx="166.66170863150936" cy="217.13872272808595" r="4" fill="#efb118"></circle><circle cx="271.8436991665437" cy="263.8339563000156" r="4" fill="#efb118"></circle><circle cx="245.40095045096342" cy="244.32804614084372" r="4" fill="#efb118"></circle><circle cx="249.01323765673288" cy="314.7767740152984" r="4" fill="#efb118"></circle><circle cx="242.11660832715762" cy="213.5269150658271" r="4" fill="#efb118"></circle><circle cx="238.10150486896836" cy="330.52190965333244" r="4" fill="#efb118"></circle><circle cx="224.3240851692895" cy="200.76840310915634" r="4" fill="#efb118"></circle><circle cx="302.13584615999014" cy="268.796782294395" r="4" fill="#efb118"></circle><circle cx="229.03977484590757" cy="185.00086327808762" r="4" fill="#efb118"></circle><circle cx="273.15203507942556" cy="301.7522656661769" r="4" fill="#efb118"></circle><circle cx="220.77164773239969" cy="306.7421854740352" r="4" fill="#efb118"></circle><circle cx="268.07935922843" cy="305.7721657672557" r="4" fill="#efb118"></circle><circle cx="205.50986038929938" cy="233.4434621442088" r="4" fill="#efb118"></circle><circle cx="284.5057777220191" cy="251.18518070934053" r="4" fill="#efb118"></circle><circle cx="182.74726940158675" cy="162.2801642675813" r="4" fill="#efb118"></circle><circle cx="232.85316067957424" cy="217.13900621296452" r="4" fill="#efb118"></circle><circle cx="181.21221827723386" cy="142.94628861553085" r="4" fill="#efb118"></circle><circle cx="242.63536091030116" cy="294.52240148266696" r="4" fill="#efb118"></circle><circle cx="223.78427990587426" cy="213.8813066827478" r="4" fill="#efb118"></circle><circle cx="283.27874384222355" cy="296.5227783521555" r="4" fill="#efb118"></circle><circle cx="256.80009200668974" cy="260.929636597243" r="4" fill="#efb118"></circle><circle cx="261.4342602375311" cy="273.67052910007675" r="4" fill="#efb118"></circle><circle cx="230.80712749582975" cy="211.11976006890995" r="4" fill="#efb118"></circle><circle cx="314.807486757113" cy="336.3079653770129" r="4" fill="#efb118"></circle><circle cx="182.156267154625" cy="126.24282340245269" r="4" fill="#efb118"></circle><circle cx="289.01609972565706" cy="370" r="4" fill="#efb118"></circle><circle cx="196.69411440465365" cy="143.418920670302" r="4" fill="#efb118"></circle><circle cx="294.8037387336961" cy="282.13589083641125" r="4" fill="#efb118"></circle><circle cx="244.88271213872957" cy="261.6745357791743" r="4" fill="#efb118"></circle><circle cx="282.20172093102474" cy="191.63108792126246" r="4" fill="#efb118"></circle><circle cx="248.7530576028571" cy="237.20719977907441" r="4" fill="#efb118"></circle><circle cx="326.18739414519644" cy="352.79333156920336" r="4" fill="#efb118"></circle><circle cx="206.66650696197794" cy="171.97281273010722" r="4" fill="#efb118"></circle><circle cx="317.7986274167423" cy="338.66853039209633" r="4" fill="#efb118"></circle><circle cx="286.5431265353595" cy="286.02617298313254" r="4" fill="#efb118"></circle><circle cx="220.35098081343497" cy="199.9581778229814" r="4" fill="#efb118"></circle><circle cx="245.23929949337037" cy="286.2529667970315" r="4" fill="#efb118"></circle><circle cx="241.40730308312015" cy="178.364304522797" r="4" fill="#efb118"></circle><circle cx="267.4631399818294" cy="250.95046043673406" r="4" fill="#efb118"></circle><circle cx="308.38917841092496" cy="273.8691124319238" r="4" fill="#efb118"></circle><circle cx="233.5665902250455" cy="242.26882130498177" r="4" fill="#efb118"></circle><circle cx="306.9046652555598" cy="291.58248389456077" r="4" fill="#efb118"></circle><circle cx="215.17773717663928" cy="276.69995858122576" r="4" fill="#efb118"></circle><circle cx="275.08250145970703" cy="223.9132577177395" r="4" fill="#efb118"></circle><circle cx="264.49841889978325" cy="180.40748719207153" r="4" fill="#efb118"></circle><circle cx="281.8113084078755" cy="290.3176464868008" r="4" fill="#efb118"></circle><circle cx="234.68265585988487" cy="189.6644127019044" r="4" fill="#efb118"></circle><circle cx="278.472338672949" cy="306.46677809934926" r="4" fill="#efb118"></circle><circle cx="188.4686061584005" cy="161.5128608926155" r="4" fill="#efb118"></circle><circle cx="254.81543760896298" cy="287.17061903033914" r="4" fill="#efb118"></circle><circle cx="219.73994523096025" cy="161.9210391734956" r="4" fill="#efb118"></circle><circle cx="267.8717981569281" cy="301.03734880171896" r="4" fill="#efb118"></circle><circle cx="273.6739981091583" cy="273.43119381675973" r="4" fill="#efb118"></circle><circle cx="204.6526213557193" cy="251.67415793626347" r="4" fill="#efb118"></circle><circle cx="291.6847722890785" cy="309.643069329029" r="4" fill="#efb118"></circle><circle cx="242.9967269824042" cy="174.7749644309795" r="4" fill="#efb118"></circle><circle cx="246.6730891539672" cy="181.03319899606606" r="4" fill="#efb118"></circle><circle cx="314.55752775944336" cy="351.00134713811485" r="4" fill="#efb118"></circle><circle cx="227.18787353270864" cy="194.64055973233246" r="4" fill="#efb118"></circle><circle cx="252.31845229366218" cy="249.97120143183992" r="4" fill="#efb118"></circle><circle cx="310.42915409363206" cy="286.7455789865353" r="4" fill="#efb118"></circle><circle cx="262.75325220586063" cy="270.1152487530016" r="4" fill="#efb118"></circle><circle cx="384.8169185906283" cy="76.22614011661514" r="4" fill="#ff725c"></circle><circle cx="472.53089582774993" cy="210.72270814994167" r="4" fill="#ff725c"></circle><circle cx="381.97998864246216" cy="124.2663338828296" r="4" fill="#ff725c"></circle><circle cx="454.19969684376593" cy="177.18084377951413" r="4" fill="#ff725c"></circle><circle cx="428.11645643802143" cy="134.20695139930848" r="4" fill="#ff725c"></circle><circle cx="382.47436340357734" cy="88.87095439144414" r="4" fill="#ff725c"></circle><circle cx="375.54949138935626" cy="114.8398604185367" r="4" fill="#ff725c"></circle><circle cx="413.99766858234966" cy="149.67119972690477" r="4" fill="#ff725c"></circle><circle cx="356.17086487133406" cy="58.56606207486652" r="4" fill="#ff725c"></circle><circle cx="399.7418578287725" cy="153.02811773265196" r="4" fill="#ff725c"></circle><circle cx="364.05306792765873" cy="49.890809789246305" r="4" fill="#ff725c"></circle><circle cx="423.7521357967136" cy="195.01145365086788" r="4" fill="#ff725c"></circle><circle cx="389.87452535345" cy="87.54753582018441" r="4" fill="#ff725c"></circle><circle cx="446.44984345779835" cy="146.89734386649462" r="4" fill="#ff725c"></circle><circle cx="347.30100554647714" cy="113.83375934369535" r="4" fill="#ff725c"></circle><circle cx="447.5588684304428" cy="187.56040146097672" r="4" fill="#ff725c"></circle><circle cx="338.7412052217325" cy="49.19965576958492" r="4" fill="#ff725c"></circle><circle cx="485.7713881352378" cy="174.97405371020835" r="4" fill="#ff725c"></circle><circle cx="375.84254810578744" cy="118.31159277469874" r="4" fill="#ff725c"></circle><circle cx="443.24643843834855" cy="161.167234956711" r="4" fill="#ff725c"></circle><circle cx="467.6606312751365" cy="151.6771824039109" r="4" fill="#ff725c"></circle><circle cx="395.6100188760859" cy="110.90814235611802" r="4" fill="#ff725c"></circle><circle cx="370.19061855687414" cy="118.05748268481767" r="4" fill="#ff725c"></circle><circle cx="386.83324631286416" cy="160.28932288539679" r="4" fill="#ff725c"></circle><circle cx="402.4534787687762" cy="50.679209967517785" r="4" fill="#ff725c"></circle><circle cx="397.61613013654966" cy="137.8966266352294" r="4" fill="#ff725c"></circle><circle cx="433.930186286707" cy="152.6932320444289" r="4" fill="#ff725c"></circle><circle cx="383.35886120054397" cy="127.2669737967957" r="4" fill="#ff725c"></circle><circle cx="451.46993958015497" cy="179.19565835362417" r="4" fill="#ff725c"></circle><circle cx="428.0276387255654" cy="155.02950639161705" r="4" fill="#ff725c"></circle><circle cx="356.25161797830606" cy="80.72309111234144" r="4" fill="#ff725c"></circle><circle cx="375.6449501841684" cy="111.01586490350341" r="4" fill="#ff725c"></circle><circle cx="532.9866357046867" cy="312.89930248970666" r="4" fill="#ff725c"></circle><circle cx="434.7994687193578" cy="153.9165574547742" r="4" fill="#ff725c"></circle><circle cx="421.85199387866237" cy="195.19178482668272" r="4" fill="#ff725c"></circle><circle cx="384.666283258581" cy="65.90152034771239" r="4" fill="#ff725c"></circle><circle cx="375.9777086469915" cy="191.51012041954556" r="4" fill="#ff725c"></circle><circle cx="352.2649766215494" cy="69.9427938153133" r="4" fill="#ff725c"></circle><circle cx="396.0410831840729" cy="178.82992777791821" r="4" fill="#ff725c"></circle><circle cx="325.1236533905173" cy="59.48313522304298" r="4" fill="#ff725c"></circle><circle cx="460.47693189545794" cy="198.24722319408474" r="4" fill="#ff725c"></circle><circle cx="361.4508469576418" cy="83.30802588302166" r="4" fill="#ff725c"></circle><circle cx="405.2541768600524" cy="161.08458264385138" r="4" fill="#ff725c"></circle><circle cx="451.61966106145394" cy="201.4443277421914" r="4" fill="#ff725c"></circle><circle cx="396.3657770332194" cy="79.88814245392595" r="4" fill="#ff725c"></circle><circle cx="355.2134237407861" cy="90.2682889808627" r="4" fill="#ff725c"></circle><circle cx="453.04509662517245" cy="200.4742889983758" r="4" fill="#ff725c"></circle><circle cx="409.98807293078863" cy="73.72970544950138" r="4" fill="#ff725c"></circle><circle cx="392.2041979638197" cy="153.0552017857881" r="4" fill="#ff725c"></circle><circle cx="387.2940507375643" cy="112.92407359880085" r="4" fill="#ff725c"></circle><circle cx="447.95526761582363" cy="128.95766255633666" r="4" fill="#ff725c"></circle><circle cx="355.3500078051179" cy="103.48867311865077" r="4" fill="#ff725c"></circle><circle cx="444.66497808352113" cy="167.22568367931737" r="4" fill="#ff725c"></circle><circle cx="405.7899317268769" cy="118.7065358615902" r="4" fill="#ff725c"></circle><circle cx="398.9409240055285" cy="137.73859477335304" r="4" fill="#ff725c"></circle><circle cx="344.72042083805087" cy="76.99836533487132" r="4" fill="#ff725c"></circle><circle cx="404.92214672629336" cy="129.4149407194128" r="4" fill="#ff725c"></circle><circle cx="340.0542852009685" cy="91.24300758477956" r="4" fill="#ff725c"></circle><circle cx="464.8523828492862" cy="182.5933698125311" r="4" fill="#ff725c"></circle><circle cx="349.89312014726266" cy="85.5537765476903" r="4" fill="#ff725c"></circle><circle cx="426.86146936087795" cy="134.28535655641218" r="4" fill="#ff725c"></circle><circle cx="376.7097133414508" cy="93.44535001683005" r="4" fill="#ff725c"></circle><circle cx="505.36899859471396" cy="227.5062742738275" r="4" fill="#ff725c"></circle><circle cx="400.9344467710431" cy="105.58985933827756" r="4" fill="#ff725c"></circle><circle cx="464.55363356054795" cy="224.16374271066937" r="4" fill="#ff725c"></circle><circle cx="472.9291181242897" cy="204.29142493322595" r="4" fill="#ff725c"></circle><circle cx="390.80799284443486" cy="86.79229970860189" r="4" fill="#ff725c"></circle><circle cx="467.8648702791118" cy="175.9714697523814" r="4" fill="#ff725c"></circle><circle cx="394.58879227113863" cy="145.5307175441161" r="4" fill="#ff725c"></circle><circle cx="404.5329375452868" cy="154.90730463792042" r="4" fill="#ff725c"></circle><circle cx="419.2552452999675" cy="170.35084452618594" r="4" fill="#ff725c"></circle><circle cx="414.1610371529949" cy="132.89406047885674" r="4" fill="#ff725c"></circle><circle cx="384.98229426981646" cy="134.53444968424958" r="4" fill="#ff725c"></circle><circle cx="473.40320471370217" cy="190.9232946011805" r="4" fill="#ff725c"></circle><circle cx="378.0161522383305" cy="118.49014235474938" r="4" fill="#ff725c"></circle><circle cx="464.7176218961134" cy="221.54444136266744" r="4" fill="#ff725c"></circle><circle cx="394.22213320247084" cy="88.84642174036006" r="4" fill="#ff725c"></circle><circle cx="436.27157278682" cy="175.99951433296152" r="4" fill="#ff725c"></circle><circle cx="392.39216376918387" cy="140.90458910308695" r="4" fill="#ff725c"></circle><circle cx="459.55660182144004" cy="208.0307445564465" r="4" fill="#ff725c"></circle><circle cx="386.09679239798106" cy="130.71192893240104" r="4" fill="#ff725c"></circle><circle cx="445.1450120855267" cy="195.99621358418355" r="4" fill="#ff725c"></circle><circle cx="384.18530075062256" cy="86.2981381461798" r="4" fill="#ff725c"></circle><circle cx="453.12559489595475" cy="246.658364979548" r="4" fill="#ff725c"></circle><circle cx="377.3180119620181" cy="91.235082598056" r="4" fill="#ff725c"></circle><circle cx="456.7332088700797" cy="154.83319789860516" r="4" fill="#ff725c"></circle><circle cx="401.81102547037307" cy="114.49906209021651" r="4" fill="#ff725c"></circle><circle cx="467.7951373962158" cy="247.96097023238073" r="4" fill="#ff725c"></circle><circle cx="408.2711881752469" cy="145.3716738927631" r="4" fill="#ff725c"></circle><circle cx="454.4896170184511" cy="250.67119574225111" r="4" fill="#ff725c"></circle><circle cx="377.95689064930014" cy="112.31948194581274" r="4" fill="#ff725c"></circle><circle cx="453.45127343875185" cy="200.0593023993451" r="4" fill="#ff725c"></circle><circle cx="379.788503026598" cy="110.9344566029664" r="4" fill="#ff725c"></circle><circle cx="451.01869719300595" cy="195.5130538786043" r="4" fill="#ff725c"></circle><circle cx="401.24611406405796" cy="184.81211103379712" r="4" fill="#ff725c"></circle><circle cx="418.0602489010203" cy="127.98928929686235" r="4" fill="#ff725c"></circle><circle cx="364.77525651667185" cy="131.8813305746943" r="4" fill="#ff725c"></circle><circle cx="441.26021576974887" cy="222.41752719309446" r="4" fill="#ff725c"></circle><circle cx="412.0505640747265" cy="152.8804228004271" r="4" fill="#ff725c"></circle><circle cx="485.86648659984985" cy="279.36124329399655" r="4" fill="#ff725c"></circle><circle cx="392.5343303173782" cy="158.0787486340433" r="4" fill="#ff725c"></circle><circle cx="470.49573811623986" cy="162.67334538468114" r="4" fill="#ff725c"></circle><circle cx="406.3093387301451" cy="176.6167620948071" r="4" fill="#ff725c"></circle><circle cx="346.0066062184324" cy="86.82730874846158" r="4" fill="#ff725c"></circle><circle cx="458.6073700441214" cy="221.72222113643045" r="4" fill="#ff725c"></circle><circle cx="353.2430354331276" cy="77.86872262944796" r="4" fill="#ff725c"></circle><circle cx="410.610238825784" cy="156.91749296899292" r="4" fill="#ff725c"></circle><circle cx="419.1100130488329" cy="176.25426453034925" r="4" fill="#ff725c"></circle><circle cx="485.65326913554594" cy="198.762777160065" r="4" fill="#ff725c"></circle><circle cx="355.29975933162063" cy="116.37909341150598" r="4" fill="#ff725c"></circle><circle cx="471.71441789915724" cy="221.58547679901596" r="4" fill="#ff725c"></circle><circle cx="383.97281697401513" cy="103.48512115944902" r="4" fill="#ff725c"></circle><circle cx="512.1991763267882" cy="244.48803536558572" r="4" fill="#ff725c"></circle><circle cx="458.7463607968347" cy="199.762028415066" r="4" fill="#ff725c"></circle><circle cx="412.11745067146893" cy="103.41197494757792" r="4" fill="#ff725c"></circle><circle cx="400.96717868994966" cy="117.73099618935312" r="4" fill="#ff725c"></circle><circle cx="463.0366795060674" cy="196.01098839074737" r="4" fill="#ff725c"></circle><circle cx="392.94229481861737" cy="122.09792532375555" r="4" fill="#ff725c"></circle><circle cx="413.5239469216674" cy="201.22421490269343" r="4" fill="#ff725c"></circle></g><g aria-label="arrow" fill="none" stroke="red" stroke-width="2" stroke-linecap="round" stroke-miterlimit="1" transform="translate(0.5,0.5)"><path d="M277.1697722458757,176.1587750811157L546.8534745935123,287.63002812721965M540.3537144752137,279.1724341323324L546.8534745935123,287.63002812721965L536.2791032798959,289.03018851072756"></path><path d="M277.1697722458757,176.1587750811157L40,324.0274290286997M50.660537836584844,323.6658895252969L40,324.0274290286997L45.01716652387398,314.6143626925106"></path><path d="M277.1697722458757,176.1587750811157L620,177.23378344123688M610.7791646900603,171.8715102325364L620,177.23378344123688L610.7457175242629,182.538124459407"></path><path d="M277.1697722458757,176.1587750811157L603.863494722643,190.35999497642956M594.8662244712807,184.63051805425522L603.863494722643,190.35999497642956L594.4029870319622,195.28712111773615"></path></g><g aria-label="text" fill="darkred" font-size="10" transform="translate(5.5,5.5)"><text y="0.32em" transform="translate(546.8534745935123,287.63002812721965)">Beak Length (mm)</text><text y="0.32em" transform="translate(40,324.0274290286997)">Beak Depth (mm)</text><text y="0.32em" transform="translate(620,177.23378344123688)">Flipper Length (mm)</text><text y="0.32em" transform="translate(603.863494722643,190.35999497642956)">Body Mass (g)</text></g></svg>